<svg xmlns="http://www.w3.org/2000/svg" xmlns:svg="http://www.w3.org/2000/svg" xmlns:xlink="http://www.w3.org/1999/xlink" id="svg2" width="746.94" height="647.206" version="1.1"><defs id="defs4"><linearGradient id="linearGradient4237"><stop id="stop4239" offset="0" stop-color="#eee" stop-opacity="1"/><stop id="stop4241" offset="1" stop-color="#aaa" stop-opacity="1"/></linearGradient><linearGradient id="linearGradient4227"><stop id="stop4229" offset="0" stop-color="#eee" stop-opacity="1"/><stop id="stop4231" offset="1" stop-color="#aaa" stop-opacity="1"/></linearGradient><linearGradient id="linearGradient4206"><stop id="stop4208" offset="0" stop-color="#fff" stop-opacity="1"/><stop id="stop4210" offset="1" stop-color="#b0b0b0" stop-opacity="1"/></linearGradient><linearGradient id="linearGradient4209"><stop id="stop4211" offset="0" stop-color="#fff" stop-opacity="1"/><stop id="stop4213" offset="1" stop-color="#fff" stop-opacity="0"/></linearGradient><linearGradient id="linearGradient4163"><stop id="stop4165" offset="0" stop-color="#ff7004" stop-opacity="1"/><stop id="stop4167" offset="1" stop-color="#ba4704" stop-opacity="1"/></linearGradient><linearGradient id="linearGradient4153"><stop id="stop4155" offset="0" stop-color="#d70016" stop-opacity="1"/><stop id="stop4157" offset="1" stop-color="#8d0016" stop-opacity="1"/></linearGradient><linearGradient id="linearGradient4143"><stop id="stop4145" offset="0" stop-color="#d000d0" stop-opacity="1"/><stop id="stop4147" offset="1" stop-color="#760076" stop-opacity="1"/></linearGradient><linearGradient id="linearGradient4133"><stop id="stop4135" offset="0" stop-color="#1476e6" stop-opacity="1"/><stop id="stop4137" offset="1" stop-color="#143e9a" stop-opacity="1"/></linearGradient><linearGradient id="linearGradient4123"><stop id="stop4125" offset="0" stop-color="#17b414" stop-opacity="1"/><stop id="stop4127" offset="1" stop-color="#176314" stop-opacity="1"/></linearGradient><linearGradient id="linearGradient4105"><stop id="stop4107" offset="0" stop-color="#f7f10e" stop-opacity="1"/><stop id="stop4109" offset="1" stop-color="#c58907" stop-opacity="1"/></linearGradient><filter id="filter3873" color-interpolation-filters="sRGB"><feGaussianBlur id="feGaussianBlur3875" stdDeviation="11.392"/></filter><filter id="filter4107" color-interpolation-filters="sRGB"><feGaussianBlur id="feGaussianBlur4109" stdDeviation="9"/></filter><filter id="filter3902"><feGaussianBlur id="feGaussianBlur3904" stdDeviation="9"/></filter><filter id="filter3936"><feGaussianBlur id="feGaussianBlur3938" stdDeviation="4.822"/></filter><filter id="filter3968"><feGaussianBlur id="feGaussianBlur3970" stdDeviation="4.612"/></filter><filter id="filter3992"><feGaussianBlur id="feGaussianBlur3994" stdDeviation="4.717"/></filter><filter id="filter4032"><feGaussianBlur id="feGaussianBlur4034" stdDeviation="5.065"/></filter><filter id="filter4056"><feGaussianBlur id="feGaussianBlur4058" stdDeviation="4.766"/></filter><filter id="filter4092"><feGaussianBlur id="feGaussianBlur4094" stdDeviation="4.72"/></filter><radialGradient id="radialGradient4217" cx="385.346" cy="495.543" r="205.641" fx="385.346" fy="495.543" gradientTransform="matrix(-1.7174909,-0.22708156,0.17381835,-1.314644,961.04115,1140.4252)" gradientUnits="userSpaceOnUse" xlink:href="#linearGradient4209"/><filter id="filter4226" width="1.6" height="1.6" x="-.3" y="-.3"><feGaussianBlur id="feGaussianBlur4228" stdDeviation="25.864"/></filter><filter id="filter4230" width="2.2" height="2.2" x="-.6" y="-.6"><feGaussianBlur id="feGaussianBlur4232" stdDeviation="12"/></filter><linearGradient id="linearGradient3885" x1="372.859" x2="318.297" y1="593.388" y2="726.388" gradientTransform="translate(1.8752155,-533.76621)" gradientUnits="userSpaceOnUse" xlink:href="#linearGradient4163"/><linearGradient id="linearGradient3888" x1="179.047" x2="180.172" y1="580.06" y2="752.06" gradientTransform="translate(1.8752155,-533.76621)" gradientUnits="userSpaceOnUse" xlink:href="#linearGradient4153"/><linearGradient id="linearGradient3891" x1="108.797" x2="54.765" y1="721.607" y2="857.607" gradientTransform="translate(1.8752155,-533.76621)" gradientUnits="userSpaceOnUse" xlink:href="#linearGradient4143"/><linearGradient id="linearGradient3894" x1="186.765" x2="170.547" y1="873.544" y2="997.544" gradientTransform="translate(1.8752155,-533.76621)" gradientUnits="userSpaceOnUse" xlink:href="#linearGradient4133"/><linearGradient id="linearGradient3897" x1="317.074" x2="343.89" y1="815.922" y2="1000.923" gradientTransform="translate(1.8752155,-533.76621)" gradientUnits="userSpaceOnUse" xlink:href="#linearGradient4123"/><linearGradient id="linearGradient3900" x1="393.14" x2="444.453" y1="738.919" y2="904.919" gradientTransform="translate(1.8752155,-533.76621)" gradientUnits="userSpaceOnUse" xlink:href="#linearGradient4105"/><linearGradient id="linearGradient3907" x1="277.627" x2="454.048" y1="637.059" y2="683.489" gradientTransform="matrix(0.5,0.8660254,-0.8660254,0.5,812.8952,-358.96163)" gradientUnits="userSpaceOnUse" xlink:href="#linearGradient4105"/><linearGradient id="linearGradient3911" x1="253.838" x2="401.186" y1="725.269" y2="612.484" gradientTransform="matrix(-0.5,0.8660254,-0.8660254,-0.5,1067.02,430.80457)" gradientUnits="userSpaceOnUse" xlink:href="#linearGradient4123"/><linearGradient id="linearGradient3915" x1="326.125" x2="342.125" y1="701.766" y2="581.766" gradientTransform="matrix(-1,0,0,-1,510.1248,1045.7662)" gradientUnits="userSpaceOnUse" xlink:href="#linearGradient4133"/><linearGradient id="linearGradient3919" x1="456.976" x2="273.627" y1="694.418" y2="643.987" gradientTransform="matrix(-0.5,-0.8660254,0.8660254,-0.5,-300.8952,870.96163)" gradientUnits="userSpaceOnUse" xlink:href="#linearGradient4143"/><linearGradient id="linearGradient3923" x1="432.115" x2="263.694" y1="650.053" y2="710.341" gradientTransform="matrix(0.5,-0.8660254,0.8660254,0.5,-555.02,81.195422)" gradientUnits="userSpaceOnUse" xlink:href="#linearGradient4153"/><linearGradient id="linearGradient3939" x1="393.14" x2="444.453" y1="738.919" y2="904.919" gradientTransform="translate(518.20335,-554.74741)" gradientUnits="userSpaceOnUse" xlink:href="#linearGradient4105"/><linearGradient id="linearGradient3941" x1="317.074" x2="343.89" y1="815.922" y2="1000.923" gradientTransform="translate(518.20335,-554.74741)" gradientUnits="userSpaceOnUse" xlink:href="#linearGradient4123"/><linearGradient id="linearGradient3943" x1="186.765" x2="170.547" y1="873.544" y2="997.544" gradientTransform="translate(518.20335,-554.74741)" gradientUnits="userSpaceOnUse" xlink:href="#linearGradient4133"/><linearGradient id="linearGradient3945" x1="108.797" x2="54.765" y1="721.607" y2="857.607" gradientTransform="translate(518.20335,-554.74741)" gradientUnits="userSpaceOnUse" xlink:href="#linearGradient4143"/><linearGradient id="linearGradient3947" x1="179.047" x2="180.172" y1="580.06" y2="752.06" gradientTransform="translate(518.20335,-554.74741)" gradientUnits="userSpaceOnUse" xlink:href="#linearGradient4153"/><linearGradient id="linearGradient3949" x1="372.859" x2="318.297" y1="593.388" y2="726.388" gradientTransform="translate(518.20335,-554.74741)" gradientUnits="userSpaceOnUse" xlink:href="#linearGradient4163"/><filter id="filter3999" width="1.204" height="1.282" x="-.102" y="-.141"><feGaussianBlur id="feGaussianBlur4001" stdDeviation="9.267"/></filter><filter id="filter4007" width="1.239" height="1.214" x="-.119" y="-.107"><feGaussianBlur id="feGaussianBlur4009" stdDeviation="9.267"/></filter><filter id="filter4011" width="1.204" height="1.282" x="-.102" y="-.141"><feGaussianBlur id="feGaussianBlur4013" stdDeviation="9.267"/></filter><filter id="filter4015" width="1.251" height="1.221" x="-.125" y="-.11"><feGaussianBlur id="feGaussianBlur4017" stdDeviation="9.267"/></filter><filter id="filter4019" width="1.239" height="1.214" x="-.119" y="-.107"><feGaussianBlur id="feGaussianBlur4021" stdDeviation="9.267"/></filter><linearGradient id="linearGradient4212" x1="256" x2="256" y1="224" y2="288" gradientUnits="userSpaceOnUse" xlink:href="#linearGradient4206"/><filter id="filter4245" width="1.251" height="1.221" x="-.126" y="-.111"><feGaussianBlur id="feGaussianBlur4247" stdDeviation="9.291"/></filter><filter id="filter4257" width="1.235" height="1.235" x="-.118" y="-.118"><feGaussianBlur id="feGaussianBlur4259" stdDeviation="3.136"/></filter><filter id="filter4308"><feGaussianBlur id="feGaussianBlur4310" stdDeviation="4.831"/></filter><filter id="filter4312"><feGaussianBlur id="feGaussianBlur4314" stdDeviation="4.819"/></filter><filter id="filter4320"><feGaussianBlur id="feGaussianBlur4322" stdDeviation="4.825"/></filter><filter id="filter4328"><feGaussianBlur id="feGaussianBlur4330" stdDeviation="5.057"/></filter><filter id="filter4336"><feGaussianBlur id="feGaussianBlur4338" stdDeviation="5.057"/></filter><filter id="filter4344"><feGaussianBlur id="feGaussianBlur4346" stdDeviation="4.822"/></filter><filter id="filter4348"><feGaussianBlur id="feGaussianBlur4350" stdDeviation="1.758"/></filter><linearGradient id="linearGradient4233" x1="284.137" x2="495.263" y1="48.729" y2="216.87" gradientUnits="userSpaceOnUse" xlink:href="#linearGradient4227"/><radialGradient id="radialGradient4243" cx="615.021" cy="439.56" r="53.05" fx="615.021" fy="439.56" gradientTransform="matrix(1,0,0,1.0423729,0,-19.466087)" gradientUnits="userSpaceOnUse" xlink:href="#linearGradient4237"/><filter id="filter4251" width="1.105" height="1.14" x="-.052" y="-.07" color-interpolation-filters="sRGB"><feGaussianBlur id="feGaussianBlur4253" stdDeviation="6.564"/></filter><filter id="filter4258" width="1.177" height="1.091" x="-.088" y="-.045" color-interpolation-filters="sRGB"><feGaussianBlur id="feGaussianBlur4260" stdDeviation="3.945"/></filter><clipPath id="clipPath4264" clipPathUnits="userSpaceOnUse"><path id="path4266" fill="#980101" stroke="none" d="m 225.68807,-8.1834862 c 46.82418,-37.0701688 63.09746,-57.4854428 115.72076,-70.1817298 45.13773,-10.890263 85.07319,-20.300875 167.07511,-8.092376 85.89123,40.568757 231.15425,206.898572 214.07413,364.376932 -9.07121,83.63638 -50.73692,119.43206 -80.82534,162.90063 -28.00317,-30.51243 -39.15603,-63.43205 -50.45871,-96.33027 -5.51756,-16.05971 10.56461,-54.56142 33.96323,-72.9741 -23.30206,-40.62781 -43.91409,-75.38662 -68.81699,-113.60749 -2.6654,20.99162 -15.69025,23.12123 -29.81476,43.08272 z"/></clipPath><filter id="filter4277" width="1.084" height="1.213" x="-.042" y="-.106" color-interpolation-filters="sRGB"><feGaussianBlur id="feGaussianBlur4279" stdDeviation="7.137"/></filter><clipPath id="clipPath4283" clipPathUnits="userSpaceOnUse"><path id="path4285" fill="#980101" stroke="none" d="m 225.68807,-8.1834862 c 46.82418,-37.0701688 63.09746,-57.4854428 115.72076,-70.1817298 45.13773,-10.890263 85.07319,-20.300875 167.07511,-8.092376 85.89123,40.568757 231.15425,206.898572 214.07413,364.376932 -9.07121,83.63638 -50.73692,119.43206 -80.82534,162.90063 -28.00317,-30.51243 -39.15603,-63.43205 -50.45871,-96.33027 -5.51756,-16.05971 10.56461,-54.56142 33.96323,-72.9741 -23.30206,-40.62781 -43.91409,-75.38662 -68.81699,-113.60749 -2.6654,20.99162 -15.69025,23.12123 -29.81476,43.08272 z"/></clipPath><linearGradient id="linearGradient4306" x1="372.859" x2="318.297" y1="593.388" y2="726.388" gradientTransform="translate(1.8752155,-533.76621)" gradientUnits="userSpaceOnUse" xlink:href="#linearGradient4163"/></defs><metadata id="metadata7"/><g id="layer3" display="inline" transform="translate(2.9999996,112.20568)"><path id="path3947" fill="#1a1a1a" fill-opacity="1" stroke="none" d="M 510,287 A 225,225 0 0 1 288.48211,511.97305 225,225 0 0 1 60.107778,293.96338 225,225 0 0 1 274.55701,62.242477 225,225 0 0 1 509.56899,273.07991" filter="url(#filter4107)" opacity=".95" transform="matrix(0.95555556,0,0,0.95555556,-17.333333,-17.24444)"/><path id="path3892" fill="#1a1a1a" fill-opacity="1" stroke="none" d="M 510,287 A 225,225 0 0 1 288.48211,511.97305 225,225 0 0 1 60.107778,293.96338 225,225 0 0 1 274.55701,62.242477 225,225 0 0 1 509.56899,273.07991" display="inline" filter="url(#filter3902)" opacity=".95" transform="matrix(0.95555556,0,0,0.95555556,-17.333333,-17.24444)"/><path id="path3021" fill="#1a1a1a" fill-opacity="1" stroke="none" d="M 510,287 A 225,225 0 0 1 288.48211,511.97305 225,225 0 0 1 60.107778,293.96338 225,225 0 0 1 274.55701,62.242477 225,225 0 0 1 509.56899,273.07991" display="inline" opacity=".95" transform="matrix(0.95555556,0,0,0.95555556,-17.333333,-17.24444)"/></g><g id="layer7" display="none" transform="translate(2.9999996,112.20568)"><path id="path4203" fill="url(#radialGradient4217)" fill-opacity="1" stroke="none" d="M 255,42 C 136.25878,42 40,138.25878 40,257 c 0,25.08697 4.289884,49.17838 12.1875,71.5625 C 122.3704,318.91834 200.68367,333.17332 256,256 303.72594,189.41624 387.01333,177.08933 451.28125,169.1875 417.58022,93.90764 342.0506,42 255,42 Z" display="inline" opacity=".589"/></g><g id="layer1" display="none" transform="translate(2.9999996,-428.1565)"><g id="g3737" transform="translate(-709.12708,129.29952)"><path id="path3735" fill="#000" fill-opacity="1" stroke="none" d="m 963.22148,446.72694 c -69.853,0 -132.4779,30.83086 -175.0625,79.625 l 108.3125,127.6875 72.8125,-207.21875 c -2.016,-0.0517 -4.0341,-0.0937 -6.0625,-0.0937 z" filter="url(#filter3873)" opacity=".7"/><path id="path3733" fill="#000" fill-opacity="1" stroke="none" d="m 1006.4402,450.75819 -55.46872,157.90625 218.43752,-36.75 c -32.3544,-62.13479 -91.9588,-107.79342 -162.9688,-121.15625 z" filter="url(#filter3873)" opacity=".7"/><path id="path3731" fill="#000" fill-opacity="1" stroke="none" d="m 765.94018,548.35194 c -22.19716,35.61583 -35.03124,77.66073 -35.03124,122.71875 0,25.29181 4.06058,49.64346 11.53125,72.4375 l 165.43749,-27.8125 -141.9375,-167.34375 z" filter="url(#filter3873)" opacity=".7"/><path id="path3729" fill="#000" fill-opacity="1" stroke="none" d="m 1175.9402,606.35194 -164.6875,27.71875 141.0625,168.0625 c 22.3348,-35.68919 35.25,-77.85866 35.25,-123.0625 0,-25.40267 -4.0896,-49.83849 -11.625,-72.71875 z" filter="url(#filter3873)" opacity=".7"/><path id="path3727" fill="#000" fill-opacity="1" stroke="none" d="m 1021.659,693.03944 -0.25,0.6875 0.4687,0.1875 -13.9062,36.625 0.2812,1.8125 -1.0312,0.1875 -64.03132,168.56256 c 3.989,0.2037 7.9916,0.3125 12.0313,0.3125 69.68722,0 132.19432,-30.68816 174.78122,-79.28131 L 1021.659,693.03944 Z" filter="url(#filter3873)" opacity=".7"/><path id="path3714-9" fill="#000" fill-opacity="1" stroke="none" d="m 971.65898,739.50819 -216.7813,36.4375 c 31.4241,60.56799 88.738,105.54541 157.2813,120.28131 l 59.5,-156.71881 z" filter="url(#filter3873)" opacity=".7"/></g></g><g id="layer9" display="inline" transform="translate(2.9999996,112.20568)"><path id="path3951" fill="#000" fill-opacity="1" fill-rule="nonzero" stroke="none" d="m 303.20313,32.6687 -55.46875,157.90625 218.4375,-36.75 C 433.81752,91.69016 374.21313,46.03153 303.20313,32.6687 Z" display="inline" filter="url(#filter3999)"/><path id="path3953" fill="#000" fill-opacity="1" fill-rule="nonzero" stroke="none" d="m 473.01214,185.21346 -164.4852,30.91578 141.04518,170.79742 c 37.63313,-59.08709 47.37247,-133.53532 23.44002,-201.7132 z" display="inline" filter="url(#filter4245)"/><path id="path3955" fill="#000" fill-opacity="1" fill-rule="nonzero" stroke="none" d="M 425.80901,408.54475 316.79256,281.55428 239.40024,489.1017 c 69.98749,3.0477 139.33122,-25.7419 186.40877,-80.55695 z" display="inline" filter="url(#filter4007)"/><path id="path3957" fill="#000" fill-opacity="1" fill-rule="nonzero" stroke="none" d="M 208.79687,479.33129 264.26562,321.42504 45.828123,358.17503 c 32.354359,62.1348 91.958747,107.79343 162.968747,121.15626 z" display="inline" filter="url(#filter4011)"/><path id="path3959" fill="#000" fill-opacity="1" fill-rule="nonzero" stroke="none" d="M 38.987861,326.78653 203.47306,295.87075 62.427886,125.07333 C 24.794751,184.16042 15.055411,258.60865 38.987861,326.78653 Z" display="inline" filter="url(#filter4015)"/><path id="path3961" fill="#000" fill-opacity="1" fill-rule="nonzero" stroke="none" d="M 86.190993,103.45524 195.20744,230.44571 272.59976,22.898294 C 202.61227,19.850588 133.26854,48.640187 86.190993,103.45524 Z" display="inline" filter="url(#filter4019)"/><circle id="path4249" cx="256" cy="256" r="32" fill="#000" fill-opacity="1" stroke="none" display="inline" filter="url(#filter4257)"/></g><g id="layer5" display="none" transform="translate(2.9999996,112.20568)"><path id="path4103" fill="url(#linearGradient3900)" fill-opacity="1" fill-rule="nonzero" stroke="none" d="m 472.70313,188.26245 -164.6875,27.71875 141.0625,168.0625 c 22.3348,-35.68919 35.25,-77.85866 35.25,-123.0625 0,-25.40267 -4.0896,-49.83849 -11.625,-72.71875 z" display="inline" filter="url(#filter3915)"/><path id="path4121" fill="url(#linearGradient3897)" fill-opacity="1" fill-rule="nonzero" stroke="none" d="m 318.42188,274.94995 -0.25,0.6875 0.46875,0.1875 -13.90625,36.625 c -6.27935,17.39953 14.75924,-37.8342 14.25,-36.5 l -79.03125,207.06244 c -0.19468,0.5101 7.99158,0.3125 12.03125,0.3125 69.6872,0 132.19435,-30.68804 174.78125,-79.28119 z" display="inline" filter="url(#filter3927)"/><path id="path4131" fill="url(#linearGradient3894)" fill-opacity="1" fill-rule="nonzero" stroke="none" d="M 268.42188,321.4187 51.640625,357.8562 c 31.424104,60.56799 88.737945,105.54537 157.281255,120.28119 l 59.5,-156.71869 z" display="inline" filter="url(#filter3865)"/><path id="path4141" fill="url(#linearGradient3891)" fill-opacity="1" fill-rule="nonzero" stroke="none" d="m 62.703125,130.26245 c -22.197173,35.61583 -35.031251,77.66073 -35.031251,122.71875 0,25.29181 4.060577,49.64346 11.531251,72.4375 L 204.64063,297.6062 62.703125,130.26245 Z" display="inline" filter="url(#filter3878)"/><path id="path4151" fill="url(#linearGradient3888)" fill-opacity="1" fill-rule="nonzero" stroke="none" d="m 259.98438,28.63745 c -69.85301,0 -132.47785,30.83086 -175.062501,79.625 L 193.23438,235.94995 266.04688,28.7312 c -2.01599,-0.0517 -4.03403,-0.0937 -6.0625,-0.0937 z" display="inline" filter="url(#filter3891)"/><path id="path4161" fill="url(#linearGradient4306)" fill-opacity="1" fill-rule="nonzero" stroke="none" d="m 303.20313,32.6687 -55.46875,157.90625 218.4375,-36.75 C 433.81752,91.69016 374.21313,46.03153 303.20313,32.6687 Z" display="inline" filter="url(#filter3903)"/><path id="path3927" fill="url(#linearGradient3939)" fill-opacity="1" fill-rule="nonzero" stroke="none" d="M 989.03126,167.28125 824.34376,195 965.40626,363.0625 c 22.3348,-35.68919 35.25004,-77.85866 35.25004,-123.0625 0,-25.40267 -4.08964,-49.83849 -11.62504,-72.71875 z" display="inline" filter="url(#filter3915)"/><path id="path3929" fill="url(#linearGradient3941)" fill-opacity="1" fill-rule="nonzero" stroke="none" d="m 834.75001,253.96875 -0.25,0.6875 0.46875,0.1875 -13.90625,36.625 c -6.27935,17.39953 14.75924,-37.8342 14.25,-36.5 l -79.03125,207.06244 c -0.19468,0.5101 7.99158,0.3125 12.03125,0.3125 69.6872,0 132.19435,-30.68804 174.78125,-79.28119 z" display="inline" filter="url(#filter3927)"/><path id="path3931" fill="url(#linearGradient3943)" fill-opacity="1" fill-rule="nonzero" stroke="none" d="M 784.75001,300.4375 567.96876,336.875 c 31.4241,60.56799 88.73794,105.54537 157.28125,120.28119 l 59.5,-156.71869 z" display="inline" filter="url(#filter3865)"/><path id="path3933" fill="url(#linearGradient3945)" fill-opacity="1" fill-rule="nonzero" stroke="none" d="M 579.03126,109.28125 C 556.83408,144.89708 544,186.94198 544,232 c 0,25.29181 4.06058,49.64346 11.53126,72.4375 L 720.96876,276.625 579.03126,109.28125 Z" display="inline" filter="url(#filter3878)"/><path id="path3935" fill="url(#linearGradient3947)" fill-opacity="1" fill-rule="nonzero" stroke="none" d="m 776.31251,7.65625 c -69.85301,0 -132.47785,30.83086 -175.0625,79.625 L 709.56251,214.96875 782.37501,7.75 c -2.01599,-0.0517 -4.03403,-0.0937 -6.0625,-0.0937 z" display="inline" filter="url(#filter3891)"/><path id="path3937" fill="url(#linearGradient3949)" fill-opacity="1" fill-rule="nonzero" stroke="none" d="m 819.53126,11.6875 -55.46875,157.90625 218.43755,-36.75 C 950.14566,70.70896 890.54126,25.05033 819.53126,11.6875 Z" display="inline" filter="url(#filter3903)"/></g><g id="layer2" display="inline" transform="translate(2.9999996,112.20568)"><path id="path3902" fill="url(#linearGradient3885)" fill-opacity="1" fill-rule="nonzero" stroke="none" d="m 303.20313,32.6687 -55.46875,157.90625 218.4375,-36.75 C 433.81752,91.69016 374.21313,46.03153 303.20313,32.6687 Z" display="inline"/><path id="path3905" fill="url(#linearGradient3907)" fill-opacity="1" fill-rule="nonzero" stroke="none" d="m 473.01214,185.21346 -164.4852,30.91578 141.04518,170.79742 c 37.63313,-59.08709 47.37247,-133.53532 23.44002,-201.7132 z" display="inline"/><path id="path3909" fill="url(#linearGradient3911)" fill-opacity="1" fill-rule="nonzero" stroke="none" d="M 425.80901,408.54475 316.79256,281.55428 239.40024,489.1017 c 69.98749,3.0477 139.33122,-25.7419 186.40877,-80.55695 z" display="inline"/><path id="path3913" fill="url(#linearGradient3915)" fill-opacity="1" fill-rule="nonzero" stroke="none" d="M 208.79687,479.33129 264.26562,321.42504 45.828123,358.17503 c 32.354359,62.1348 91.958747,107.79343 162.968747,121.15626 z" display="inline"/><path id="path3917" fill="url(#linearGradient3919)" fill-opacity="1" fill-rule="nonzero" stroke="none" d="M 38.987861,326.78653 203.47306,295.87075 62.427886,125.07333 C 24.794751,184.16042 15.055411,258.60865 38.987861,326.78653 Z" display="inline"/><path id="path3921" fill="url(#linearGradient3923)" fill-opacity="1" fill-rule="nonzero" stroke="none" d="M 86.190993,103.45524 195.20744,230.44571 272.59976,22.898294 C 202.61227,19.850588 133.26854,48.640187 86.190993,103.45524 Z" display="inline"/><circle id="path4204" cx="256" cy="256" r="32" fill="url(#linearGradient4212)" fill-opacity="1" stroke="none"/></g><g id="layer4" display="none" opacity=".5" transform="translate(2.9999996,112.20568)"><path id="path3804" fill="#fff" fill-opacity="1" fill-rule="nonzero" stroke="none" d="m 241.71875,576.96875 c -52.52125,3.75711 -103.53072,27.61218 -140,65.46875 28.19792,33.23958 56.39583,66.47917 84.59375,99.71875 19.0376,-55.18211 39.26783,-109.92889 57.5625,-165.3125 -0.71875,0.0417 -1.4375,0.0833 -2.15625,0.125 z" filter="url(#filter3968)" opacity=".15" transform="translate(0,-540.36218)"/><path id="path3820" fill="#fff" fill-opacity="1" fill-rule="nonzero" stroke="none" d="M 260.84375,711.6875 C 323.42534,701.10489 386.12162,690.78497 448.625,680 417.94636,628.8856 365.85318,590.96186 307.75,578.03125 292.11458,622.58333 276.47917,667.13542 260.84375,711.6875 Z" filter="url(#filter3936)" opacity=".15" transform="translate(0,-540.36218)"/><path id="path3832" fill="#fff" fill-opacity="1" fill-rule="nonzero" stroke="none" d="m 325.03125,756.6875 c 40.2416,47.92028 80.24387,96.04285 120.8125,143.6875 27.54874,-50.45306 33.91929,-111.9497 18,-167.09375 -46.27083,7.80208 -92.54167,15.60417 -138.8125,23.40625 z" filter="url(#filter3992)" opacity=".25" transform="translate(0,-540.36218)"/><path id="path3844" fill="#fff" fill-opacity="1" fill-rule="nonzero" stroke="none" d="m 319.75,829.90625 c -21.90667,59.29712 -44.86143,118.21427 -67.3125,177.31255 59.62754,-0.5724 118.60085,-26.21162 159.15625,-69.7188 -30.45833,-36.27083 -60.91667,-72.54167 -91.375,-108.8125 l -0.35898,0.93335 -0.10977,0.2854 z" filter="url(#filter4032)" opacity=".15" transform="translate(0,-540.36218)"/><path id="path3856" fill="#fff" fill-opacity="1" fill-rule="nonzero" stroke="none" d="m 65.375,899.125 c 29.625481,49.62579 79.45041,86.81104 135.375,101.0938 C 217.46875,956.14583 234.1875,912.07292 250.90625,868 189.0625,878.375 127.21875,888.75 65.375,899.125 Z" filter="url(#filter4056)" opacity=".15" transform="translate(0,-540.36218)"/><path id="path3880" fill="#fff" fill-opacity="1" fill-rule="nonzero" stroke="none" d="M 61.71875,682.40625 C 34.783622,732.5226 28.680134,793.27881 44.28125,847.90625 90.802083,840.10417 137.32292,832.30208 183.84375,824.5 143.33333,776.76042 102.82292,729.02083 62.3125,681.28125 l -0.466759,0.88438 -0.126991,0.24062 z" filter="url(#filter4092)" opacity=".25" transform="translate(0,-540.36218)"/></g><g id="layer6" display="inline" opacity=".5" transform="translate(2.9999996,112.20568)"><path id="path4023" fill="#fff" fill-opacity="1" fill-rule="nonzero" stroke="none" d="m 262.75,177.90625 c 62.52323,-10.73321 125.19451,-20.60368 187.625,-31.875 C 419.71999,95.155323 367.86385,57.206218 309.65625,44.25 294.02083,88.802083 278.38542,133.35417 262.75,177.90625 Z" display="inline" filter="url(#filter4312)" opacity=".15"/><path id="path4025" fill="#fff" fill-opacity="1" fill-rule="nonzero" stroke="none" d="m 327.03125,222.84375 c 40.52329,48.7881 80.41434,98.10187 121.40625,146.5 28.72085,-51.924 35.59327,-115.91001 17.78125,-172.71875 -46.39583,8.73958 -92.79167,17.47917 -139.1875,26.21875 z" display="inline" filter="url(#filter4320)" opacity=".25"/><path id="path4027" fill="#fff" fill-opacity="1" fill-rule="nonzero" stroke="none" d="m 253.6875,479.3125 c 59.78567,-1.05071 118.43027,-27.00522 158.75,-70.875 -30.73958,-35.83333 -61.47917,-71.66667 -92.21875,-107.5 -22.17708,59.45833 -44.35417,118.91667 -66.53125,178.375 z" display="inline" filter="url(#filter4336)" opacity=".15"/><path id="path4029" fill="#fff" fill-opacity="1" fill-rule="nonzero" stroke="none" d="M 61.4375,365.6875 C 92.010813,416.62413 143.95272,454.72618 202.34375,467.75 217.97917,423.19792 233.61458,378.64583 249.25,334.09375 186.64583,344.625 124.04167,355.15625 61.4375,365.6875 Z" display="inline" filter="url(#filter4344)" opacity=".15"/><path id="path4031" fill="#fff" fill-opacity="1" fill-rule="nonzero" stroke="none" d="M 63.25,143.21875 C 34.736871,195.07118 28.061243,258.83927 45.78125,315.375 c 46.416667,-8.73958 92.83333,-17.47917 139.25,-26.21875 -40.4375,-48.9375 -80.875,-97.875 -121.3125,-146.8125 l -0.46875,0.875 z" display="inline" filter="url(#filter4308)" opacity=".25"/><path id="path4033" fill="#fff" fill-opacity="1" fill-rule="nonzero" stroke="none" d="m 257.71875,32.71875 c -59.39755,1.052231 -117.93041,27.160989 -158.1875,70.8125 30.75,35.84375 61.5,71.6875 92.25,107.53125 22.17708,-59.45833 44.35417,-118.916667 66.53125,-178.375 l -0.59375,0.03125 z" display="inline" filter="url(#filter4328)" opacity=".15"/><path id="path4214" fill="#fff" fill-opacity="1" stroke="none" d="m 254.78125,234.03125 c -17.8789,-0.18647 -28.23464,25.62892 -14.5625,37.5 10.37034,10.67035 31.40662,7.50652 36.21875,-7.15625 5.24155,-12.60382 -3.31381,-29.03594 -17.28125,-30.15625 -1.45106,-0.20321 -2.91063,-0.2824 -4.375,-0.1875 z" display="inline" filter="url(#filter4348)" opacity=".15"/></g><g id="layer8" display="none" transform="translate(2.9999996,112.20568)"><path id="path4222" fill="#fff" fill-opacity="1" stroke="none" d="M 359.45651,256 A 103.45651,103.45651 0 0 1 257.6011,359.44412 103.45651,103.45651 0 0 1 152.59304,259.20181 a 103.45651,103.45651 0 0 1 98.6052,-106.54683 103.45651,103.45651 0 0 1 108.06009,96.94447" filter="url(#filter4226)" opacity=".589"/><path id="path4220" fill="#fff" fill-opacity="1" stroke="none" d="m 280,256 a 24,24 0 0 1 -23.62858,23.99713 24,24 0 0 1 -24.35992,-23.25437 24,24 0 0 1 22.87458,-24.7169 24,24 0 0 1 25.06795,22.48933" filter="url(#filter4230)" opacity=".589"/><path id="path4234" fill="#fff" fill-opacity="1" stroke="none" d="m 280,256 a 24,24 0 0 1 -23.62858,23.99713 24,24 0 0 1 -24.35992,-23.25437 24,24 0 0 1 22.87458,-24.7169 24,24 0 0 1 25.06795,22.48933" filter="url(#filter4230)" opacity=".589"/></g><g id="layer10" transform="translate(2.9999996,112.20568)"><path id="path4225" fill="#980101" stroke="none" d="m 225.68807,-8.1834862 c 46.82418,-37.0701688 63.09746,-57.4854428 115.72076,-70.1817298 45.13773,-10.890263 85.07319,-20.300875 167.07511,-8.092376 85.89123,40.568757 231.15425,206.898572 214.07413,364.376932 -9.07121,83.63638 -50.73692,119.43206 -80.82534,162.90063 -28.00317,-30.51243 -39.15603,-63.43205 -50.45871,-96.33027 -5.51756,-16.05971 10.56461,-54.56142 33.96323,-72.9741 -23.30206,-40.62781 -43.91409,-75.38662 -68.81699,-113.60749 -2.6654,20.99162 -15.69025,23.12123 -29.81476,43.08272 z"/><ellipse id="path4235" cx="633.004" cy="459.4" fill="url(#radialGradient4243)" fill-opacity="1" stroke="none" rx="53.05" ry="55.298"/><path id="path4245" fill="#000" stroke="none" d="M 203.20857,32.751464 C 304.21857,93.946602 401.86252,159.8542 490.93752,237.75834 L 503.52567,193.69985 240.07384,12.970099 Z" filter="url(#filter4251)" opacity=".5"/><path id="path4255" fill="#760101" fill-opacity="1" stroke="none" d="M 526.00391,-86.835938 C 701.53069,93.386517 741.59633,267.33794 658.17969,435.57227 L 800.24609,314.18555 672.56641,-72.449219 526.00391,-86.835938 Z M 534.99609,62.423828 517.01367,193.69922 624.01172,271.02734 534.99609,62.423828 Z" clip-path="url(#clipPath4264)" filter="url(#filter4258)"/><path id="path4271" fill="#b60101" fill-opacity="1" stroke="none" d="M 274.24166,24.659088 C 336.4618,-71.904158 465.71839,-76.292286 582.65113,-97.625717 L 408.21545,-136.2893 172.63737,-23.895173 Z" clip-path="url(#clipPath4283)" filter="url(#filter4277)"/><path id="path3416" fill="url(#linearGradient4233)" stroke="none" d="m 180.73395,31.266055 c 81.0533,8.638455 292.59267,163.885185 310.09174,217.431195 16.62216,-10.62786 40.03528,-22.96597 42.20183,-50.45872 C 451.46222,86.013683 351.82805,9.0763644 223.85321,-12.770642 198.22845,-7.111354 183.84015,10.969746 180.73395,31.266055 Z" display="inline"/></g></svg>