<svg xmlns="http://www.w3.org/2000/svg" xmlns:svg="http://www.w3.org/2000/svg" xmlns:xlink="http://www.w3.org/1999/xlink" id="svg2" width="709.29" height="66.43" version="1.1"><defs id="defs4"><linearGradient id="linearGradient4671"><stop id="stop4673" offset="0" stop-color="#fff" stop-opacity=".974"/><stop id="stop4675" offset="1" stop-color="#fff" stop-opacity="0"/></linearGradient><linearGradient id="linearGradient4284"><stop id="stop4286" offset="0" stop-color="#a6cffc" stop-opacity=".569"/><stop id="stop4288" offset="1" stop-color="#9fcee8" stop-opacity="0"/></linearGradient><linearGradient id="linearGradient3733"><stop id="stop3735" offset="0" stop-color="#74b2f4" stop-opacity=".662"/><stop id="stop3737" offset="1" stop-color="#9fcee8" stop-opacity="0"/></linearGradient><linearGradient id="linearGradient4591"><stop id="stop4593" offset="0" stop-color="#24357f" stop-opacity="0"/><stop id="stop4595" offset="1" stop-color="#2f67a4" stop-opacity=".243"/></linearGradient><linearGradient id="linearGradient4706"><stop id="stop4708" offset="0" stop-color="#000" stop-opacity="1"/><stop id="stop4710" offset="1" stop-color="#7b7b7b" stop-opacity=".966"/></linearGradient><linearGradient id="linearGradient4465"><stop id="stop4467" offset="0" stop-color="#888" stop-opacity="1"/><stop id="stop4469" offset="1" stop-color="#e0e0e0" stop-opacity="0"/></linearGradient><linearGradient id="linearGradient4427"><stop id="stop4429" offset="0" stop-color="#bbb" stop-opacity="1"/><stop id="stop4431" offset="1" stop-color="#020202" stop-opacity="1"/></linearGradient><linearGradient id="linearGradient4342-8"><stop id="stop4344-9" offset="0" stop-color="#a7a7a7" stop-opacity="1"/><stop id="stop4415" offset=".5" stop-color="#a7a7a7" stop-opacity="0"/><stop id="stop4346-8" offset="1" stop-color="#a7a7a7" stop-opacity="1"/></linearGradient><linearGradient id="linearGradient3743"><stop id="stop3745" offset="0" stop-color="#000" stop-opacity="1"/><stop id="stop3751" offset=".618" stop-color="#000" stop-opacity="1"/><stop id="stop3747" offset="1" stop-color="#232323" stop-opacity=".948"/></linearGradient><linearGradient id="linearGradient3771"><stop id="stop3773" offset="0" stop-color="#fef6ba" stop-opacity="1"/><stop id="stop3775" offset="1" stop-color="#fefdcb" stop-opacity=".422"/></linearGradient><clipPath id="clipPath4207" clipPathUnits="userSpaceOnUse"><path id="path4209" fill="#000" fill-opacity=".214" fill-rule="nonzero" stroke="none" d="m -0.71425838,963.07651 709.99993838,0 0,67.14289 -709.99993838,0 0,-67.14289 z"/></clipPath><clipPath id="clipPath4207-9" clipPathUnits="userSpaceOnUse"><path id="path4209-4" fill="#000" fill-opacity=".214" fill-rule="nonzero" stroke="none" d="m -0.71425838,963.07651 709.99993838,0 0,67.14289 -709.99993838,0 0,-67.14289 z"/></clipPath><linearGradient id="linearGradient4105"><stop id="stop4107" offset="0" stop-color="#f7f10e" stop-opacity="1"/><stop id="stop4109" offset="1" stop-color="#c58907" stop-opacity="1"/></linearGradient><linearGradient id="linearGradient4123"><stop id="stop4125" offset="0" stop-color="#17b414" stop-opacity="1"/><stop id="stop4127" offset="1" stop-color="#176314" stop-opacity="1"/></linearGradient><linearGradient id="linearGradient4133"><stop id="stop4135" offset="0" stop-color="#1476e6" stop-opacity="1"/><stop id="stop4137" offset="1" stop-color="#143e9a" stop-opacity="1"/></linearGradient><linearGradient id="linearGradient4143"><stop id="stop4145" offset="0" stop-color="#d000d0" stop-opacity="1"/><stop id="stop4147" offset="1" stop-color="#760076" stop-opacity="1"/></linearGradient><linearGradient id="linearGradient4153"><stop id="stop4155" offset="0" stop-color="#d70016" stop-opacity="1"/><stop id="stop4157" offset="1" stop-color="#8d0016" stop-opacity="1"/></linearGradient><linearGradient id="linearGradient4163"><stop id="stop4165" offset="0" stop-color="#ff7004" stop-opacity="1"/><stop id="stop4167" offset="1" stop-color="#ba4704" stop-opacity="1"/></linearGradient><linearGradient id="linearGradient4209"><stop id="stop4211" offset="0" stop-color="#fff" stop-opacity="1"/><stop id="stop4213" offset="1" stop-color="#fff" stop-opacity="0"/></linearGradient><linearGradient id="linearGradient4206"><stop id="stop4208" offset="0" stop-color="#fff" stop-opacity="1"/><stop id="stop4210" offset="1" stop-color="#b0b0b0" stop-opacity="1"/></linearGradient><linearGradient id="linearGradient4163-0"><stop id="stop4165-8" offset="0" stop-color="#ff7004" stop-opacity="1"/><stop id="stop4167-6" offset="1" stop-color="#ba4704" stop-opacity="1"/></linearGradient><linearGradient id="linearGradient4105-2"><stop id="stop4107-4" offset="0" stop-color="#f7f10e" stop-opacity="1"/><stop id="stop4109-7" offset="1" stop-color="#c58907" stop-opacity="1"/></linearGradient><linearGradient id="linearGradient4123-9"><stop id="stop4125-3" offset="0" stop-color="#17b414" stop-opacity="1"/><stop id="stop4127-9" offset="1" stop-color="#176314" stop-opacity="1"/></linearGradient><linearGradient id="linearGradient4133-2"><stop id="stop4135-8" offset="0" stop-color="#1476e6" stop-opacity="1"/><stop id="stop4137-3" offset="1" stop-color="#143e9a" stop-opacity="1"/></linearGradient><linearGradient id="linearGradient4143-0"><stop id="stop4145-1" offset="0" stop-color="#d000d0" stop-opacity="1"/><stop id="stop4147-7" offset="1" stop-color="#760076" stop-opacity="1"/></linearGradient><linearGradient id="linearGradient4153-8"><stop id="stop4155-9" offset="0" stop-color="#d70016" stop-opacity="1"/><stop id="stop4157-1" offset="1" stop-color="#8d0016" stop-opacity="1"/></linearGradient><linearGradient id="linearGradient4206-5"><stop id="stop4208-4" offset="0" stop-color="#fff" stop-opacity="1"/><stop id="stop4210-9" offset="1" stop-color="#b0b0b0" stop-opacity="1"/></linearGradient><filter id="filter4348"><feGaussianBlur id="feGaussianBlur4350" stdDeviation="1.758"/></filter><filter id="filter4344"><feGaussianBlur id="feGaussianBlur4346" stdDeviation="4.822"/></filter><filter id="filter4336"><feGaussianBlur id="feGaussianBlur4338" stdDeviation="5.057"/></filter><filter id="filter4328"><feGaussianBlur id="feGaussianBlur4330" stdDeviation="5.057"/></filter><filter id="filter4320"><feGaussianBlur id="feGaussianBlur4322" stdDeviation="4.825"/></filter><filter id="filter4312"><feGaussianBlur id="feGaussianBlur4314" stdDeviation="4.819"/></filter><filter id="filter4308"><feGaussianBlur id="feGaussianBlur4310" stdDeviation="4.831"/></filter><filter id="filter4257" width="1.235" height="1.235" x="-.118" y="-.118"><feGaussianBlur id="feGaussianBlur4259" stdDeviation="3.136"/></filter><filter id="filter4245" width="1.251" height="1.221" x="-.126" y="-.111"><feGaussianBlur id="feGaussianBlur4247" stdDeviation="9.291"/></filter><linearGradient id="linearGradient4212" x1="256" x2="256" y1="224" y2="288" gradientUnits="userSpaceOnUse" xlink:href="#linearGradient4206-9"/><filter id="filter4019" width="1.239" height="1.214" x="-.119" y="-.107"><feGaussianBlur id="feGaussianBlur4021" stdDeviation="9.267"/></filter><filter id="filter4015" width="1.251" height="1.221" x="-.125" y="-.11"><feGaussianBlur id="feGaussianBlur4017" stdDeviation="9.267"/></filter><filter id="filter4011" width="1.204" height="1.282" x="-.102" y="-.141"><feGaussianBlur id="feGaussianBlur4013" stdDeviation="9.267"/></filter><filter id="filter4007" width="1.239" height="1.214" x="-.119" y="-.107"><feGaussianBlur id="feGaussianBlur4009" stdDeviation="9.267"/></filter><filter id="filter3999" width="1.204" height="1.282" x="-.102" y="-.141"><feGaussianBlur id="feGaussianBlur4001" stdDeviation="9.267"/></filter><linearGradient id="linearGradient3949" x1="372.859" x2="318.297" y1="593.388" y2="726.388" gradientTransform="translate(518.20335,-554.74741)" gradientUnits="userSpaceOnUse" xlink:href="#linearGradient4163-1"/><linearGradient id="linearGradient3947" x1="179.047" x2="180.172" y1="580.06" y2="752.06" gradientTransform="translate(518.20335,-554.74741)" gradientUnits="userSpaceOnUse" xlink:href="#linearGradient4153-7"/><linearGradient id="linearGradient3945" x1="108.797" x2="54.765" y1="721.607" y2="857.607" gradientTransform="translate(518.20335,-554.74741)" gradientUnits="userSpaceOnUse" xlink:href="#linearGradient4143-5"/><linearGradient id="linearGradient3943" x1="186.765" x2="170.547" y1="873.544" y2="997.544" gradientTransform="translate(518.20335,-554.74741)" gradientUnits="userSpaceOnUse" xlink:href="#linearGradient4133-9"/><linearGradient id="linearGradient3941" x1="317.074" x2="343.89" y1="815.922" y2="1000.923" gradientTransform="translate(518.20335,-554.74741)" gradientUnits="userSpaceOnUse" xlink:href="#linearGradient4123-0"/><linearGradient id="linearGradient3939" x1="393.14" x2="444.453" y1="738.919" y2="904.919" gradientTransform="translate(518.20335,-554.74741)" gradientUnits="userSpaceOnUse" xlink:href="#linearGradient4105-21"/><linearGradient id="linearGradient3923" x1="432.115" x2="263.694" y1="650.053" y2="710.341" gradientTransform="matrix(0.5,-0.8660254,0.8660254,0.5,-555.02,81.195422)" gradientUnits="userSpaceOnUse" xlink:href="#linearGradient4153-7"/><linearGradient id="linearGradient3919" x1="456.976" x2="273.627" y1="694.418" y2="643.987" gradientTransform="matrix(-0.5,-0.8660254,0.8660254,-0.5,-300.8952,870.96163)" gradientUnits="userSpaceOnUse" xlink:href="#linearGradient4143-5"/><linearGradient id="linearGradient3915" x1="326.125" x2="342.125" y1="701.766" y2="581.766" gradientTransform="matrix(-1,0,0,-1,510.1248,1045.7662)" gradientUnits="userSpaceOnUse" xlink:href="#linearGradient4133-9"/><linearGradient id="linearGradient3911" x1="253.838" x2="401.186" y1="725.269" y2="612.484" gradientTransform="matrix(-0.5,0.8660254,-0.8660254,-0.5,1067.02,430.80457)" gradientUnits="userSpaceOnUse" xlink:href="#linearGradient4123-0"/><linearGradient id="linearGradient3907" x1="277.627" x2="454.048" y1="637.059" y2="683.489" gradientTransform="matrix(0.5,0.8660254,-0.8660254,0.5,812.8952,-358.96163)" gradientUnits="userSpaceOnUse" xlink:href="#linearGradient4105-21"/><linearGradient id="linearGradient3900" x1="393.14" x2="444.453" y1="738.919" y2="904.919" gradientTransform="translate(1.8752155,-533.76621)" gradientUnits="userSpaceOnUse" xlink:href="#linearGradient4105-21"/><linearGradient id="linearGradient3897" x1="317.074" x2="343.89" y1="815.922" y2="1000.923" gradientTransform="translate(1.8752155,-533.76621)" gradientUnits="userSpaceOnUse" xlink:href="#linearGradient4123-0"/><linearGradient id="linearGradient3894" x1="186.765" x2="170.547" y1="873.544" y2="997.544" gradientTransform="translate(1.8752155,-533.76621)" gradientUnits="userSpaceOnUse" xlink:href="#linearGradient4133-9"/><linearGradient id="linearGradient3891" x1="108.797" x2="54.765" y1="721.607" y2="857.607" gradientTransform="translate(1.8752155,-533.76621)" gradientUnits="userSpaceOnUse" xlink:href="#linearGradient4143-5"/><linearGradient id="linearGradient3888" x1="179.047" x2="180.172" y1="580.06" y2="752.06" gradientTransform="translate(1.8752155,-533.76621)" gradientUnits="userSpaceOnUse" xlink:href="#linearGradient4153-7"/><linearGradient id="linearGradient3885" x1="372.859" x2="318.297" y1="593.388" y2="726.388" gradientTransform="translate(1.8752155,-533.76621)" gradientUnits="userSpaceOnUse" xlink:href="#linearGradient4163-1"/><filter id="filter4230" width="2.2" height="2.2" x="-.6" y="-.6"><feGaussianBlur id="feGaussianBlur4232" stdDeviation="12"/></filter><filter id="filter4226" width="1.6" height="1.6" x="-.3" y="-.3"><feGaussianBlur id="feGaussianBlur4228" stdDeviation="25.864"/></filter><radialGradient id="radialGradient4217" cx="385.346" cy="495.543" r="205.641" fx="385.346" fy="495.543" gradientTransform="matrix(-1.7174909,-0.22708156,0.17381835,-1.314644,961.04115,1140.4252)" gradientUnits="userSpaceOnUse" xlink:href="#linearGradient4209-7"/><filter id="filter4092"><feGaussianBlur id="feGaussianBlur4094" stdDeviation="4.72"/></filter><filter id="filter4056"><feGaussianBlur id="feGaussianBlur4058" stdDeviation="4.766"/></filter><filter id="filter4032"><feGaussianBlur id="feGaussianBlur4034" stdDeviation="5.065"/></filter><filter id="filter3992"><feGaussianBlur id="feGaussianBlur3994" stdDeviation="4.717"/></filter><filter id="filter3968"><feGaussianBlur id="feGaussianBlur3970" stdDeviation="4.612"/></filter><filter id="filter3936"><feGaussianBlur id="feGaussianBlur3938" stdDeviation="4.822"/></filter><filter id="filter3902"><feGaussianBlur id="feGaussianBlur3904" stdDeviation="9"/></filter><filter id="filter4107" color-interpolation-filters="sRGB"><feGaussianBlur id="feGaussianBlur4109" stdDeviation="9"/></filter><filter id="filter3873" color-interpolation-filters="sRGB"><feGaussianBlur id="feGaussianBlur3875" stdDeviation="11.392"/></filter><linearGradient id="linearGradient4105-21"><stop id="stop4107-2" offset="0" stop-color="#f7f10e" stop-opacity="1"/><stop id="stop4109-0" offset="1" stop-color="#c58907" stop-opacity="1"/></linearGradient><linearGradient id="linearGradient4123-0"><stop id="stop4125-1" offset="0" stop-color="#17b414" stop-opacity="1"/><stop id="stop4127-96" offset="1" stop-color="#176314" stop-opacity="1"/></linearGradient><linearGradient id="linearGradient4133-9"><stop id="stop4135-0" offset="0" stop-color="#1476e6" stop-opacity="1"/><stop id="stop4137-2" offset="1" stop-color="#143e9a" stop-opacity="1"/></linearGradient><linearGradient id="linearGradient4143-5"><stop id="stop4145-3" offset="0" stop-color="#d000d0" stop-opacity="1"/><stop id="stop4147-4" offset="1" stop-color="#760076" stop-opacity="1"/></linearGradient><linearGradient id="linearGradient4153-7"><stop id="stop4155-8" offset="0" stop-color="#d70016" stop-opacity="1"/><stop id="stop4157-2" offset="1" stop-color="#8d0016" stop-opacity="1"/></linearGradient><linearGradient id="linearGradient4163-1"><stop id="stop4165-9" offset="0" stop-color="#ff7004" stop-opacity="1"/><stop id="stop4167-9" offset="1" stop-color="#ba4704" stop-opacity="1"/></linearGradient><linearGradient id="linearGradient4209-7"><stop id="stop4211-0" offset="0" stop-color="#fff" stop-opacity="1"/><stop id="stop4213-8" offset="1" stop-color="#fff" stop-opacity="0"/></linearGradient><linearGradient id="linearGradient4206-9"><stop id="stop4208-3" offset="0" stop-color="#fff" stop-opacity="1"/><stop id="stop4210-5" offset="1" stop-color="#b0b0b0" stop-opacity="1"/></linearGradient><linearGradient id="linearGradient7427" x1="372.859" x2="318.297" y1="593.388" y2="726.388" gradientTransform="translate(1.8752155,-533.76621)" gradientUnits="userSpaceOnUse" xlink:href="#linearGradient4163-1"/><filter id="filter1131" width="1.013" height="4.171" x="-.006" y="-1.586" color-interpolation-filters="sRGB"><feGaussianBlur id="feGaussianBlur1133" stdDeviation="1.888"/></filter></defs><metadata id="metadata7"/><g id="layer1" transform="translate(0,-985.93218)"><path id="rect2816-6" fill="#000" fill-opacity=".692" fill-rule="nonzero" stroke="none" d="m -1.4285715,963.79075 709.9999415,0 0,67.14285 -709.9999415,0 0,-67.14285 z" clip-path="url(#clipPath4207-9)" transform="matrix(1,0,0,0.61290369,0.72671116,420.91885)"/><path id="rect2816" fill="#000" fill-opacity=".577" fill-rule="nonzero" stroke="none" d="m -1.4285715,963.79075 709.9999415,0 0,67.14285 -709.9999415,0 0,-67.14285 z" clip-path="url(#clipPath4207)" transform="matrix(1,0,0,0.39785018,0.72671116,602.20695)"/><rect id="rect6046" width="712.857" height="2.857" x="-1.429" y="25" fill="#ffffc5" fill-opacity=".692" fill-rule="nonzero" stroke="none" filter="url(#filter1131)" opacity=".734" transform="matrix(1,0,0,0.43834245,0.01245107,999.70941)"/><text stroke-width=".5" style="line-height:0%;-inkscape-font-specification:'AlMateen Bold';text-align:start" id="text3685" x="76.441" y="1009.651" fill="#fff" fill-opacity="1" stroke="#000" stroke-dasharray="none" stroke-linecap="round" stroke-linejoin="round" stroke-miterlimit="4" stroke-opacity="1" font-family="AlMateen" font-stretch="normal" font-style="normal" font-variant="normal" font-weight="bold" opacity=".734" text-anchor="start" writing-mode="lr-tb" xml:space="preserve"><tspan id="tspan3689" x="76.441" y="1025.901" fill="#fff" fill-opacity="1" stroke="#000" stroke-dasharray="none" stroke-linecap="round" stroke-linejoin="round" stroke-miterlimit="4" stroke-opacity="1" stroke-width=".5" font-family="AlMateen" font-size="13" font-stretch="normal" font-style="normal" font-variant="normal" font-weight="bold" text-anchor="start" writing-mode="lr-tb" style="line-height:125%;-inkscape-font-specification:'AlMateen Bold';text-align:start">Camera: $(EXIF.MAKER) - $(EXIF.MODEL) $(EXIF.LENS)</tspan></text><text stroke-opacity="1" style="line-height:0%;-inkscape-font-specification:'FreeSans Bold';text-align:end" id="text4340" x="698.727" y="1046.223" fill="#fff" fill-opacity="1" stroke="#000" stroke-dasharray="none" stroke-linecap="round" stroke-linejoin="round" stroke-miterlimit="4" stroke-width=".4" font-family="FreeSans" font-stretch="normal" font-style="normal" font-variant="normal" font-weight="bold" text-anchor="end" writing-mode="lr-tb" xml:space="preserve"><tspan id="tspan4394" x="698.727" y="1046.223" fill="#fff" fill-opacity="1" stroke="#000" stroke-dasharray="none" stroke-linecap="round" stroke-linejoin="round" stroke-miterlimit="4" stroke-opacity="1" stroke-width=".4" font-family="FreeSans" font-size="10" font-stretch="normal" font-style="normal" font-variant="normal" font-weight="bold" text-anchor="end" writing-mode="lr-tb" style="line-height:125%;-inkscape-font-specification:'FreeSans Bold';text-align:end">$(DARKTABLE.NAME) v$(DARKTABLE.VERSION)</tspan></text><text stroke-opacity="1" style="line-height:0%;-inkscape-font-specification:'FreeSans Bold';text-align:start" id="text3742-5" x="76.626" y="1003.718" fill="#fff" fill-opacity=".925" stroke="#000" stroke-dasharray="none" stroke-linecap="round" stroke-linejoin="round" stroke-miterlimit="4" stroke-width=".5" font-family="FreeSans" font-stretch="normal" font-style="normal" font-variant="normal" font-weight="bold" text-anchor="start" writing-mode="lr-tb" xml:space="preserve"><tspan id="tspan3744-3" x="76.626" y="1003.718" font-size="18" style="line-height:1.25">$(IMAGE.EXIF)</tspan></text><text stroke-width=".5" style="line-height:0%;-inkscape-font-specification:'AlMateen Bold';text-align:start" id="text3685-4" x="77.264" y="1022.712" fill="#fff" fill-opacity="1" stroke="#000" stroke-dasharray="none" stroke-linecap="round" stroke-linejoin="round" stroke-miterlimit="4" stroke-opacity="1" font-family="AlMateen" font-stretch="normal" font-style="normal" font-variant="normal" font-weight="bold" opacity=".734" text-anchor="start" writing-mode="lr-tb" xml:space="preserve"><tspan id="tspan3689-7" x="77.264" y="1038.962" fill="#fff" fill-opacity="1" stroke="#000" stroke-dasharray="none" stroke-linecap="round" stroke-linejoin="round" stroke-miterlimit="4" stroke-opacity="1" stroke-width=".5" font-family="AlMateen" font-size="13" font-stretch="normal" font-style="normal" font-variant="normal" font-weight="bold" text-anchor="start" writing-mode="lr-tb" style="line-height:125%;-inkscape-font-specification:'AlMateen Bold';text-align:start">Timestamp: $(EXIF.DATE)</tspan></text><g id="g7363" display="inline" transform="matrix(0.11947261,0,0,0.11947261,5.8411337,989.05112)"><g id="layer3" display="inline"><path id="path3947" fill="#1a1a1a" fill-opacity="1" stroke="none" d="M 510,287 A 225,225 0 0 1 288.48211,511.97305 225,225 0 0 1 60.107778,293.96338 225,225 0 0 1 274.55701,62.242477 225,225 0 0 1 509.56899,273.07991" filter="url(#filter4107)" opacity=".95" transform="matrix(0.95555556,0,0,0.95555556,-17.333333,-17.24444)"/><path id="path3892" fill="#1a1a1a" fill-opacity="1" stroke="none" d="M 510,287 A 225,225 0 0 1 288.48211,511.97305 225,225 0 0 1 60.107778,293.96338 225,225 0 0 1 274.55701,62.242477 225,225 0 0 1 509.56899,273.07991" display="inline" filter="url(#filter3902)" opacity=".95" transform="matrix(0.95555556,0,0,0.95555556,-17.333333,-17.24444)"/><path id="path3021" fill="#1a1a1a" fill-opacity="1" stroke="none" d="M 510,287 A 225,225 0 0 1 288.48211,511.97305 225,225 0 0 1 60.107778,293.96338 225,225 0 0 1 274.55701,62.242477 225,225 0 0 1 509.56899,273.07991" display="inline" opacity=".95" transform="matrix(0.95555556,0,0,0.95555556,-17.333333,-17.24444)"/></g><g id="layer7" display="none"><path id="path4203" fill="url(#radialGradient4217)" fill-opacity="1" stroke="none" d="M 255,42 C 136.25878,42 40,138.25878 40,257 C 40,282.08697 44.289884,306.17838 52.1875,328.5625 C 122.3704,318.91834 200.68367,333.17332 256,256 C 303.72594,189.41624 387.01333,177.08933 451.28125,169.1875 C 417.58022,93.90764 342.0506,42 255,42 z" display="inline" opacity=".589"/></g><g id="layer1-1" display="none" transform="translate(0,-540.36218)"><g id="g3737" transform="translate(-709.12708,129.29952)"><path id="path3735" fill="#000" fill-opacity="1" stroke="none" d="M 963.22148,446.72694 C 893.36848,446.72694 830.74358,477.5578 788.15898,526.35194 L 896.47148,654.03944 L 969.28398,446.82069 C 967.26798,446.76899 965.24988,446.72699 963.22148,446.72699 z" filter="url(#filter3873)" opacity=".7"/><path id="path3733" fill="#000" fill-opacity="1" stroke="none" d="M 1006.4402,450.75819 L 950.97148,608.66444 L 1169.409,571.91444 C 1137.0546,509.77965 1077.4502,464.12102 1006.4402,450.75819 z" filter="url(#filter3873)" opacity=".7"/><path id="path3731-1" fill="#000" fill-opacity="1" stroke="none" d="M 765.94018,548.35194 C 743.74302,583.96777 730.90894,626.01267 730.90894,671.07069 C 730.90894,696.3625 734.96952,720.71415 742.44019,743.50819 L 907.87768,715.69569 L 765.94018,548.35194 z" filter="url(#filter3873)" opacity=".7"/><path id="path3729" fill="#000" fill-opacity="1" stroke="none" d="M 1175.9402,606.35194 L 1011.2527,634.07069 L 1152.3152,802.13319 C 1174.65,766.444 1187.5652,724.27453 1187.5652,679.07069 C 1187.5652,653.66802 1183.4756,629.2322 1175.9402,606.35194 z" filter="url(#filter3873)" opacity=".7"/><path id="path3727" fill="#000" fill-opacity="1" stroke="none" d="M 1021.659,693.03944 L 1021.409,693.72694 L 1021.8777,693.91444 L 1007.9715,730.53944 L 1008.2527,732.35194 L 1007.2215,732.53944 L 943.19018,901.102 C 947.17918,901.3057 951.18178,901.4145 955.22148,901.4145 C 1024.9087,901.4145 1087.4158,870.72634 1130.0027,822.13319 L 1021.659,693.03944 z" filter="url(#filter3873)" opacity=".7"/><path id="path3714-9" fill="#000" fill-opacity="1" stroke="none" d="M 971.65898,739.50819 L 754.87768,775.94569 C 786.30178,836.51368 843.61568,881.4911 912.15898,896.227 L 971.65898,739.50819 z" filter="url(#filter3873)" opacity=".7"/></g></g><g id="layer9" display="inline"><path id="path3951" fill="#000" fill-opacity="1" fill-rule="nonzero" stroke="none" d="M 303.20313,32.6687 L 247.73438,190.57495 L 466.17188,153.82495 C 433.81752,91.69016 374.21313,46.03153 303.20313,32.6687 z" display="inline" filter="url(#filter3999)"/><path id="path3953" fill="#000" fill-opacity="1" fill-rule="nonzero" stroke="none" d="M 473.01214,185.21346 L 308.52694,216.12924 L 449.57212,386.92666 C 487.20525,327.83957 496.94459,253.39134 473.01214,185.21346 z" display="inline" filter="url(#filter4245)"/><path id="path3955" fill="#000" fill-opacity="1" fill-rule="nonzero" stroke="none" d="M 425.80901,408.54475 L 316.79256,281.55428 L 239.40024,489.1017 C 309.38773,492.1494 378.73146,463.3598 425.80901,408.54475 z" display="inline" filter="url(#filter4007)"/><path id="path3957" fill="#000" fill-opacity="1" fill-rule="nonzero" stroke="none" d="M 208.79687,479.33129 L 264.26562,321.42504 L 45.828123,358.17503 C 78.182482,420.30983 137.78687,465.96846 208.79687,479.33129 z" display="inline" filter="url(#filter4011)"/><path id="path3959" fill="#000" fill-opacity="1" fill-rule="nonzero" stroke="none" d="M 38.987861,326.78653 L 203.47306,295.87075 L 62.427886,125.07333 C 24.794751,184.16042 15.055411,258.60865 38.987861,326.78653 z" display="inline" filter="url(#filter4015)"/><path id="path3961" fill="#000" fill-opacity="1" fill-rule="nonzero" stroke="none" d="M 86.190993,103.45524 L 195.20744,230.44571 L 272.59976,22.898294 C 202.61227,19.850588 133.26854,48.640187 86.190993,103.45524 z" display="inline" filter="url(#filter4019)"/><path id="path4249" fill="#000" fill-opacity="1" stroke="none" d="m 288,256 a 32,32 0 0 1 -32,32 32,32 0 0 1 -32,-32 32,32 0 0 1 32,-32 32,32 0 0 1 32,32 z" display="inline" filter="url(#filter4257)"/></g><g id="layer5" display="none"><path id="path4103" fill="url(#linearGradient3900)" fill-opacity="1" fill-rule="nonzero" stroke="none" d="M 472.70313,188.26245 L 308.01563,215.9812 L 449.07813,384.0437 C 471.41293,348.35451 484.32813,306.18504 484.32813,260.9812 C 484.32813,235.57853 480.23853,211.14271 472.70313,188.26245 z" display="inline" filter="url(#filter3915)"/><path id="path4121" fill="url(#linearGradient3897)" fill-opacity="1" fill-rule="nonzero" stroke="none" d="M 318.42188,274.94995 L 318.17188,275.63745 L 318.64063,275.82495 L 304.73438,312.44995 C 298.45503,329.84948 319.49362,274.61575 318.98438,275.94995 L 239.95313,483.01239 C 239.75845,483.52249 247.94471,483.32489 251.98438,483.32489 C 321.67158,483.32489 384.17873,452.63685 426.76563,404.0437 z" display="inline" filter="url(#filter3927)"/><path id="path4131" fill="url(#linearGradient3894)" fill-opacity="1" fill-rule="nonzero" stroke="none" d="M 268.42188,321.4187 L 51.640625,357.8562 C 83.064729,418.42419 140.37857,463.40157 208.92188,478.13739 L 268.42188,321.4187 z" display="inline" filter="url(#filter3865)"/><path id="path4141" fill="url(#linearGradient3891)" fill-opacity="1" fill-rule="nonzero" stroke="none" d="M 62.703125,130.26245 C 40.505952,165.87828 27.671874,207.92318 27.671874,252.9812 C 27.671874,278.27301 31.732451,302.62466 39.203125,325.4187 L 204.64063,297.6062 L 62.703125,130.26245 z" display="inline" filter="url(#filter3878)"/><path id="path4151" fill="url(#linearGradient3888)" fill-opacity="1" fill-rule="nonzero" stroke="none" d="M 259.98438,28.63745 C 190.13137,28.63745 127.50653,59.46831 84.921879,108.26245 L 193.23438,235.94995 L 266.04688,28.7312 C 264.03089,28.6795 262.01285,28.6375 259.98438,28.6375 z" display="inline" filter="url(#filter3891)"/><path id="path4161" fill="url(#linearGradient7427)" fill-opacity="1" fill-rule="nonzero" stroke="none" d="M 303.20313,32.6687 L 247.73438,190.57495 L 466.17188,153.82495 C 433.81752,91.69016 374.21313,46.03153 303.20313,32.6687 z" display="inline" filter="url(#filter3903)"/><path id="path3927" fill="url(#linearGradient3939)" fill-opacity="1" fill-rule="nonzero" stroke="none" d="M 989.03126,167.28125 L 824.34376,195 L 965.40626,363.0625 C 987.74106,327.37331 1000.6563,285.20384 1000.6563,240 C 1000.6563,214.59733 996.56666,190.16151 989.03126,167.28125 z" display="inline" filter="url(#filter3915)"/><path id="path3929" fill="url(#linearGradient3941)" fill-opacity="1" fill-rule="nonzero" stroke="none" d="M 834.75001,253.96875 L 834.50001,254.65625 L 834.96876,254.84375 L 821.06251,291.46875 C 814.78316,308.86828 835.82175,253.63455 835.31251,254.96875 L 756.28126,462.03119 C 756.08658,462.54129 764.27284,462.34369 768.31251,462.34369 C 837.99971,462.34369 900.50686,431.65565 943.09376,383.0625 z" display="inline" filter="url(#filter3927)"/><path id="path3931" fill="url(#linearGradient3943)" fill-opacity="1" fill-rule="nonzero" stroke="none" d="M 784.75001,300.4375 L 567.96876,336.875 C 599.39286,397.44299 656.7067,442.42037 725.25001,457.15619 L 784.75001,300.4375 z" display="inline" filter="url(#filter3865)"/><path id="path3933" fill="url(#linearGradient3945)" fill-opacity="1" fill-rule="nonzero" stroke="none" d="M 579.03126,109.28125 C 556.83408,144.89708 544,186.94198 544,232 C 544,257.29181 548.06058,281.64346 555.53126,304.4375 L 720.96876,276.625 L 579.03126,109.28125 z" display="inline" filter="url(#filter3878)"/><path id="path3935" fill="url(#linearGradient3947)" fill-opacity="1" fill-rule="nonzero" stroke="none" d="M 776.31251,7.65625 C 706.4595,7.65625 643.83466,38.48711 601.25001,87.28125 L 709.56251,214.96875 L 782.37501,7.75 C 780.35902,7.6983 778.34098,7.6563 776.31251,7.6563 z" display="inline" filter="url(#filter3891)"/><path id="path3937" fill="url(#linearGradient3949)" fill-opacity="1" fill-rule="nonzero" stroke="none" d="M 819.53126,11.6875 L 764.06251,169.59375 L 982.50006,132.84375 C 950.14566,70.70896 890.54126,25.05033 819.53126,11.6875 z" display="inline" filter="url(#filter3903)"/></g><g id="layer2" display="inline"><path id="path3902" fill="url(#linearGradient3885)" fill-opacity="1" fill-rule="nonzero" stroke="none" d="M 303.20313,32.6687 L 247.73438,190.57495 L 466.17188,153.82495 C 433.81752,91.69016 374.21313,46.03153 303.20313,32.6687 z" display="inline"/><path id="path3905" fill="url(#linearGradient3907)" fill-opacity="1" fill-rule="nonzero" stroke="none" d="M 473.01214,185.21346 L 308.52694,216.12924 L 449.57212,386.92666 C 487.20525,327.83957 496.94459,253.39134 473.01214,185.21346 z" display="inline"/><path id="path3909" fill="url(#linearGradient3911)" fill-opacity="1" fill-rule="nonzero" stroke="none" d="M 425.80901,408.54475 L 316.79256,281.55428 L 239.40024,489.1017 C 309.38773,492.1494 378.73146,463.3598 425.80901,408.54475 z" display="inline"/><path id="path3913" fill="url(#linearGradient3915)" fill-opacity="1" fill-rule="nonzero" stroke="none" d="M 208.79687,479.33129 L 264.26562,321.42504 L 45.828123,358.17503 C 78.182482,420.30983 137.78687,465.96846 208.79687,479.33129 z" display="inline"/><path id="path3917" fill="url(#linearGradient3919)" fill-opacity="1" fill-rule="nonzero" stroke="none" d="M 38.987861,326.78653 L 203.47306,295.87075 L 62.427886,125.07333 C 24.794751,184.16042 15.055411,258.60865 38.987861,326.78653 z" display="inline"/><path id="path3921" fill="url(#linearGradient3923)" fill-opacity="1" fill-rule="nonzero" stroke="none" d="M 86.190993,103.45524 L 195.20744,230.44571 L 272.59976,22.898294 C 202.61227,19.850588 133.26854,48.640187 86.190993,103.45524 z" display="inline"/><path id="path4204" fill="url(#linearGradient4212)" fill-opacity="1" stroke="none" d="m 288,256 a 32,32 0 0 1 -32,32 32,32 0 0 1 -32,-32 32,32 0 0 1 32,-32 32,32 0 0 1 32,32 z"/></g><g id="layer4" display="none" opacity=".5"><path id="path3804" fill="#fff" fill-opacity="1" fill-rule="nonzero" stroke="none" d="M 241.71875,576.96875 C 189.1975,580.72586 138.18803,604.58093 101.71875,642.4375 C 129.91667,675.67708 158.11458,708.91667 186.3125,742.15625 C 205.3501,686.97414 225.58033,632.22736 243.875,576.84375 C 243.15625,576.88545 242.4375,576.92705 241.71875,576.96875 z" filter="url(#filter3968)" opacity=".15" transform="translate(0,-540.36218)"/><path id="path3820" fill="#fff" fill-opacity="1" fill-rule="nonzero" stroke="none" d="M 260.84375,711.6875 C 323.42534,701.10489 386.12162,690.78497 448.625,680 C 417.94636,628.8856 365.85318,590.96186 307.75,578.03125 C 292.11458,622.58333 276.47917,667.13542 260.84375,711.6875 z" filter="url(#filter3936)" opacity=".15" transform="translate(0,-540.36218)"/><path id="path3832" fill="#fff" fill-opacity="1" fill-rule="nonzero" stroke="none" d="M 325.03125,756.6875 C 365.27285,804.60778 405.27512,852.73035 445.84375,900.375 C 473.39249,849.92194 479.76304,788.4253 463.84375,733.28125 C 417.57292,741.08333 371.30208,748.88542 325.03125,756.6875 z" filter="url(#filter3992)" opacity=".25" transform="translate(0,-540.36218)"/><path id="path3844" fill="#fff" fill-opacity="1" fill-rule="nonzero" stroke="none" d="M 319.75,829.90625 C 297.84333,889.20337 274.88857,948.12052 252.4375,1007.2188 C 312.06504,1006.6464 371.03835,981.00718 411.59375,937.5 C 381.13542,901.22917 350.67708,864.95833 320.21875,828.6875 L 319.85977,829.62085 L 319.75,829.90625 z" filter="url(#filter4032)" opacity=".15" transform="translate(0,-540.36218)"/><path id="path3856" fill="#fff" fill-opacity="1" fill-rule="nonzero" stroke="none" d="M 65.375,899.125 C 95.000481,948.75079 144.82541,985.93604 200.75,1000.2188 C 217.46875,956.14583 234.1875,912.07292 250.90625,868 C 189.0625,878.375 127.21875,888.75 65.375,899.125 z" filter="url(#filter4056)" opacity=".15" transform="translate(0,-540.36218)"/><path id="path3880" fill="#fff" fill-opacity="1" fill-rule="nonzero" stroke="none" d="M 61.71875,682.40625 C 34.783622,732.5226 28.680134,793.27881 44.28125,847.90625 C 90.802083,840.10417 137.32292,832.30208 183.84375,824.5 C 143.33333,776.76042 102.82292,729.02083 62.3125,681.28125 L 61.845741,682.16563 L 61.71875,682.40625 z" filter="url(#filter4092)" opacity=".25" transform="translate(0,-540.36218)"/></g><g id="layer6" display="inline" opacity=".5"><path id="path4023" fill="#fff" fill-opacity="1" fill-rule="nonzero" stroke="none" d="M 262.75,177.90625 C 325.27323,167.17304 387.94451,157.30257 450.375,146.03125 C 419.71999,95.155323 367.86385,57.206218 309.65625,44.25 C 294.02083,88.802083 278.38542,133.35417 262.75,177.90625 z" display="inline" filter="url(#filter4312)" opacity=".15"/><path id="path4025" fill="#fff" fill-opacity="1" fill-rule="nonzero" stroke="none" d="M 327.03125,222.84375 C 367.55454,271.63185 407.44559,320.94562 448.4375,369.34375 C 477.15835,317.41975 484.03077,253.43374 466.21875,196.625 C 419.82292,205.36458 373.42708,214.10417 327.03125,222.84375 z" display="inline" filter="url(#filter4320)" opacity=".25"/><path id="path4027" fill="#fff" fill-opacity="1" fill-rule="nonzero" stroke="none" d="M 253.6875,479.3125 C 313.47317,478.26179 372.11777,452.30728 412.4375,408.4375 C 381.69792,372.60417 350.95833,336.77083 320.21875,300.9375 C 298.04167,360.39583 275.86458,419.85417 253.6875,479.3125 z" display="inline" filter="url(#filter4336)" opacity=".15"/><path id="path4029" fill="#fff" fill-opacity="1" fill-rule="nonzero" stroke="none" d="M 61.4375,365.6875 C 92.010813,416.62413 143.95272,454.72618 202.34375,467.75 C 217.97917,423.19792 233.61458,378.64583 249.25,334.09375 C 186.64583,344.625 124.04167,355.15625 61.4375,365.6875 z" display="inline" filter="url(#filter4344)" opacity=".15"/><path id="path4031" fill="#fff" fill-opacity="1" fill-rule="nonzero" stroke="none" d="M 63.25,143.21875 C 34.736871,195.07118 28.061243,258.83927 45.78125,315.375 C 92.197917,306.63542 138.61458,297.89583 185.03125,289.15625 C 144.59375,240.21875 104.15625,191.28125 63.71875,142.34375 L 63.25,143.21875 z" display="inline" filter="url(#filter4308)" opacity=".25"/><path id="path4033" fill="#fff" fill-opacity="1" fill-rule="nonzero" stroke="none" d="M 257.71875,32.71875 C 198.3212,33.770981 139.78834,59.879739 99.53125,103.53125 C 130.28125,139.375 161.03125,175.21875 191.78125,211.0625 C 213.95833,151.60417 236.13542,92.145833 258.3125,32.6875 L 257.71875,32.71875 z" display="inline" filter="url(#filter4328)" opacity=".15"/><path id="path4214" fill="#fff" fill-opacity="1" stroke="none" d="M 254.78125,234.03125 C 236.90235,233.84478 226.54661,259.66017 240.21875,271.53125 C 250.58909,282.2016 271.62537,279.03777 276.4375,264.375 C 281.67905,251.77118 273.12369,235.33906 259.15625,234.21875 C 257.70519,234.01554 256.24562,233.93635 254.78125,234.03125 z" display="inline" filter="url(#filter4348)" opacity=".15"/></g><g id="layer8" display="none"><path id="path4222" fill="#fff" fill-opacity="1" stroke="none" d="M 359.45651,256 A 103.45651,103.45651 0 0 1 257.6011,359.44412 103.45651,103.45651 0 0 1 152.59304,259.20181 a 103.45651,103.45651 0 0 1 98.6052,-106.54683 103.45651,103.45651 0 0 1 108.06009,96.94447" filter="url(#filter4226)" opacity=".589"/><path id="path4220" fill="#fff" fill-opacity="1" stroke="none" d="m 280,256 a 24,24 0 0 1 -23.62858,23.99713 24,24 0 0 1 -24.35992,-23.25437 24,24 0 0 1 22.87458,-24.7169 24,24 0 0 1 25.06795,22.48933" filter="url(#filter4230)" opacity=".589"/><path id="path4234" fill="#fff" fill-opacity="1" stroke="none" d="m 280,256 a 24,24 0 0 1 -23.62858,23.99713 24,24 0 0 1 -24.35992,-23.25437 24,24 0 0 1 22.87458,-24.7169 24,24 0 0 1 25.06795,22.48933" filter="url(#filter4230)" opacity=".589"/></g></g></g></svg>