<svg xmlns="http://www.w3.org/2000/svg" xmlns:svg="http://www.w3.org/2000/svg" xmlns:xlink="http://www.w3.org/1999/xlink" id="svg2" width="904.179" height="904.179" version="1.1"><title id="title3163">Hasselblad Frame</title><defs id="defs4"><clipPath id="clipPath4207-9" clipPathUnits="userSpaceOnUse"><path id="path4209-4" fill="#000" fill-opacity=".214" fill-rule="nonzero" stroke="none" d="m -0.71425838,963.07651 709.99993838,0 0,67.14289 -709.99993838,0 0,-67.14289 z"/></clipPath><clipPath id="clipPath4207" clipPathUnits="userSpaceOnUse"><path id="path4209" fill="#000" fill-opacity=".214" fill-rule="nonzero" stroke="none" d="m -0.71425838,963.07651 709.99993838,0 0,67.14289 -709.99993838,0 0,-67.14289 z"/></clipPath><filter id="filter6056" width="1.012" height="4.006" x="-.006" y="-1.503" color-interpolation-filters="sRGB"><feGaussianBlur id="feGaussianBlur6058" stdDeviation="1.789"/></filter><filter id="filter3767" color-interpolation-filters="sRGB"><feGaussianBlur id="feGaussianBlur3769" stdDeviation="3.906"/></filter><linearGradient id="linearGradient3771"><stop id="stop3773" offset="0" stop-color="#fef6ba" stop-opacity="1"/><stop id="stop3775" offset="1" stop-color="#fefdcb" stop-opacity=".422"/></linearGradient><radialGradient id="radialGradient3777" cx="133.212" cy="122.27" r="126.861" fx="133.212" fy="122.27" gradientTransform="matrix(1,0,0,1.002803,419.36335,877.17546)" gradientUnits="userSpaceOnUse" xlink:href="#linearGradient3771"/><filter id="filter4270" color-interpolation-filters="sRGB"><feGaussianBlur id="feGaussianBlur4272" stdDeviation="1.239"/></filter><linearGradient id="linearGradient3743"><stop id="stop3745" offset="0" stop-color="#000" stop-opacity="1"/><stop id="stop3751" offset=".618" stop-color="#000" stop-opacity="1"/><stop id="stop3747" offset="1" stop-color="#232323" stop-opacity=".948"/></linearGradient><radialGradient id="radialGradient3749" cx="383.359" cy="532.125" r="45.953" fx="383.359" fy="532.125" gradientTransform="matrix(1,0,0,1.00034,168.45701,468.20662)" gradientUnits="userSpaceOnUse" xlink:href="#linearGradient3743"/><filter id="filter4266" color-interpolation-filters="sRGB"><feGaussianBlur id="feGaussianBlur4268" stdDeviation=".867"/></filter><linearGradient id="linearGradient3762"><stop id="stop3764" offset="0" stop-color="#404040" stop-opacity="1"/><stop id="stop3766" offset="1" stop-color="#404040" stop-opacity="0"/></linearGradient><linearGradient id="linearGradient3768" x1="416.929" x2="349.777" y1="565.709" y2="498.558" gradientUnits="userSpaceOnUse" xlink:href="#linearGradient3762"/><filter id="filter4262" color-interpolation-filters="sRGB"><feGaussianBlur id="feGaussianBlur4264" stdDeviation=".807"/></filter><linearGradient id="linearGradient3762-2"><stop id="stop3764-4" offset="0" stop-color="#404040" stop-opacity="1"/><stop id="stop3766-0" offset="1" stop-color="#404040" stop-opacity="0"/></linearGradient><linearGradient id="linearGradient3787" x1="416.929" x2="349.777" y1="565.709" y2="498.558" gradientUnits="userSpaceOnUse" xlink:href="#linearGradient3762-2"/><filter id="filter4258" color-interpolation-filters="sRGB"><feGaussianBlur id="feGaussianBlur4260" stdDeviation=".728"/></filter><linearGradient id="linearGradient3762-2-4"><stop id="stop3764-4-9" offset="0" stop-color="#404040" stop-opacity="1"/><stop id="stop3766-0-1" offset="1" stop-color="#404040" stop-opacity="0"/></linearGradient><linearGradient id="linearGradient3865" x1="416.929" x2="349.777" y1="565.709" y2="498.558" gradientUnits="userSpaceOnUse" xlink:href="#linearGradient3762-2-4"/><linearGradient id="linearGradient4342"><stop id="stop4344" offset="0" stop-color="#a7a7a7" stop-opacity="1"/><stop id="stop4346" offset="1" stop-color="#a7a7a7" stop-opacity="0"/></linearGradient><linearGradient id="linearGradient4348" x1="465.675" x2="301.031" y1="614.456" y2="449.811" gradientUnits="userSpaceOnUse" xlink:href="#linearGradient4342"/><filter id="filter4392" color-interpolation-filters="sRGB"><feGaussianBlur id="feGaussianBlur4394" stdDeviation=".679"/></filter><linearGradient id="linearGradient4342-8"><stop id="stop4344-9" offset="0" stop-color="#a7a7a7" stop-opacity="1"/><stop id="stop4415" offset=".5" stop-color="#a7a7a7" stop-opacity="0"/><stop id="stop4346-8" offset="1" stop-color="#a7a7a7" stop-opacity="1"/></linearGradient><linearGradient id="linearGradient4367" x1="465.675" x2="301.031" y1="614.456" y2="449.811" gradientUnits="userSpaceOnUse" xlink:href="#linearGradient4342-8"/><linearGradient id="linearGradient4427"><stop id="stop4429" offset="0" stop-color="#bbb" stop-opacity="1"/><stop id="stop4431" offset="1" stop-color="#020202" stop-opacity="1"/></linearGradient><linearGradient id="linearGradient4425" x1="271.339" x2="474.653" y1="420.119" y2="619.276" gradientUnits="userSpaceOnUse" xlink:href="#linearGradient4427"/><filter id="filter4471" color-interpolation-filters="sRGB"><feGaussianBlur id="feGaussianBlur4473" stdDeviation="1.894"/></filter><linearGradient id="linearGradient4465"><stop id="stop4467" offset="0" stop-color="#888" stop-opacity="1"/><stop id="stop4469" offset="1" stop-color="#e0e0e0" stop-opacity="0"/></linearGradient><linearGradient id="linearGradient4449" x1="460.614" x2="306.091" y1="609.395" y2="454.872" gradientUnits="userSpaceOnUse" xlink:href="#linearGradient4465"/><filter id="filter4481" color-interpolation-filters="sRGB"><feGaussianBlur id="feGaussianBlur4483" stdDeviation="1.4"/></filter><linearGradient id="linearGradient4342-9"><stop id="stop4344-7" offset="0" stop-color="#a7a7a7" stop-opacity="1"/><stop id="stop4346-0" offset="1" stop-color="#a7a7a7" stop-opacity="0"/></linearGradient><linearGradient id="linearGradient4499" x1="472.061" x2="305.385" y1="620.841" y2="443.426" gradientUnits="userSpaceOnUse" xlink:href="#linearGradient4342-9"/><filter id="filter4513" width="1.398" height="1.398" x="-.199" y="-.199" color-interpolation-filters="sRGB"><feGaussianBlur id="feGaussianBlur4515" stdDeviation="13.413"/></filter><linearGradient id="linearGradient4505"><stop id="stop4507" offset="0" stop-color="#787878" stop-opacity=".603"/><stop id="stop4509" offset="1" stop-color="#787878" stop-opacity="0"/></linearGradient><linearGradient id="linearGradient4511" x1="489.822" x2="292.541" y1="639.613" y2="441.321" gradientUnits="userSpaceOnUse" xlink:href="#linearGradient4505"/><filter id="filter4543" color-interpolation-filters="sRGB"><feGaussianBlur id="feGaussianBlur4545" stdDeviation=".455"/></filter><linearGradient id="linearGradient4547"><stop id="stop4549" offset="0" stop-color="#787878" stop-opacity="1"/><stop id="stop4551" offset="1" stop-color="#787878" stop-opacity="0"/></linearGradient><linearGradient id="linearGradient4553" x1="290.766" x2="475.94" y1="439.547" y2="624.721" gradientUnits="userSpaceOnUse" xlink:href="#linearGradient4547"/><filter id="filter4722" color-interpolation-filters="sRGB"><feGaussianBlur id="feGaussianBlur4724" stdDeviation="1.361"/></filter><linearGradient id="linearGradient4706"><stop id="stop4708" offset="0" stop-color="#000" stop-opacity="1"/><stop id="stop4710" offset="1" stop-color="#7b7b7b" stop-opacity=".966"/></linearGradient><linearGradient id="linearGradient4712" x1="311.637" x2="492.444" y1="445.26" y2="642.74" gradientUnits="userSpaceOnUse" xlink:href="#linearGradient4706"/><filter id="filter4042" color-interpolation-filters="sRGB"><feGaussianBlur id="feGaussianBlur4044" stdDeviation=".505"/></filter><linearGradient id="linearGradient4591"><stop id="stop4593" offset="0" stop-color="#24357f" stop-opacity="0"/><stop id="stop4595" offset="1" stop-color="#2f67a4" stop-opacity=".243"/></linearGradient><radialGradient id="radialGradient4597" cx="415.95" cy="462.612" r="102.352" fx="415.95" fy="462.612" gradientTransform="matrix(0.85344755,1.186377,-0.81177563,0.58396945,428.8988,-207.91964)" gradientUnits="userSpaceOnUse" xlink:href="#linearGradient4591"/><filter id="filter4619" color-interpolation-filters="sRGB"><feGaussianBlur id="feGaussianBlur4621" stdDeviation="2.836"/></filter><filter id="filter4581" width="1.418" height="1.483" x="-.209" y="-.241" color-interpolation-filters="sRGB"><feGaussianBlur id="feGaussianBlur4583" stdDeviation="6.119"/></filter><filter id="filter4014" color-interpolation-filters="sRGB"><feGaussianBlur id="feGaussianBlur4016" stdDeviation=".599"/></filter><linearGradient id="linearGradient3733"><stop id="stop3735" offset="0" stop-color="#74b2f4" stop-opacity=".662"/><stop id="stop3737" offset="1" stop-color="#9fcee8" stop-opacity="0"/></linearGradient><linearGradient id="linearGradient4599" x1="434.866" x2="331.84" y1="583.646" y2="480.621" gradientUnits="userSpaceOnUse" xlink:href="#linearGradient3733"/><filter id="filter4298" color-interpolation-filters="sRGB"><feGaussianBlur id="feGaussianBlur4300" stdDeviation="2.19"/></filter><linearGradient id="linearGradient4284"><stop id="stop4286" offset="0" stop-color="#a6cffc" stop-opacity=".569"/><stop id="stop4288" offset="1" stop-color="#9fcee8" stop-opacity="0"/></linearGradient><linearGradient id="linearGradient4601" x1="439.08" x2="399.684" y1="581.891" y2="554.206" gradientTransform="translate(168.45701,468.38755)" gradientUnits="userSpaceOnUse" xlink:href="#linearGradient4284"/><filter id="filter4042-1" color-interpolation-filters="sRGB"><feGaussianBlur id="feGaussianBlur4044-2" stdDeviation=".505"/></filter><linearGradient id="linearGradient4671"><stop id="stop4673" offset="0" stop-color="#fff" stop-opacity=".974"/><stop id="stop4675" offset="1" stop-color="#fff" stop-opacity="0"/></linearGradient><radialGradient id="radialGradient4669" cx="284.69" cy="533.443" r="102.227" fx="284.69" fy="533.443" gradientTransform="matrix(-0.90067491,0.8099908,-0.28888611,-0.32122892,735.2987,370.66741)" gradientUnits="userSpaceOnUse" xlink:href="#linearGradient4671"/><filter id="filter4687" width="1.72" height="1.72" x="-.36" y="-.36" color-interpolation-filters="sRGB"><feGaussianBlur id="feGaussianBlur4689" stdDeviation="6.419"/></filter><filter id="filter3802" color-interpolation-filters="sRGB"><feGaussianBlur id="feGaussianBlur3804" stdDeviation="3.659"/></filter><filter id="filter4107" color-interpolation-filters="sRGB"><feGaussianBlur id="feGaussianBlur4109" stdDeviation=".45"/></filter></defs><metadata id="metadata7"/><g id="layer1" transform="translate(4.1342606,-152.31498)"><path id="path3142" fill="#000" d="m -6.0364359,602.4041 0,-455.9921 455.9920559,0 455.99206,0 0,455.9921 0,455.9921 -455.99206,0 -455.9920559,0 z M 880.33791,1037.8458 c 0.88695,-0.4082 1.55457,-0.498 2.63541,-0.3546 1.70157,0.2257 2.65233,-1.0358 2.0247,-2.6866 -0.16392,-0.4312 -0.29802,-1.4405 -0.29802,-2.243 0,-0.9628 -0.17034,-1.6293 -0.50097,-1.9599 -1.05357,-1.0536 -3.12735,-3.9019 -3.26427,-4.4835 -0.19248,-0.8175 -0.63444,-3.0873 -1.17897,-6.0549 -0.59676,-3.2523 -0.93645,-12.2601 -0.89193,-23.65353 0.13518,-34.61094 0.50085,-75.95664 0.74685,-84.45003 0.16011,-5.5275 0.42276,-31.7175 0.58365,-58.2 0.16089,-26.4825 0.42783,-59.9625 0.59322,-74.4 0.16536,-14.4375 0.37155,-40.6275 0.45819,-58.2 0.0866,-17.5725 0.23037,-41.7375 0.31938,-53.7 0.59727,-80.27229 0.70173,-188.59729 0.38793,-402.30001 -0.0752,-51.20213 -0.0153,-64.80222 0.29871,-67.8 0.216,-2.0625 0.50052,-4.83 0.63228,-6.15 0.71772,-7.19138 1.78362,-11.00546 3.60504,-12.9 2.06478,-2.14763 2.11089,-2.30119 2.11089,-7.03028 0,-3.99453 -0.0315,-4.21972 -0.58944,-4.21972 -0.32421,0 -0.74007,0.28143 -0.92415,0.6254 -0.86454,1.6154 1.02474,1.55292 -45.43641,1.50278 -23.595,-0.0255 -53.7675,-0.12342 -67.05,-0.21767 -56.30103,-0.39954 -756.277918,-0.0421 -756.975,0.38655 -0.123751,0.0761 -0.225001,1.22377 -0.225001,2.5504 0,2.41205 0,2.41205 2.497757,4.8573 3.966923,3.88353 3.674519,0.28845 3.541735,43.54525 -0.06078,19.79999 -0.147239,36.87749 -0.192132,37.95 -0.04489,1.0725 -0.227973,14.91 -0.406843,30.75 -0.178871,15.83999 -0.407115,31.23 -0.507209,34.2 -0.100093,2.97 -0.229344,18.1575 -0.287225,33.75 -0.203039,54.69711 -0.734262,148.46769 -0.907554,160.19999 -0.626678,42.42756 -0.356016,39.30399 -3.704356,42.75 C 15.512417,561.88754 14.1,563.88392 14.1,564.6224 c 0,0.18063 1.336949,1.63119 2.970998,3.22353 2.932661,2.85774 2.974276,2.91813 3.225,4.67946 0.302912,2.12793 0.345031,56.42025 0.04673,60.23493 -0.233016,2.97984 -0.309481,3.13368 -3.006503,6.04941 -3.528397,3.8145 -3.528934,4.17459 -0.01123,7.52886 2.625,2.50305 2.625,2.50305 2.873397,5.28708 0.420482,4.71279 0.57866,82.34178 0.233682,114.68406 -0.377795,35.41884 -0.457908,67.38657 -0.410493,163.8 0.03896,79.21467 -0.117227,87.21657 -1.837102,94.12177 -0.389434,1.5635 -1.982151,4.1283 -2.563672,4.1283 -1.430135,0 -2.420726,2.189 -2.416218,5.3394 0.0025,1.7658 0.103777,3.3478 0.225,3.5155 0.359986,0.4981 503.649121,0.7939 622.420411,0.3658 83.24148,-0.3 116.45592,-0.2777 124.35,0.083 3.5475,0.1623 21.3675,0.3039 39.6,0.3147 18.2325,0.011 36.0525,0.1198 39.6,0.2423 13.69173,0.4728 39.61137,0.2352 40.93791,-0.3752 z" filter="url(#filter4107)" transform="matrix(1.0087895,0,0,1.0087894,-5.9552747,-3.294401)"/></g></svg>