<svg xmlns="http://www.w3.org/2000/svg" xmlns:svg="http://www.w3.org/2000/svg" xmlns:xlink="http://www.w3.org/1999/xlink" id="svg2" width="200" height="200" version="1.0"><defs id="defs4"><linearGradient id="linearGradient3615"><stop id="stop3617" offset="0" stop-color="#260879" stop-opacity=".686"/><stop id="stop3629" offset=".5" stop-color="#13610a" stop-opacity=".686"/><stop id="stop3627" offset="1" stop-color="#e50d0d" stop-opacity=".686"/></linearGradient><linearGradient id="linearGradient3623" x1="-102.5" x2="37.5" y1="115" y2="115" gradientUnits="userSpaceOnUse" spreadMethod="pad" xlink:href="#linearGradient3615"/></defs><metadata id="metadata7"/><g id="layer1"><path id="path2841" fill="url(#linearGradient3623)" fill-opacity="1" fill-rule="evenodd" stroke="none" d="m 37.5,115 a 70,70 0 1 1 -140,0 70,70 0 1 1 140,0 z" transform="translate(132.5,-15)"/><path id="path2385" fill="none" stroke="#cacac6" stroke-dasharray="none" stroke-linecap="round" stroke-linejoin="round" stroke-miterlimit="4" stroke-opacity="1" stroke-width="10" d="M 201.61044,43.092118 A 70,70 0 0 1 121.68566,152.56627" transform="translate(-47.5,12.5)"/><path id="path8857" fill="none" stroke="#cacac6" stroke-dasharray="none" stroke-linecap="round" stroke-linejoin="miter" stroke-miterlimit="4" stroke-opacity="1" stroke-width="10" d="m 25,160 c 35,0 45,0 75,-60 35,-70 75,-70 75,-70"/><path id="path8859" fill="none" stroke="#cacac6" stroke-dasharray="none" stroke-linecap="round" stroke-linejoin="round" stroke-miterlimit="4" stroke-opacity="1" stroke-width="10" d="M 94.273842,132.96401 A 70,70 0 0 1 176.25468,23.678623" transform="translate(-47.5,12.5)"/></g></svg>