<svg xmlns="http://www.w3.org/2000/svg" xmlns:svg="http://www.w3.org/2000/svg" id="svg2" width="200" height="200" version="1.0"><metadata id="metadata7"/><g id="layer1"><path id="path2385" fill="none" fill-rule="evenodd" stroke="#cacac6" stroke-dasharray="none" stroke-linecap="round" stroke-linejoin="round" stroke-miterlimit="4" stroke-opacity="1" stroke-width="10" d="M 217.5,87.5 A 70,70 0 1 1 77.5,87.5 A 70,70 0 1 1 217.5,87.5 z" transform="translate(-47.5,12.5)"/><g id="g3852" transform="translate(0,-5)"><path id="path2990" fill="none" stroke="#ccc" stroke-dasharray="none" stroke-linecap="round" stroke-linejoin="round" stroke-miterlimit="4" stroke-opacity="1" stroke-width="10" d="m 100,150 c 0,-90 0,-90 0,-90"/><path id="path2990-0" fill="none" stroke="#ccc" stroke-dasharray="none" stroke-linecap="round" stroke-linejoin="round" stroke-miterlimit="4" stroke-opacity="1" stroke-width="10" d="m 100,150 c 40,-40 40,-40 40,-40"/><path id="path2990-0-8" fill="none" stroke="#ccc" stroke-dasharray="none" stroke-linecap="round" stroke-linejoin="round" stroke-miterlimit="4" stroke-opacity="1" stroke-width="10" d="M 100,150 C 60,110 60,110 60,110"/><path id="path2990-0-3" fill="none" stroke="#ccc" stroke-dasharray="none" stroke-linecap="round" stroke-linejoin="round" stroke-miterlimit="4" stroke-opacity="1" stroke-width="10" d="M 100,120 C 130,90 130,90 130,90"/><path id="path2990-0-8-3" fill="none" stroke="#ccc" stroke-dasharray="none" stroke-linecap="round" stroke-linejoin="round" stroke-miterlimit="4" stroke-opacity="1" stroke-width="10" d="M 100,120 C 70,90 70,90 70,90"/><path id="path2990-0-3-9" fill="none" stroke="#ccc" stroke-dasharray="none" stroke-linecap="round" stroke-linejoin="round" stroke-miterlimit="4" stroke-opacity="1" stroke-width="10" d="M 100,90 C 120,70 120,70 120,70"/><path id="path2990-0-8-3-3" fill="none" stroke="#ccc" stroke-dasharray="none" stroke-linecap="round" stroke-linejoin="round" stroke-miterlimit="4" stroke-opacity="1" stroke-width="10" d="M 100,90 C 80,70 80,70 80,70"/></g></g></svg>