<svg xmlns="http://www.w3.org/2000/svg" xmlns:svg="http://www.w3.org/2000/svg" id="svg2" width="200" height="200" enable-background="new" version="1.0"><defs id="defs4"><filter id="filter3816"><feBlend id="feBlend3818" in2="BackgroundImage" mode="lighten"/></filter><filter id="filter3820"><feBlend id="feBlend3822" in2="BackgroundImage" mode="lighten"/></filter><filter id="filter3824"><feBlend id="feBlend3826" in2="BackgroundImage" mode="lighten"/></filter><filter id="filter3828"><feBlend id="feBlend3830" in2="BackgroundImage" mode="lighten"/></filter></defs><metadata id="metadata7"/><g id="layer5" display="inline" filter="url(#filter3820)"><path id="path2985" fill="#ff3d01" fill-opacity=".784" fill-rule="nonzero" stroke="none" d="m 109.91544,55.000131 a 35,45 0 1 1 -0.0418,1.62e-4" display="inline" transform="matrix(1.4892302,0,0,1.4444553,-86.394793,-44.445465)"/><path id="path2985-2" fill="#ffde01" fill-opacity=".784" fill-rule="nonzero" stroke="none" d="m 109.91505,55.000131 a 35.162464,45 0 1 1 -0.042,1.62e-4" display="inline" filter="url(#filter3828)" transform="matrix(1.4892302,0,0,1.5336574,-78.706697,-53.118872)"/><path id="path2985-8" fill="#01ff17" fill-opacity=".784" fill-rule="nonzero" stroke="none" d="m 109.91544,55.000131 a 35,45 0 1 1 -0.0418,1.62e-4" display="inline" filter="url(#filter3828)" transform="matrix(1.4892302,0,0,1.5588884,-65.502491,-55.147124)"/><path id="path2985-27" fill="#47ff01" fill-opacity=".784" fill-rule="nonzero" stroke="none" d="m 109.91302,55.000131 a 36,45 0 1 1 -0.043,1.62e-4" display="inline" filter="url(#filter3828)" transform="matrix(1.4892302,0,0,1.529423,-55.120959,-52.942229)"/><path id="path2985-3" fill="#010aff" fill-opacity=".784" fill-rule="nonzero" stroke="none" d="m 109.91505,55.000131 a 35.162464,45 0 1 1 -0.0408,1.57e-4 L 110,100 z" display="inline" filter="url(#filter3828)" transform="matrix(1.4892302,0,0,1.4444553,-41.475943,-44.445889)"/></g><g id="layer1" display="none"><path id="path2385" fill="none" stroke="#cacac6" stroke-dasharray="none" stroke-linecap="round" stroke-linejoin="round" stroke-miterlimit="4" stroke-opacity="1" stroke-width="10" d="m 217.5,87.5 a 70,70 0 1 1 -140,0 70,70 0 1 1 140,0 z" transform="translate(-47.5,12.5)"/></g></svg>