<svg xmlns="http://www.w3.org/2000/svg" xmlns:osb="http://www.openswatchbook.org/uri/2009/osb" xmlns:svg="http://www.w3.org/2000/svg" xmlns:xlink="http://www.w3.org/1999/xlink" id="svg2" width="200" height="200" version="1.0"><defs id="defs4"><pattern id="pattern5204" patternTransform="scale(20,20)" xlink:href="#Strips1_1"/><linearGradient id="linearGradient5300"><stop id="stop5302" offset="0" stop-color="#f24d5d" stop-opacity="1"/><stop id="stop5304" offset="1" stop-color="#ebebeb" stop-opacity="1"/></linearGradient><linearGradient id="linearGradient5288"><stop id="stop5290" offset="0" stop-color="#000" stop-opacity="1"/><stop id="stop5298" offset="1" stop-color="#e9e9e9" stop-opacity="1"/></linearGradient><pattern id="Strips1_1" width="2" height="1" patternTransform="translate(0,0) scale(10,10)" patternUnits="userSpaceOnUse"><rect id="rect4475" width="1" height="2" x="0" y="-.5" fill="#000" stroke="none"/></pattern><linearGradient id="linearGradient5204" osb:paint="solid"><stop id="stop5206" offset="0" stop-color="#dcdcdc" stop-opacity="1"/></linearGradient><linearGradient id="linearGradient5296" x1="30" x2="100.066" y1="116.454" y2="116.454" gradientUnits="userSpaceOnUse" xlink:href="#linearGradient5288"/><linearGradient id="linearGradient5308" x1="155" x2="100" y1="145" y2="100" gradientUnits="userSpaceOnUse" spreadMethod="repeat" xlink:href="#linearGradient5300"/></defs><metadata id="metadata7"/><g id="layer1"><path id="path3680-3" fill="#dcdcdc" fill-opacity="1" fill-rule="evenodd" stroke="none" d="m 40.39102,63.301641 a 70,70 0 0 1 120.8665,2.823353 L 100,100 z"/><path id="path2904" fill="url(#linearGradient5296)" fill-opacity="1" fill-rule="evenodd" stroke="none" d="M 100.06584,169.99997 A 70,70 0 0 1 40.634982,62.908294 L 100,100 z"/><path id="path3678" fill="url(#linearGradient5308)" fill-opacity="1" fill-rule="evenodd" stroke="none" d="M 161.11831,65.87446 A 70,70 0 0 1 99.745168,169.99954 L 100,100 z"/><path id="path3680" fill="url(#pattern5204)" fill-opacity="1" fill-rule="evenodd" stroke="none" d="m 40.39102,63.301641 a 70,70 0 0 1 120.8665,2.823353 L 100,100 z"/><path id="path2385" fill="none" fill-rule="evenodd" stroke="#cacac6" stroke-dasharray="none" stroke-linecap="round" stroke-linejoin="round" stroke-miterlimit="4" stroke-opacity="1" stroke-width="10" d="M 217.5,87.5 A 70,70 0 1 1 77.5,87.5 A 70,70 0 1 1 217.5,87.5 z" transform="translate(-47.5,12.5)"/></g></svg>