<svg xmlns="http://www.w3.org/2000/svg" xmlns:svg="http://www.w3.org/2000/svg" xmlns:xlink="http://www.w3.org/1999/xlink" id="svg2" width="200" height="200" version="1.0"><defs id="defs4"><marker id="Arrow2Send" orient="auto" overflow="visible" refX="0" refY="0"><path id="path5197" fill-rule="evenodd" stroke-linejoin="round" stroke-width=".625" d="M 8.7185878,4.0337352 L -2.2072895,0.016013256 L 8.7185884,-4.0017078 C 6.9730900,-1.6296469 6.9831476,1.6157441 8.7185878,4.0337352 z" font-size="12" transform="scale(0.3) rotate(180) translate(-2.3,0)"/></marker><marker id="Arrow2Mend" orient="auto" overflow="visible" refX="0" refY="0"><path id="path5191" fill-rule="evenodd" stroke-linejoin="round" stroke-width=".625" d="M 8.7185878,4.0337352 L -2.2072895,0.016013256 L 8.7185884,-4.0017078 C 6.9730900,-1.6296469 6.9831476,1.6157441 8.7185878,4.0337352 z" font-size="12" transform="scale(0.6) rotate(180) translate(0,0)"/></marker><marker id="Arrow2Lend" orient="auto" overflow="visible" refX="0" refY="0"><path id="path5185" fill-rule="evenodd" stroke-linejoin="round" stroke-width=".625" d="M 8.7185878,4.0337352 L -2.2072895,0.016013256 L 8.7185884,-4.0017078 C 6.9730900,-1.6296469 6.9831476,1.6157441 8.7185878,4.0337352 z" font-size="12" transform="scale(1.1) rotate(180) translate(1,0)"/></marker><marker id="Arrow1Send" orient="auto" overflow="visible" refX="0" refY="0"><path id="path5179" fill-rule="evenodd" stroke="#000" stroke-width="1pt" marker-start="none" d="M 0.0,0.0 L 5.0,-5.0 L -12.5,0.0 L 5.0,5.0 L 0.0,0.0 z" transform="scale(0.2) rotate(180) translate(6,0)"/></marker><marker id="Arrow1Lend" orient="auto" overflow="visible" refX="0" refY="0"><path id="path5167" fill-rule="evenodd" stroke="#000" stroke-width="1pt" marker-start="none" d="M 0.0,0.0 L 5.0,-5.0 L -12.5,0.0 L 5.0,5.0 L 0.0,0.0 z" transform="scale(0.8) rotate(180) translate(12.5,0)"/></marker><linearGradient id="linearGradient5122"><stop id="stop5124" offset="0" stop-color="#f22323" stop-opacity=".528"/><stop id="stop5134" offset=".284" stop-color="#ebed18" stop-opacity=".544"/><stop id="stop5132" offset=".512" stop-color="#1ce129" stop-opacity=".544"/><stop id="stop5130" offset=".646" stop-color="#27e3de" stop-opacity=".512"/><stop id="stop5128" offset=".785" stop-color="#602de9" stop-opacity=".544"/><stop id="stop5126" offset="1" stop-color="#e92de1" stop-opacity=".584"/></linearGradient><linearGradient id="linearGradient5136" x1="72.5" x2="222.5" y1="87.5" y2="87.5" gradientUnits="userSpaceOnUse" xlink:href="#linearGradient5122"/><marker id="Arrow2Send1" orient="auto" overflow="visible" refX="0" refY="0"><path id="path3657" fill="#cacac6" fill-rule="evenodd" stroke="#cacac6" stroke-linejoin="round" stroke-width=".625" d="M 8.7185878,4.0337352 L -2.2072895,0.016013256 L 8.7185884,-4.0017078 C 6.9730900,-1.6296469 6.9831476,1.6157441 8.7185878,4.0337352 z" font-size="12" transform="scale(0.3) rotate(180) translate(-2.3,0)"/></marker></defs><metadata id="metadata7"/><g id="layer1"><path id="path2385" fill="url(#linearGradient5136)" fill-opacity="1" fill-rule="evenodd" stroke="#cacac6" stroke-dasharray="none" stroke-linecap="round" stroke-linejoin="round" stroke-miterlimit="4" stroke-opacity="1" stroke-width="10" d="M 217.5,87.5 A 70,70 0 1 1 77.5,87.5 A 70,70 0 1 1 217.5,87.5 z" opacity="1" transform="translate(-47.5,12.5)"/><path id="path5159" fill="none" stroke="#cacac6" stroke-dasharray="none" stroke-linecap="butt" stroke-linejoin="miter" stroke-miterlimit="4" stroke-opacity="1" stroke-width="30" marker-end="url(#Arrow2Send1)" marker-mid="none" d="m 80,100 c 75,0 80,0 80,0 l 0,0"/></g></svg>