<svg xmlns="http://www.w3.org/2000/svg" xmlns:svg="http://www.w3.org/2000/svg" id="svg2" width="200" height="200" version="1.0"><metadata id="metadata7"/><g id="layer1"><path id="path2385" fill="none" fill-rule="evenodd" stroke="#cacac6" stroke-dasharray="none" stroke-linecap="round" stroke-linejoin="round" stroke-miterlimit="4" stroke-opacity="1" stroke-width="10" d="M 217.5,87.5 A 70,70 0 1 1 77.5,87.5 A 70,70 0 1 1 217.5,87.5 z" transform="translate(-47.5,12.5)"/><path id="rect3615" fill="#cacac6" fill-opacity="1" fill-rule="evenodd" stroke="none" stroke-dashoffset="16" stroke-linecap="round" stroke-linejoin="round" stroke-miterlimit="4" stroke-opacity="1" stroke-width="10" d="m 50,90 30,0 0,10 -30,0 0,-10 z m 110.18627,45.21409 C 140.61981,168.55692 97.91464,179.93899 64.57181,160.37254 31.308864,140.85297 20.101014,98.105564 39.753861,64.888325 70,65 85,65 100,100 c 15,35 30.18627,35.21409 60.18627,35.21409 z"/><rect id="rect3620" width="30" height="10" x="120" y="90" fill="#cacac6" fill-opacity="1" fill-rule="evenodd" stroke="none"/><rect id="rect3622" width="10" height="30" x="130" y="80" fill="#cacac6" fill-opacity="1" fill-rule="evenodd" stroke="none"/></g></svg>