<svg xmlns="http://www.w3.org/2000/svg" xmlns:svg="http://www.w3.org/2000/svg" id="svg2" width="200" height="200" version="1.0"><defs id="defs4"><marker id="EmptyTriangleInS" orient="auto" overflow="visible" refX="0" refY="0"><path id="path3932" fill="#FFF" fill-rule="evenodd" stroke="#000" stroke-width="1pt" marker-start="none" d="M 5.77,0.0 L -2.88,5.0 L -2.88,-5.0 L 5.77,0.0 z" transform="scale(-0.2) translate(-3.0,0)"/></marker><marker id="EmptyTriangleOutS" orient="auto" overflow="visible" refX="0" refY="0"><path id="path3941" fill="#FFF" fill-rule="evenodd" stroke="#000" stroke-width="1pt" marker-start="none" d="M 5.77,0.0 L -2.88,5.0 L -2.88,-5.0 L 5.77,0.0 z" transform="scale(0.2) translate(-3.0,0)"/></marker><marker id="TriangleInS" orient="auto" overflow="visible" refX="0" refY="0"><path id="path3914" fill-rule="evenodd" stroke="#000" stroke-width="1pt" marker-start="none" d="M 5.77,0.0 L -2.88,5.0 L -2.88,-5.0 L 5.77,0.0 z" transform="scale(-0.2)"/></marker><marker id="TriangleOutS" orient="auto" overflow="visible" refX="0" refY="0"><path id="path3923" fill-rule="evenodd" stroke="#000" stroke-width="1pt" marker-start="none" d="M 5.77,0.0 L -2.88,5.0 L -2.88,-5.0 L 5.77,0.0 z" transform="scale(0.2)"/></marker><marker id="Arrow1Sstart" orient="auto" overflow="visible" refX="0" refY="0"><path id="path3786" fill-rule="evenodd" stroke="#000" stroke-width="1pt" marker-start="none" d="M 0.0,0.0 L 5.0,-5.0 L -12.5,0.0 L 5.0,5.0 L 0.0,0.0 z" transform="scale(0.2) translate(6,0)"/></marker><marker id="Arrow2Sstart" orient="auto" overflow="visible" refX="0" refY="0"><path id="path3804" fill-rule="evenodd" stroke-linejoin="round" stroke-width=".625" d="M 8.7185878,4.0337352 L -2.2072895,0.016013256 L 8.7185884,-4.0017078 C 6.9730900,-1.6296469 6.9831476,1.6157441 8.7185878,4.0337352 z" font-size="12" transform="scale(0.3) translate(-2.3,0)"/></marker><marker id="Arrow1Send" orient="auto" overflow="visible" refX="0" refY="0"><path id="path3789" fill-rule="evenodd" stroke="#000" stroke-width="1pt" marker-start="none" d="M 0.0,0.0 L 5.0,-5.0 L -12.5,0.0 L 5.0,5.0 L 0.0,0.0 z" transform="scale(0.2) rotate(180) translate(6,0)"/></marker><marker id="Arrow1Lend" orient="auto" overflow="visible" refX="0" refY="0"><path id="path3777" fill-rule="evenodd" stroke="#000" stroke-width="1pt" marker-start="none" d="M 0.0,0.0 L 5.0,-5.0 L -12.5,0.0 L 5.0,5.0 L 0.0,0.0 z" transform="scale(0.8) rotate(180) translate(12.5,0)"/></marker></defs><metadata id="metadata7"/><g id="layer1"><path id="path2385" fill="none" fill-rule="evenodd" stroke="#cacac6" stroke-dasharray="none" stroke-linecap="round" stroke-linejoin="round" stroke-miterlimit="4" stroke-opacity="1" stroke-width="10" d="M 217.5,87.5 A 70,70 0 1 1 77.5,87.5 A 70,70 0 1 1 217.5,87.5 z" transform="translate(-47.5,12.5)"/><path id="path4862" fill="none" stroke="#cacac6" stroke-dasharray="none" stroke-linecap="butt" stroke-linejoin="round" stroke-miterlimit="4" stroke-opacity="1" stroke-width="8.5" marker-end="none" d="M 78.740724,56.719677 C 137.96833,50.796916 137.96833,98.179004 137.96833,98.179004"/><path id="path5060" fill="#ededed" fill-opacity="1" stroke="#cacac6" stroke-dasharray="none" stroke-linecap="round" stroke-miterlimit="4" stroke-opacity="1" stroke-width="2.245" d="M 125,95 107.67949,95 116.33975,80 125,65 l 8.66025,15 8.66026,15 z" transform="matrix(-0.89077338,-0.00525175,0.00525175,-0.89077338,248.31732,181.98835)"/><path id="path4862-2" fill="none" stroke="#cacac6" stroke-dasharray="none" stroke-linecap="butt" stroke-linejoin="round" stroke-miterlimit="4" stroke-opacity="1" stroke-width="8.5" marker-end="none" d="M 121.25928,143.28032 C 62.031666,149.20308 62.031666,101.821 62.031666,101.821"/><path id="path5060-6" fill="#ededed" fill-opacity="1" stroke="#cacac6" stroke-dasharray="none" stroke-linecap="round" stroke-miterlimit="4" stroke-opacity="1" stroke-width="2.245" d="M 125,95 107.67949,95 116.33975,80 125,65 l 8.66025,15 8.66026,15 z" transform="matrix(0.89077338,0.00525175,-0.00525175,0.89077338,-48.31732,18.011653)"/></g></svg>