<svg xmlns="http://www.w3.org/2000/svg" xmlns:svg="http://www.w3.org/2000/svg" id="svg2" width="200" height="200" version="1.0"><metadata id="metadata7"/><g id="layer1"><path id="path2385" fill="none" fill-rule="evenodd" stroke="#cacac6" stroke-dasharray="none" stroke-linecap="round" stroke-linejoin="round" stroke-miterlimit="4" stroke-opacity="1" stroke-width="10" d="M 217.5,87.5 A 70,70 0 1 1 77.5,87.5 A 70,70 0 1 1 217.5,87.5 z" transform="translate(-47.5,12.5)"/><path id="path3866" fill="#ccc" fill-opacity="1" stroke="none" stroke-width="9.99" d="m 100.51513,14.029117 c -3.160602,14.829649 -0.522775,28.097181 -9.481817,44.488948 0,0 -13.194395,3.117928 -13.194395,-11.882072 -1.966417,7.5 -11.325907,24.465677 -10.056174,46.190802 C 59.848723,87.155835 60.67537,73.92903 58.940986,64.249638 55.689848,78.606239 39.136093,97.03321 58.45609,126.19687 c 6.75099,10.19066 18.646234,16.716 25.967989,17.17594 -8.519473,-13.12255 -7.118828,-21.50143 -6.807737,-32.4798 3.925944,10.00838 8.378174,13.10569 13.263446,7.16512 0,0 5.436892,-18.555634 9.369722,-23.555634 3.93284,19.999994 13.85201,21.506184 13.85201,6.506184 0,5 -0.21144,-3.270569 6.6904,14.72028 0,6.05354 2.10545,18.8004 -2.26798,27.49322 11.92867,-4.72966 32.80988,-14.89508 34.10547,-26.63628 1.29559,-11.74121 11.12671,-20.733309 -3.84356,-52.443846 -3.93284,10 -5.42468,19.123161 -13.13683,15.430338 2.31797,-12.903308 -5.10166,-28.000162 -7.77054,-31.393245 0,15 -8.87643,14.970401 -12.63522,11.629931 -1.57424,-32.649171 -14.72813,-45.779961 -14.72813,-45.779961 z" color="#000" display="inline" enable-background="accumulate" overflow="visible" visibility="visible" style="marker:none"/><path id="path3871" fill="red" fill-opacity="1" stroke="none" stroke-width="9.99" d="m 110,152.5 a 7.5,7.5 0 1 1 -15,0 7.5,7.5 0 1 1 15,0 z" color="#000" display="inline" enable-background="accumulate" overflow="visible" transform="matrix(1.3333333,0,0,1.3333333,-35.423465,-58.540415)" visibility="visible" style="marker:none"/></g></svg>