<svg xmlns="http://www.w3.org/2000/svg" xmlns:svg="http://www.w3.org/2000/svg" id="svg2" width="200" height="200" version="1.0"><metadata id="metadata7"/><g id="layer1"><path id="path5343" fill="#000" fill-opacity="1" stroke="#000" stroke-linecap="butt" stroke-linejoin="miter" stroke-opacity="1" stroke-width="1" d="m 34,116 c 0,0 3,-7 3,-9 0,-2 2,2 3,1 1,-1 3,-2 3,-6 0,-4 3,-23 4,-24 1,-1 2,-13 3,-12 1,1 3,12 3,14 0,2 2,10 3,11 1,1 5,5 8,5 3,0 8,-2 10,-1 2,1 7,-3 8,-2 1,1 2,5 4,4 2,-1 8,-4 10,-3 2,1 2,5 5,3 3,-2 7,-6 9,-4 2,2 3,-7 6,-5 3,2 8,5 12,5 4,0 13,-13 15,-11 2,2 4,-4 5,-2 1,2 1,20 3,19 2,-1 3,6 4,5 1,-1 2,-4 3,-3 1,1 0,6 2,5 2,-1 3,-2 4,-1 1,1 2,5 2,5 l -1,15 -15,20 -20,20 -30,5 -30,-5 -30,-25 z"/><path id="path2385" fill="none" fill-rule="evenodd" stroke="#cacac6" stroke-dasharray="none" stroke-linecap="round" stroke-linejoin="round" stroke-miterlimit="4" stroke-opacity="1" stroke-width="10" d="M 217.5,87.5 A 70,70 0 1 1 77.5,87.5 A 70,70 0 1 1 217.5,87.5 z" transform="translate(-47.5,12.5)"/><path id="path3780" fill="#000" fill-opacity="1" fill-rule="nonzero" stroke="#cacac6" stroke-dasharray="none" stroke-dashoffset="0" stroke-linecap="butt" stroke-linejoin="miter" stroke-miterlimit="4" stroke-opacity="1" stroke-width="1" d="m 95.000001,60 8.660249,15 8.66026,15 L 95,90 77.679492,90 86.339746,75 z" color="#000" display="inline" enable-background="accumulate" overflow="visible" transform="translate(-35,85)" visibility="visible" style="marker:none"/><path id="path3780-0" fill="gray" fill-opacity=".988" fill-rule="nonzero" stroke="#cacac6" stroke-dasharray="none" stroke-dashoffset="0" stroke-linecap="butt" stroke-linejoin="miter" stroke-miterlimit="4" stroke-opacity="1" stroke-width="1" d="m 95.000001,60 8.660249,15 8.66026,15 L 95,90 77.679492,90 86.339746,75 z" color="#000" display="inline" enable-background="accumulate" overflow="visible" transform="translate(6.339746,85)" visibility="visible" style="marker:none"/><path id="path3780-0-2" fill="#fff" fill-opacity=".989" fill-rule="nonzero" stroke="#cacac6" stroke-dasharray="none" stroke-dashoffset="0" stroke-linecap="butt" stroke-linejoin="miter" stroke-miterlimit="4" stroke-opacity="1" stroke-width="1" d="m 95.000001,60 8.660249,15 8.66026,15 L 95,90 77.679492,90 86.339746,75 z" color="#000" display="inline" enable-background="accumulate" overflow="visible" transform="translate(50,85)" visibility="visible" style="marker:none"/></g></svg>