<svg xmlns="http://www.w3.org/2000/svg" xmlns:svg="http://www.w3.org/2000/svg" id="svg2" width="200" height="200" version="1.0"><metadata id="metadata7"/><g id="layer1"><path id="path2385" fill="none" stroke="#cacac6" stroke-dasharray="none" stroke-linecap="butt" stroke-linejoin="round" stroke-miterlimit="4" stroke-opacity="1" stroke-width="10" d="M 105,30.21875 C 103.34443,30.101614 101.68539,30 100,30 61.340068,30 30,61.340068 30,100 c 0,38.65993 31.340068,70 70,70 38.65993,0 70,-31.34007 70,-70"/><path id="path2999" fill="#ccc" fill-opacity="1" stroke="none" d="m 149.14147,22.684506 c -7.64055,-3.998147 -15.9811,-5.281842 -23.92449,-4.22055 0.37145,0.181503 0.74484,0.338216 1.11372,0.53124 C 175,40 140,100 103.08379,87.652213 c 2.58038,2.406414 5.5134,4.534474 8.79109,6.249617 19.66613,10.2909 43.95108,2.690753 54.24196,-16.975367 10.29089,-19.666121 2.69075,-43.95107 -16.97537,-54.241957 z"/><path id="path3004" fill="#ccc" fill-opacity="1" stroke="none" d="M 70,75 65,71.626346 60,75 63.373654,70 60,65 65,68.373654 70,65 66.626346,70 z" transform="matrix(1.7883648,1.8241817,-1.8104168,1.8019621,88.014613,-172.83988)"/><path id="path3004-1" fill="#ccc" fill-opacity="1" stroke="none" d="M 70,75 65,71.626346 60,75 63.373654,70 60,65 65,68.373654 70,65 66.626346,70 z" transform="matrix(1.7883648,1.8241817,-1.8104168,1.8019621,77.956315,-131.57844)"/><path id="path3004-2" fill="#ccc" fill-opacity="1" stroke="none" d="M 70,75 65,71.626346 60,75 63.373654,70 60,65 65,68.373654 70,65 66.626346,70 z" transform="matrix(1.7652691,1.8006234,-1.7870363,1.7786908,122.47911,-109.47731)"/></g></svg>