<svg xmlns="http://www.w3.org/2000/svg" xmlns:svg="http://www.w3.org/2000/svg" id="svg2" width="200" height="200" version="1.0"><metadata id="metadata7"/><g id="layer1"><path id="path2385" fill="none" fill-rule="evenodd" stroke="#cacac6" stroke-dasharray="none" stroke-linecap="round" stroke-linejoin="round" stroke-miterlimit="4" stroke-opacity="1" stroke-width="10" d="M 217.5,87.5 A 70,70 0 1 1 77.5,87.5 A 70,70 0 1 1 217.5,87.5 z" transform="translate(-47.5,12.5)"/><path id="path4178" fill="none" stroke="#cacac6" stroke-dasharray="none" stroke-linecap="butt" stroke-linejoin="miter" stroke-miterlimit="4" stroke-opacity="1" stroke-width="10" d="m 50,50 c 7.967655,7.967656 30.232829,8.738357 40,20 6.906433,7.963184 6.666667,20 10,30 3.33333,10 3.66172,21.57757 10,30 7.78345,10.3428 24.03234,14.03234 32,22"/><path id="path4180" fill="red" fill-opacity=".471" stroke="#cacac6" stroke-dasharray="none" stroke-miterlimit="4" stroke-opacity="1" stroke-width="10" d="m 90,110 a 20,20 0 1 1 -40,0 20,20 0 1 1 40,0 z" transform="translate(0,10)"/><path id="path4182" fill="#0000fd" fill-opacity=".471" stroke="#cacac6" stroke-dasharray="none" stroke-miterlimit="4" stroke-opacity="1" stroke-width="10" d="m 150,70 a 20,20 0 1 1 -40,0 20,20 0 1 1 40,0 z" transform="translate(0,10)"/></g></svg>