<svg xmlns="http://www.w3.org/2000/svg" xmlns:svg="http://www.w3.org/2000/svg" xmlns:xlink="http://www.w3.org/1999/xlink" id="svg2" width="200" height="200" version="1.0"><defs id="defs4"><linearGradient id="linearGradient3866"><stop id="stop3868" offset="0" stop-color="#fff" stop-opacity="1"/><stop id="stop3874" offset=".487" stop-color="#fff" stop-opacity=".498"/><stop id="stop3870" offset="1" stop-color="#8d8d8d" stop-opacity="0"/></linearGradient><linearGradient id="linearGradient3806"><stop id="stop3808" offset="0" stop-color="#c9c9c9" stop-opacity="1"/><stop id="stop3810" offset="1" stop-color="#c9c9c9" stop-opacity="0"/></linearGradient><linearGradient id="linearGradient3796"><stop id="stop3798" offset="0" stop-color="#c9c9c9" stop-opacity="1"/><stop id="stop3800" offset="1" stop-color="#c9c9c9" stop-opacity="0"/></linearGradient><linearGradient id="linearGradient3784"><stop id="stop3786" offset="0" stop-color="#000" stop-opacity="1"/><stop id="stop3812" offset=".528" stop-color="#8d8d8d" stop-opacity="1"/><stop id="stop3862" offset="1" stop-color="#c6c6c6" stop-opacity="1"/><stop id="stop3788" offset="1" stop-color="#fff" stop-opacity="1"/></linearGradient><linearGradient id="linearGradient3860" x1="24.823" x2="174.46" y1="174.827" y2="174.827" gradientUnits="userSpaceOnUse" xlink:href="#linearGradient3784"/><radialGradient id="radialGradient3872" cx="73.548" cy="73.424" r="13.473" fx="73.548" fy="73.424" gradientTransform="matrix(1,0,0,2.3302752,0,-97.674101)" gradientUnits="userSpaceOnUse" xlink:href="#linearGradient3866"/></defs><metadata id="metadata7"/><g id="layer2"><path id="path3012" fill="#343434" fill-opacity="1" stroke="#c9c9c9" stroke-dasharray="none" stroke-dashoffset="0" stroke-linecap="butt" stroke-linejoin="miter" stroke-miterlimit="4" stroke-opacity="1" stroke-width=".999" d="m 101.04023,104.72851 a 0.34962016,4.7198725 0 1 1 -0.69924,0 0.34962016,4.7198725 0 1 1 0.69924,0 z"/><path id="path3014" fill="url(#linearGradient3860)" fill-opacity="1" stroke="none" d="m 174.46046,174.82735 a 74.818718,74.818718 0 1 1 -149.637431,0 74.818718,74.818718 0 1 1 149.637431,0 z" transform="matrix(-0.35020737,-0.93667219,0.93667219,-0.35020737,-28.477238,254.47752)"/><path id="path3864" fill="url(#radialGradient3872)" fill-opacity="1" stroke="none" d="m 87.021016,73.423981 a 13.473424,31.396786 0 1 1 -26.946848,0 13.473424,31.396786 0 1 1 26.946848,0 z" transform="matrix(-1.1137375,-1.1198471,1.2543473,-0.92948606,61.136173,204.37868)"/></g></svg>