<svg xmlns="http://www.w3.org/2000/svg" xmlns:svg="http://www.w3.org/2000/svg" id="svg2" width="200" height="200" version="1.0"><metadata id="metadata7"/><g id="layer1"><path id="path2385" fill="none" stroke="#cacac6" stroke-dasharray="none" stroke-linecap="round" stroke-linejoin="round" stroke-miterlimit="4" stroke-opacity="1" stroke-width="10" d="M 173.57947,22.53954 A 70,70 0 1 1 122.8212,21.994605" transform="translate(-47.5,12.5)"/><path id="path8919" fill="none" stroke="#cacac6" stroke-dasharray="none" stroke-dashoffset="16" stroke-linecap="round" stroke-linejoin="miter" stroke-miterlimit="4" stroke-opacity="1" stroke-width="10" d="M 112.40826,86.532732 A 22.5,15 0 1 1 93.011058,86.399183" transform="translate(-2.4082579,23.467268)"/><path id="path8923" fill="none" stroke="#cacac6" stroke-dasharray="none" stroke-linecap="butt" stroke-linejoin="miter" stroke-miterlimit="4" stroke-opacity="1" stroke-width="10" d="m 90,20 0,90"/><path id="path8925" fill="none" stroke="#cacac6" stroke-dasharray="none" stroke-linecap="butt" stroke-linejoin="miter" stroke-miterlimit="4" stroke-opacity="1" stroke-width="10" d="m 110,110 0,-90"/><path id="path8927" fill="none" stroke="#cacac6" stroke-dasharray="none" stroke-dashoffset="16" stroke-linecap="round" stroke-linejoin="miter" stroke-miterlimit="4" stroke-opacity="1" stroke-width="10" d="m 90.006852,15.370117 a 10,10 0 1 1 19.979888,0.144736" transform="translate(0,5)"/><path id="path9439" fill="none" stroke="#cacac6" stroke-dasharray="none" stroke-linecap="round" stroke-linejoin="miter" stroke-miterlimit="4" stroke-opacity="1" stroke-width="3" d="m 90,85 10,0"/><path id="path9443" fill="none" stroke="#cacac6" stroke-dasharray="none" stroke-linecap="round" stroke-linejoin="miter" stroke-miterlimit="4" stroke-opacity="1" stroke-width="3" d="m 90,65 10,0"/><path id="path9445" fill="none" stroke="#cacac6" stroke-dasharray="none" stroke-linecap="round" stroke-linejoin="miter" stroke-miterlimit="4" stroke-opacity="1" stroke-width="3" d="m 90,45 10,0"/><path id="path9447" fill="none" stroke="#cacac6" stroke-dasharray="none" stroke-linecap="round" stroke-linejoin="miter" stroke-miterlimit="4" stroke-opacity="1" stroke-width="3" d="M 89.285714,25 100,25"/><path id="path9449" fill="none" stroke="#cacac6" stroke-dasharray="none" stroke-linecap="round" stroke-linejoin="miter" stroke-miterlimit="4" stroke-opacity="1" stroke-width="3" d="m 90,105 10,0"/></g></svg>