<svg xmlns="http://www.w3.org/2000/svg" xmlns:svg="http://www.w3.org/2000/svg" id="svg2" width="200" height="200" version="1.0"><metadata id="metadata7"/><g id="layer1"><path id="path5203" fill="none" fill-rule="evenodd" stroke="#cacac6" stroke-dasharray="none" stroke-linecap="round" stroke-linejoin="round" stroke-miterlimit="4" stroke-opacity="1" stroke-width="10" d="M 77.77464 33.602002 C 84.757528 31.265647 92.23096 30 100 30 C 138.65993 30 170 61.340068 170 100 L 170 100 L 170 100 C 170 138.65993 138.65993 170 100 170 C 62.659226 170 32.147301 140.76222 30.108515 103.93095"/><g id="g5213" transform="matrix(0.99785168,0.06551354,-0.06551354,0.99785168,5.0702658,-4.4087375)"><path id="path5122" fill="#cacac6" fill-opacity="1" stroke="#cacac6" stroke-dasharray="none" stroke-linecap="round" stroke-linejoin="miter" stroke-miterlimit="0" stroke-opacity="1" stroke-width="5" d="M 12.949796,72.875004 40.772985,31.331411 107.24273,75.848513 79.419544,117.39211 12.949796,72.875004 z"/><path id="path5124" fill="none" stroke="#cacac6" stroke-dasharray="none" stroke-linecap="round" stroke-linejoin="miter" stroke-miterlimit="0" stroke-opacity="1" stroke-width="5" d="m 79.196307,117.56498 47.369703,1.31388 -19.32328,-43.030347"/><path id="path5126" fill="#cacac6" fill-opacity="1" stroke="none" d="m 108.5383,118.84062 11.12927,-16.61743 6.89844,16.65567 -18.02771,-0.0382 z"/></g></g></svg>