<svg xmlns="http://www.w3.org/2000/svg" xmlns:svg="http://www.w3.org/2000/svg" id="svg2" width="200" height="200" version="1.0"><metadata id="metadata7"/><g id="layer1"><path id="rect2862" fill="#000" fill-opacity="1" fill-rule="nonzero" stroke="none" d="M 86.572863,34 C 53.618701,43.61501 30,69.528835 30,100 c 0,30.47116 23.618701,56.38499 56.572863,66 l 0,-132 z"/><path id="rect2862-1" fill="#7d7d7d" fill-opacity="1" fill-rule="nonzero" stroke="none" d="m 102.18805,30 c -8.956316,0 -17.543539,1.416079 -25.5318,4 l 0,132 c 7.988261,2.58392 16.575484,4 25.5318,4 11.74544,0 22.86508,-2.42841 32.81195,-6.75 l 0,-126.5 C 125.05313,32.428406 113.93349,30 102.18805,30 z"/><path id="rect2862-1-7" fill="#e3e3e3" fill-opacity="1" fill-rule="nonzero" stroke="none" d="M 130 36.75 L 130 163.25 C 153.64551 152.01386 170 127.92106 170 100 C 170 72.078938 153.64551 47.986144 130 36.75 z"/><path id="path2385" fill="none" fill-rule="evenodd" stroke="#cacac6" stroke-dasharray="none" stroke-linecap="round" stroke-linejoin="round" stroke-miterlimit="4" stroke-opacity="1" stroke-width="10" d="M 217.5,87.5 A 70,70 0 1 1 77.5,87.5 A 70,70 0 1 1 217.5,87.5 z" transform="translate(-47.5,12.5)"/></g></svg>