<svg xmlns="http://www.w3.org/2000/svg" xmlns:svg="http://www.w3.org/2000/svg" xmlns:xlink="http://www.w3.org/1999/xlink" id="svg2" width="45.783" height="50.117" version="1.1" viewBox="0 0 45.783 50.117"><defs id="defs4"><linearGradient id="linearGradient4346"><stop id="stop4348" offset="0" stop-color="#cccccf" stop-opacity="1"/><stop id="stop4350" offset="1" stop-color="#888" stop-opacity="1"/></linearGradient><linearGradient id="linearGradient4338"><stop id="stop4340" offset="0" stop-color="#888" stop-opacity="1"/><stop id="stop4342" offset="1" stop-color="#cccccf" stop-opacity="1"/></linearGradient><linearGradient id="linearGradient4330"><stop id="stop4332" offset="0" stop-color="#eee" stop-opacity="1"/><stop id="stop4334" offset="1" stop-color="#aaa" stop-opacity="1"/></linearGradient><linearGradient id="linearGradient4322"><stop id="stop4324" offset="0" stop-color="#eee" stop-opacity="1"/><stop id="stop4326" offset="1" stop-color="#aaa" stop-opacity="1"/></linearGradient><linearGradient id="linearGradient4314"><stop id="stop4316" offset="0" stop-color="#eee" stop-opacity="1"/><stop id="stop4318" offset="1" stop-color="#aaa" stop-opacity="1"/></linearGradient><linearGradient id="linearGradient4298"><stop id="stop4300" offset="0" stop-color="#aaa" stop-opacity="1"/><stop id="stop4302" offset="1" stop-color="#eee" stop-opacity="1"/></linearGradient><linearGradient id="linearGradient4290"><stop id="stop4292" offset="0" stop-color="#aaa" stop-opacity="1"/><stop id="stop4294" offset="1" stop-color="#eee" stop-opacity="1"/></linearGradient><linearGradient id="linearGradient4206"><stop id="stop4208" offset="0" stop-color="#fff" stop-opacity="1"/><stop id="stop4210" offset="1" stop-color="#b0b0b0" stop-opacity="1"/></linearGradient><linearGradient id="linearGradient4209"><stop id="stop4211" offset="0" stop-color="#fff" stop-opacity="1"/><stop id="stop4213" offset="1" stop-color="#fff" stop-opacity="0"/></linearGradient><linearGradient id="linearGradient4163"><stop id="stop4165" offset="0" stop-color="#ff7004" stop-opacity="1"/><stop id="stop4167" offset="1" stop-color="#ba4704" stop-opacity="1"/></linearGradient><linearGradient id="linearGradient4153"><stop id="stop4155" offset="0" stop-color="#d70016" stop-opacity="1"/><stop id="stop4157" offset="1" stop-color="#8d0016" stop-opacity="1"/></linearGradient><linearGradient id="linearGradient4143"><stop id="stop4145" offset="0" stop-color="#d000d0" stop-opacity="1"/><stop id="stop4147" offset="1" stop-color="#760076" stop-opacity="1"/></linearGradient><linearGradient id="linearGradient4133"><stop id="stop4135" offset="0" stop-color="#1476e6" stop-opacity="1"/><stop id="stop4137" offset="1" stop-color="#143e9a" stop-opacity="1"/></linearGradient><linearGradient id="linearGradient4123"><stop id="stop4125" offset="0" stop-color="#17b414" stop-opacity="1"/><stop id="stop4127" offset="1" stop-color="#176314" stop-opacity="1"/></linearGradient><linearGradient id="linearGradient4105"><stop id="stop4107" offset="0" stop-color="#f7f10e" stop-opacity="1"/><stop id="stop4109" offset="1" stop-color="#c58907" stop-opacity="1"/></linearGradient><filter id="filter4107" color-interpolation-filters="sRGB"><feGaussianBlur id="feGaussianBlur4109" stdDeviation="9"/></filter><filter id="filter3902"><feGaussianBlur id="feGaussianBlur3904" stdDeviation="9"/></filter><linearGradient id="linearGradient3885" x1="372.859" x2="318.297" y1="593.388" y2="726.388" gradientTransform="translate(1.8752155,-533.76621)" gradientUnits="userSpaceOnUse" xlink:href="#linearGradient4163"/><linearGradient id="linearGradient3907" x1="277.627" x2="454.048" y1="637.059" y2="683.489" gradientTransform="rotate(60,717.31749,524.50708)" gradientUnits="userSpaceOnUse" xlink:href="#linearGradient4105"/><linearGradient id="linearGradient3911" x1="253.838" x2="401.186" y1="725.269" y2="612.484" gradientTransform="rotate(120,409.14743,523.42443)" gradientUnits="userSpaceOnUse" xlink:href="#linearGradient4123"/><linearGradient id="linearGradient3915" x1="326.125" x2="342.125" y1="701.766" y2="581.766" gradientTransform="rotate(180,255.0624,522.8831)" gradientUnits="userSpaceOnUse" xlink:href="#linearGradient4133"/><linearGradient id="linearGradient3919" x1="456.976" x2="273.627" y1="694.418" y2="643.987" gradientTransform="rotate(-120,100.97736,522.34178)" gradientUnits="userSpaceOnUse" xlink:href="#linearGradient4143"/><linearGradient id="linearGradient3923" x1="432.115" x2="263.694" y1="650.053" y2="710.341" gradientTransform="rotate(-60,-207.1927,521.25913)" gradientUnits="userSpaceOnUse" xlink:href="#linearGradient4153"/><filter id="filter3999" width="1.204" height="1.282" x="-.102" y="-.141"><feGaussianBlur id="feGaussianBlur4001" stdDeviation="9.267"/></filter><filter id="filter4007" width="1.239" height="1.214" x="-.119" y="-.107"><feGaussianBlur id="feGaussianBlur4009" stdDeviation="9.267"/></filter><filter id="filter4011" width="1.204" height="1.282" x="-.102" y="-.141"><feGaussianBlur id="feGaussianBlur4013" stdDeviation="9.267"/></filter><filter id="filter4015" width="1.251" height="1.221" x="-.125" y="-.11"><feGaussianBlur id="feGaussianBlur4017" stdDeviation="9.267"/></filter><filter id="filter4019" width="1.239" height="1.214" x="-.119" y="-.107"><feGaussianBlur id="feGaussianBlur4021" stdDeviation="9.267"/></filter><linearGradient id="linearGradient4212" x1="256" x2="256" y1="224" y2="288" gradientUnits="userSpaceOnUse" xlink:href="#linearGradient4206"/><filter id="filter4245" width="1.251" height="1.221" x="-.126" y="-.111"><feGaussianBlur id="feGaussianBlur4247" stdDeviation="9.291"/></filter><filter id="filter4257" width="1.235" height="1.235" x="-.118" y="-.118"><feGaussianBlur id="feGaussianBlur4259" stdDeviation="3.136"/></filter><filter id="filter4308"><feGaussianBlur id="feGaussianBlur4310" stdDeviation="4.831"/></filter><filter id="filter4312"><feGaussianBlur id="feGaussianBlur4314" stdDeviation="4.819"/></filter><filter id="filter4320"><feGaussianBlur id="feGaussianBlur4322" stdDeviation="4.825"/></filter><filter id="filter4328"><feGaussianBlur id="feGaussianBlur4330" stdDeviation="5.057"/></filter><filter id="filter4336"><feGaussianBlur id="feGaussianBlur4338" stdDeviation="5.057"/></filter><filter id="filter4344"><feGaussianBlur id="feGaussianBlur4346" stdDeviation="4.822"/></filter><filter id="filter4348"><feGaussianBlur id="feGaussianBlur4350" stdDeviation="1.758"/></filter><linearGradient id="linearGradient4296" x1="329.71" x2="395.038" y1="308.829" y2="296.997" gradientTransform="matrix(0.08769582,0,0,0.08769582,22.649212,479.0522)" gradientUnits="userSpaceOnUse" xlink:href="#linearGradient4290"/><linearGradient id="linearGradient4304" x1="278.654" x2="313.229" y1="322.764" y2="374.596" gradientTransform="matrix(0.08769582,0,0,0.08769582,22.649212,479.0522)" gradientUnits="userSpaceOnUse" xlink:href="#linearGradient4298"/><linearGradient id="linearGradient4320" x1="192.234" x2="216.681" y1="321.43" y2="325.937" gradientTransform="matrix(0.08769582,0,0,0.08769582,22.649212,479.0522)" gradientUnits="userSpaceOnUse" xlink:href="#linearGradient4314"/><linearGradient id="linearGradient4328" x1="67.429" x2="155.617" y1="289.472" y2="300.176" gradientTransform="matrix(0.08769582,0,0,0.08769582,22.649212,479.0522)" gradientUnits="userSpaceOnUse" xlink:href="#linearGradient4322"/><linearGradient id="linearGradient4336" x1="240.131" x2="241.286" y1="301.943" y2="320.535" gradientTransform="matrix(0.08769582,0,0,0.08769582,22.649212,479.0522)" gradientUnits="userSpaceOnUse" xlink:href="#linearGradient4330"/><linearGradient id="linearGradient4344" x1="313.056" x2="322.83" y1="295.679" y2="318.778" gradientTransform="matrix(0.08769582,0,0,0.08769582,22.649212,479.0522)" gradientUnits="userSpaceOnUse" xlink:href="#linearGradient4338"/><linearGradient id="linearGradient4352" x1="143.436" x2="156.351" y1="311.71" y2="288.612" gradientTransform="matrix(0.08769582,0,0,0.08769582,22.649212,479.0522)" gradientUnits="userSpaceOnUse" xlink:href="#linearGradient4346"/></defs><metadata id="metadata7"/><g id="layer3" display="inline" transform="translate(-47.459886,-473.46144)"><path id="path3947" fill="#1a1a1a" fill-opacity="1" stroke="none" d="M 510,287 C 510,409.90634 411.37372,510.07095 288.48211,511.97305 165.59049,513.87516 63.911528,416.81084 60.107778,293.96338 56.304029,171.11592 151.78313,67.946963 274.55701,62.242477 397.3309,56.537992 501.96513,150.40901 509.56899,273.07991" filter="url(#filter4107)" opacity=".95" transform="matrix(0.08379823,0,0,0.08379823,46.072201,473.51628)"/><path id="path3892" fill="#1a1a1a" fill-opacity="1" stroke="none" d="M 510,287 C 510,409.90634 411.37372,510.07095 288.48211,511.97305 165.59049,513.87516 63.911528,416.81084 60.107778,293.96338 56.304029,171.11592 151.78313,67.946963 274.55701,62.242477 397.3309,56.537992 501.96513,150.40901 509.56899,273.07991" display="inline" filter="url(#filter3902)" opacity=".95" transform="matrix(0.08379823,0,0,0.08379823,46.072201,473.51628)"/><path id="path3021" fill="#1a1a1a" fill-opacity="1" stroke="none" d="M 510,287 C 510,409.90634 411.37372,510.07095 288.48211,511.97305 165.59049,513.87516 63.911528,416.81084 60.107778,293.96338 56.304029,171.11592 151.78313,67.946963 274.55701,62.242477 397.3309,56.537992 501.96513,150.40901 509.56899,273.07991" display="inline" opacity=".95" transform="matrix(0.08379823,0,0,0.08379823,46.072201,473.51628)"/></g><g id="layer9" display="inline" opacity=".816" transform="translate(-47.459886,-473.46144)"><g id="g4963" transform="matrix(0.08769582,0,0,0.08769582,47.592261,475.02854)"><path id="path3951" fill="#000" fill-opacity="1" fill-rule="nonzero" stroke="none" d="m 303.20313,32.6687 c 0,0 -55.46875,157.90625 -55.46875,157.90625 0,0 218.4375,-36.75 218.4375,-36.75 C 433.81752,91.69016 374.21313,46.03153 303.20313,32.6687 Z" display="inline" filter="url(#filter3999)"/><path id="path3953" fill="#000" fill-opacity="1" fill-rule="nonzero" stroke="none" d="m 473.01214,185.21346 c 0,0 -164.4852,30.91578 -164.4852,30.91578 0,0 141.04518,170.79742 141.04518,170.79742 37.63313,-59.08709 47.37247,-133.53532 23.44002,-201.7132 z" display="inline" filter="url(#filter4245)"/><path id="path3955" fill="#000" fill-opacity="1" fill-rule="nonzero" stroke="none" d="m 425.80901,408.54475 c 0,0 -109.01645,-126.99047 -109.01645,-126.99047 0,0 -77.39232,207.54742 -77.39232,207.54742 69.98749,3.0477 139.33122,-25.7419 186.40877,-80.55695 z" display="inline" filter="url(#filter4007)"/><path id="path3957" fill="#000" fill-opacity="1" fill-rule="nonzero" stroke="none" d="m 208.79687,479.33129 c 0,0 55.46875,-157.90625 55.46875,-157.90625 0,0 -218.437497,36.74999 -218.437497,36.74999 32.354359,62.1348 91.958747,107.79343 162.968747,121.15626 z" display="inline" filter="url(#filter4011)"/><path id="path3959" fill="#000" fill-opacity="1" fill-rule="nonzero" stroke="none" d="m 38.987861,326.78653 c 0,0 164.485199,-30.91578 164.485199,-30.91578 0,0 -141.045174,-170.79742 -141.045174,-170.79742 -37.633135,59.08709 -47.372475,133.53532 -23.440025,201.7132 z" display="inline" filter="url(#filter4015)"/><path id="path3961" fill="#000" fill-opacity="1" fill-rule="nonzero" stroke="none" d="m 86.190993,103.45524 c 0,0 109.016447,126.99047 109.016447,126.99047 0,0 77.39232,-207.547416 77.39232,-207.547416 C 202.61227,19.850589 133.26854,48.640187 86.190993,103.45524 Z" display="inline" filter="url(#filter4019)"/><circle id="path4249" cx="256" cy="256" r="32" fill="#000" fill-opacity="1" stroke="none" d="m 288,256 c 0,17.67311 -14.32689,32 -32,32 -17.67311,0 -32,-14.32689 -32,-32 0,-17.67311 14.32689,-32 32,-32 17.67311,0 32,14.32689 32,32 z" display="inline" filter="url(#filter4257)"/></g></g><g id="layer2" display="inline" transform="translate(-47.459886,-473.46144)"><g id="g4941" transform="matrix(0.08769582,0,0,0.08769582,47.592261,475.02854)"><path id="path3902" fill="url(#linearGradient3885)" fill-opacity="1" fill-rule="nonzero" stroke="none" d="m 303.20313,32.6687 c 0,0 -55.46875,157.90625 -55.46875,157.90625 0,0 218.4375,-36.75 218.4375,-36.75 C 433.81752,91.69016 374.21313,46.03153 303.20313,32.6687 Z" display="inline"/><path id="path3905" fill="url(#linearGradient3907)" fill-opacity="1" fill-rule="nonzero" stroke="none" d="m 473.01214,185.21346 c 0,0 -164.4852,30.91578 -164.4852,30.91578 0,0 141.04518,170.79742 141.04518,170.79742 37.63313,-59.08709 47.37247,-133.53532 23.44002,-201.7132 z" display="inline"/><path id="path3909" fill="url(#linearGradient3911)" fill-opacity="1" fill-rule="nonzero" stroke="none" d="m 425.80901,408.54475 c 0,0 -109.01645,-126.99047 -109.01645,-126.99047 0,0 -77.39232,207.54742 -77.39232,207.54742 69.98749,3.0477 139.33122,-25.7419 186.40877,-80.55695 z" display="inline"/><path id="path3913" fill="url(#linearGradient3915)" fill-opacity="1" fill-rule="nonzero" stroke="none" d="m 208.79687,479.33129 c 0,0 55.46875,-157.90625 55.46875,-157.90625 0,0 -218.437497,36.74999 -218.437497,36.74999 32.354359,62.1348 91.958747,107.79343 162.968747,121.15626 z" display="inline"/><path id="path3917" fill="url(#linearGradient3919)" fill-opacity="1" fill-rule="nonzero" stroke="none" d="m 38.987861,326.78653 c 0,0 164.485199,-30.91578 164.485199,-30.91578 0,0 -141.045174,-170.79742 -141.045174,-170.79742 -37.633135,59.08709 -47.372475,133.53532 -23.440025,201.7132 z" display="inline"/><path id="path3921" fill="url(#linearGradient3923)" fill-opacity="1" fill-rule="nonzero" stroke="none" d="m 86.190993,103.45524 c 0,0 109.016447,126.99047 109.016447,126.99047 0,0 77.39232,-207.547416 77.39232,-207.547416 C 202.61227,19.850589 133.26854,48.640187 86.190993,103.45524 Z" display="inline"/><circle id="path4204" cx="256" cy="256" r="32" fill="url(#linearGradient4212)" fill-opacity="1" stroke="none" d="m 288,256 c 0,17.67311 -14.32689,32 -32,32 -17.67311,0 -32,-14.32689 -32,-32 0,-17.67311 14.32689,-32 32,-32 17.67311,0 32,14.32689 32,32 z"/></g></g><g id="layer6" display="inline" opacity=".5" transform="translate(-47.459886,-473.46144)"><g id="g4952" transform="matrix(0.08769582,0,0,0.08769582,47.592261,475.02854)"><path id="path4023" fill="#fff" fill-opacity="1" fill-rule="nonzero" stroke="none" d="m 262.75,177.90625 c 62.52323,-10.73321 125.19451,-20.60368 187.625,-31.875 C 419.71999,95.155323 367.86385,57.206218 309.65625,44.25 294.02083,88.802083 278.38542,133.35417 262.75,177.90625 Z" display="inline" filter="url(#filter4312)" opacity=".15"/><path id="path4025" fill="#fff" fill-opacity="1" fill-rule="nonzero" stroke="none" d="m 327.03125,222.84375 c 40.52329,48.7881 80.41434,98.10187 121.40625,146.5 28.72085,-51.924 35.59327,-115.91001 17.78125,-172.71875 -46.39583,8.73958 -92.79167,17.47917 -139.1875,26.21875 z" display="inline" filter="url(#filter4320)" opacity=".25"/><path id="path4027" fill="#fff" fill-opacity="1" fill-rule="nonzero" stroke="none" d="m 253.6875,479.3125 c 59.78567,-1.05071 118.43027,-27.00522 158.75,-70.875 0,0 -92.21875,-107.5 -92.21875,-107.5 -22.17708,59.45833 -44.35417,118.91667 -66.53125,178.375 z" display="inline" filter="url(#filter4336)" opacity=".15"/><path id="path4029" fill="#fff" fill-opacity="1" fill-rule="nonzero" stroke="none" d="m 61.4375,365.6875 c 30.573313,50.93663 82.51522,89.03868 140.90625,102.0625 15.63542,-44.55208 31.27083,-89.10417 46.90625,-133.65625 0,0 -187.8125,31.59375 -187.8125,31.59375 z" display="inline" filter="url(#filter4344)" opacity=".15"/><path id="path4031" fill="#fff" fill-opacity="1" fill-rule="nonzero" stroke="none" d="M 63.25,143.21875 C 34.736871,195.07118 28.061243,258.83927 45.78125,315.375 c 46.416667,-8.73958 92.83333,-17.47917 139.25,-26.21875 0,0 -121.3125,-146.8125 -121.3125,-146.8125 0,0 -0.46875,0.875 -0.46875,0.875 z" display="inline" filter="url(#filter4308)" opacity=".25"/><path id="path4033" fill="#fff" fill-opacity="1" fill-rule="nonzero" stroke="none" d="m 257.71875,32.71875 c -59.39755,1.052231 -117.93041,27.160989 -158.1875,70.8125 0,0 92.25,107.53125 92.25,107.53125 22.17708,-59.45833 44.35417,-118.916667 66.53125,-178.375 0,0 -0.59375,0.03125 -0.59375,0.03125 z" display="inline" filter="url(#filter4328)" opacity=".15"/><path id="path4214" fill="#fff" fill-opacity="1" stroke="none" d="m 254.78125,234.03125 c -17.8789,-0.18647 -28.23464,25.62892 -14.5625,37.5 10.37034,10.67035 31.40662,7.50652 36.21875,-7.15625 5.24155,-12.60382 -3.31381,-29.03594 -17.28125,-30.15625 -1.45106,-0.20321 -2.91063,-0.2824 -4.375,-0.1875 z" display="inline" filter="url(#filter4348)" opacity=".15"/></g></g><g id="layer1" transform="translate(-20.119171,-477.87188)"><path id="path3436" fill="url(#linearGradient4328)" fill-opacity="1" fill-rule="nonzero" stroke="#333" stroke-dasharray="none" stroke-dashoffset="0" stroke-linecap="round" stroke-linejoin="round" stroke-miterlimit="4" stroke-opacity="1" stroke-width=".175" d="m 25.493722,500.47508 c 5.673252,2.41666 11.643005,3.24388 17.814115,4.04219 -0.05239,0.7774 0.419958,1.43279 -0.599587,2.19744 -3.047729,0.62687 -14.299961,1.48217 -17.615735,1.09172 -0.343585,-2.44378 -0.03749,-4.88757 0.401207,-7.33135 z" clip-rule="nonzero" color="#000" color-interpolation="sRGB" color-interpolation-filters="linearRGB" color-rendering="auto" display="inline" enable-background="accumulate" image-rendering="auto" opacity="1" overflow="visible" shape-rendering="auto" text-rendering="auto" visibility="visible" style="isolation:auto;mix-blend-mode:normal;solid-color:#000;solid-opacity:1"/><path id="path3438" fill="url(#linearGradient4296)" fill-opacity="1" fill-rule="nonzero" stroke="#333" stroke-dasharray="none" stroke-dashoffset="0" stroke-linecap="round" stroke-linejoin="round" stroke-miterlimit="4" stroke-opacity="1" stroke-width=".175" d="m 60.099643,500.98888 c -2.993787,1.82495 -4.384905,3.45198 -15.958428,3.38436 l 0.271738,2.32213 c 4.465258,1.23876 10.312758,1.03084 16.131352,0.56818 0.259853,-2.09156 0.08582,-4.18312 -0.444662,-6.27467 z" clip-rule="nonzero" color="#000" color-interpolation="sRGB" color-interpolation-filters="linearRGB" color-rendering="auto" display="inline" enable-background="accumulate" image-rendering="auto" opacity="1" overflow="visible" shape-rendering="auto" text-rendering="auto" visibility="visible" style="isolation:auto;mix-blend-mode:normal;solid-color:#000;solid-opacity:1"/><path id="path4282" fill="url(#linearGradient4304)" fill-opacity="1" fill-rule="nonzero" stroke="#333" stroke-dasharray="none" stroke-dashoffset="0" stroke-linecap="round" stroke-linejoin="round" stroke-miterlimit="4" stroke-opacity="1" stroke-width=".175" d="m 47.859955,506.56728 c 4.182293,0.39262 4.945036,6.16252 7.111133,7.87197 -0.986057,0.0696 -2.752626,-0.76176 -3.926269,-1.11516 -0.07976,0.75408 -0.332446,3.02991 -0.412205,3.91398 -1.503247,-1.47092 -2.571763,-8.30246 -5.484644,-10.32143 z" clip-rule="nonzero" color="#000" color-interpolation="sRGB" color-interpolation-filters="linearRGB" color-rendering="auto" display="inline" enable-background="accumulate" image-rendering="auto" opacity="1" overflow="visible" shape-rendering="auto" text-rendering="auto" visibility="visible" style="isolation:auto;mix-blend-mode:normal;solid-color:#000;solid-opacity:1"/><path id="path4270" fill="#eee" fill-opacity="1" fill-rule="nonzero" stroke="#333" stroke-dasharray="none" stroke-dashoffset="0" stroke-linecap="round" stroke-linejoin="round" stroke-miterlimit="4" stroke-opacity="1" stroke-width=".175" d="m 45.384517,504.24257 c 2.334787,-1.62626 6.411838,-4.40272 8.392631,-3.50086 1.466116,1.22384 1.89195,2.4154 1.887823,3.72588 l -10.464505,2.69989 c -0.171808,-1.0036 -0.349103,-1.92131 0.184051,-2.92491 z" clip-rule="nonzero" color="#000" color-interpolation="sRGB" color-interpolation-filters="linearRGB" color-rendering="auto" display="inline" enable-background="accumulate" image-rendering="auto" opacity="1" overflow="visible" shape-rendering="auto" text-rendering="auto" visibility="visible" style="isolation:auto;mix-blend-mode:normal;solid-color:#000;solid-opacity:1"/><path id="path4268" fill="url(#linearGradient4344)" fill-opacity="1" fill-rule="nonzero" stroke="#333" stroke-dasharray="none" stroke-dashoffset="0" stroke-linecap="round" stroke-linejoin="round" stroke-miterlimit="4" stroke-opacity="1" stroke-width=".175" d="m 45.200466,507.16748 c 5.489927,-2.66626 10.962833,-3.4641 10.428287,-2.59155 -1.589746,2.59496 -7.388891,2.74375 -10.428287,2.59155 z" clip-rule="nonzero" color="#000" color-interpolation="sRGB" color-interpolation-filters="linearRGB" color-rendering="auto" display="inline" enable-background="accumulate" image-rendering="auto" opacity="1" overflow="visible" shape-rendering="auto" text-rendering="auto" visibility="visible" style="isolation:auto;mix-blend-mode:normal;solid-color:#000;solid-opacity:1"/><path id="path4278" fill="#eee" fill-opacity="1" fill-rule="nonzero" stroke="#333" stroke-dasharray="none" stroke-dashoffset="0" stroke-linecap="round" stroke-linejoin="round" stroke-miterlimit="4" stroke-opacity="1" stroke-width=".175" d="m 42.323522,503.99183 c -2.383436,-1.5541 -6.5435,-4.20456 -8.495781,-3.24253 -1.427998,1.2681 -1.817189,2.47214 -1.772982,3.78188 l 10.542187,2.37854 c 0.141033,-1.00837 0.290176,-1.93108 -0.273424,-2.91789 z" clip-rule="nonzero" color="#000" color-interpolation="sRGB" color-interpolation-filters="linearRGB" color-rendering="auto" display="inline" enable-background="accumulate" image-rendering="auto" opacity="1" overflow="visible" shape-rendering="auto" text-rendering="auto" visibility="visible" style="isolation:auto;mix-blend-mode:normal;solid-color:#000;solid-opacity:1"/><path id="path4280" fill="url(#linearGradient4352)" fill-opacity="1" fill-rule="nonzero" stroke="#333" stroke-dasharray="none" stroke-dashoffset="0" stroke-linecap="round" stroke-linejoin="round" stroke-miterlimit="4" stroke-opacity="1" stroke-width=".175" d="m 42.596946,506.90972 c -5.568908,-2.49707 -11.063655,-3.12716 -10.502672,-2.27137 1.66837,2.54513 7.469353,2.51648 10.502672,2.27137 z" clip-rule="nonzero" color="#000" color-interpolation="sRGB" color-interpolation-filters="linearRGB" color-rendering="auto" display="inline" enable-background="accumulate" image-rendering="auto" opacity="1" overflow="visible" shape-rendering="auto" text-rendering="auto" visibility="visible" style="isolation:auto;mix-blend-mode:normal;solid-color:#000;solid-opacity:1"/><path id="path4284" fill="url(#linearGradient4320)" fill-opacity="1" fill-rule="nonzero" stroke="#333" stroke-dasharray="none" stroke-dashoffset="0" stroke-linecap="round" stroke-linejoin="round" stroke-miterlimit="4" stroke-opacity="1" stroke-width=".175" d="m 42.569264,504.67378 c -4.332859,1.33152 -7.429922,8.42943 -9.44655,10.31288 0.988432,-0.0125 2.679843,-0.98776 3.820077,-1.43742 0.14212,0.74485 0.582956,2.99182 0.735871,3.86621 1.375881,-1.59069 1.873289,-8.48738 4.608413,-10.7413 0.901183,-0.86442 0.352929,-1.13596 0.282189,-2.00037 z" clip-rule="nonzero" color="#000" color-interpolation="sRGB" color-interpolation-filters="linearRGB" color-rendering="auto" display="inline" enable-background="accumulate" image-rendering="auto" opacity="1" overflow="visible" shape-rendering="auto" text-rendering="auto" visibility="visible" style="isolation:auto;mix-blend-mode:normal;solid-color:#000;solid-opacity:1"/><path id="path4245" fill="url(#linearGradient4336)" fill-opacity="1" fill-rule="nonzero" stroke="#333" stroke-dasharray="none" stroke-dashoffset="0" stroke-linecap="round" stroke-linejoin="round" stroke-miterlimit="4" stroke-opacity="1" stroke-width=".175" d="m 42.288455,503.85447 c 0.632268,-0.26617 0.824093,0.20246 1.639924,0.21056 0.740342,0.007 1.105437,-0.34196 1.769152,-0.087 -0.512359,1.15323 -0.637259,2.31193 -0.172923,3.33497 -1.151393,0.22271 -2.324931,0.31254 -3.606704,-0.24703 0.78303,-1.02108 0.622348,-2.19039 0.370551,-3.21146 z" clip-rule="nonzero" color="#000" color-interpolation="sRGB" color-interpolation-filters="linearRGB" color-rendering="auto" display="inline" enable-background="accumulate" image-rendering="auto" opacity="1" overflow="visible" shape-rendering="auto" text-rendering="auto" visibility="visible" style="isolation:auto;mix-blend-mode:normal;solid-color:#000;solid-opacity:1"/></g></svg>