<svg xmlns="http://www.w3.org/2000/svg" xmlns:svg="http://www.w3.org/2000/svg" xmlns:xlink="http://www.w3.org/1999/xlink" id="svg2" width="40" height="40" version="1.1"><defs id="defs4"><linearGradient id="linearGradient4206"><stop id="stop4208" offset="0" stop-color="#fff" stop-opacity="1"/><stop id="stop4210" offset="1" stop-color="#b0b0b0" stop-opacity="1"/></linearGradient><linearGradient id="linearGradient4209"><stop id="stop4211" offset="0" stop-color="#fff" stop-opacity="1"/><stop id="stop4213" offset="1" stop-color="#fff" stop-opacity="0"/></linearGradient><linearGradient id="linearGradient4163"><stop id="stop4165" offset="0" stop-color="#ff7004" stop-opacity="1"/><stop id="stop4167" offset="1" stop-color="#ba4704" stop-opacity="1"/></linearGradient><linearGradient id="linearGradient4153"><stop id="stop4155" offset="0" stop-color="#d70016" stop-opacity="1"/><stop id="stop4157" offset="1" stop-color="#8d0016" stop-opacity="1"/></linearGradient><linearGradient id="linearGradient4143"><stop id="stop4145" offset="0" stop-color="#d000d0" stop-opacity="1"/><stop id="stop4147" offset="1" stop-color="#760076" stop-opacity="1"/></linearGradient><linearGradient id="linearGradient4133"><stop id="stop4135" offset="0" stop-color="#1476e6" stop-opacity="1"/><stop id="stop4137" offset="1" stop-color="#143e9a" stop-opacity="1"/></linearGradient><linearGradient id="linearGradient4123"><stop id="stop4125" offset="0" stop-color="#17b414" stop-opacity="1"/><stop id="stop4127" offset="1" stop-color="#176314" stop-opacity="1"/></linearGradient><linearGradient id="linearGradient4105"><stop id="stop4107" offset="0" stop-color="#f7f10e" stop-opacity="1"/><stop id="stop4109" offset="1" stop-color="#c58907" stop-opacity="1"/></linearGradient><filter id="filter4107" color-interpolation-filters="sRGB"><feGaussianBlur id="feGaussianBlur4109" stdDeviation="9"/></filter><filter id="filter3902"><feGaussianBlur id="feGaussianBlur3904" stdDeviation="9"/></filter><linearGradient id="linearGradient3885" x1="372.859" x2="318.297" y1="593.388" y2="726.388" gradientTransform="matrix(0.07751938,0,0,0.07751938,23.853936,410.22261)" gradientUnits="userSpaceOnUse" xlink:href="#linearGradient4163"/><linearGradient id="linearGradient3907" x1="277.627" x2="454.048" y1="637.059" y2="683.489" gradientTransform="matrix(0.03875969,0.06713375,-0.06713375,0.03875969,86.7237,423.77336)" gradientUnits="userSpaceOnUse" xlink:href="#linearGradient4105"/><linearGradient id="linearGradient3911" x1="253.838" x2="401.186" y1="725.269" y2="612.484" gradientTransform="matrix(-0.03875969,0.06713375,-0.06713375,-0.03875969,106.4233,484.99553)" gradientUnits="userSpaceOnUse" xlink:href="#linearGradient4123"/><linearGradient id="linearGradient3915" x1="326.125" x2="342.125" y1="701.766" y2="581.766" gradientTransform="matrix(-0.07751938,0,0,-0.07751938,63.253128,532.66698)" gradientUnits="userSpaceOnUse" xlink:href="#linearGradient4133"/><linearGradient id="linearGradient3919" x1="456.976" x2="273.627" y1="694.418" y2="643.987" gradientTransform="matrix(-0.03875969,-0.06713375,0.06713375,-0.03875969,0.38336288,519.11623)" gradientUnits="userSpaceOnUse" xlink:href="#linearGradient4143"/><linearGradient id="linearGradient3923" x1="432.115" x2="263.694" y1="650.053" y2="710.341" gradientTransform="matrix(0.03875969,-0.06713375,0.06713375,0.03875969,-19.316233,457.89405)" gradientUnits="userSpaceOnUse" xlink:href="#linearGradient4153"/><filter id="filter3999" width="1.204" height="1.282" x="-.102" y="-.141"><feGaussianBlur id="feGaussianBlur4001" stdDeviation="9.267"/></filter><filter id="filter4007" width="1.239" height="1.214" x="-.119" y="-.107"><feGaussianBlur id="feGaussianBlur4009" stdDeviation="9.267"/></filter><filter id="filter4011" width="1.204" height="1.282" x="-.102" y="-.141"><feGaussianBlur id="feGaussianBlur4013" stdDeviation="9.267"/></filter><filter id="filter4015" width="1.251" height="1.221" x="-.125" y="-.11"><feGaussianBlur id="feGaussianBlur4017" stdDeviation="9.267"/></filter><filter id="filter4019" width="1.239" height="1.214" x="-.119" y="-.107"><feGaussianBlur id="feGaussianBlur4021" stdDeviation="9.267"/></filter><linearGradient id="linearGradient4212" x1="256" x2="256" y1="224" y2="288" gradientTransform="matrix(0.07751938,0,0,0.07751938,23.708571,451.59983)" gradientUnits="userSpaceOnUse" xlink:href="#linearGradient4206"/><filter id="filter4245" width="1.251" height="1.221" x="-.126" y="-.111"><feGaussianBlur id="feGaussianBlur4247" stdDeviation="9.291"/></filter><filter id="filter4257" width="1.235" height="1.235" x="-.118" y="-.118"><feGaussianBlur id="feGaussianBlur4259" stdDeviation="3.136"/></filter><filter id="filter4308"><feGaussianBlur id="feGaussianBlur4310" stdDeviation="4.831"/></filter><filter id="filter4312"><feGaussianBlur id="feGaussianBlur4314" stdDeviation="4.819"/></filter><filter id="filter4320"><feGaussianBlur id="feGaussianBlur4322" stdDeviation="4.825"/></filter><filter id="filter4328"><feGaussianBlur id="feGaussianBlur4330" stdDeviation="5.057"/></filter><filter id="filter4336"><feGaussianBlur id="feGaussianBlur4338" stdDeviation="5.057"/></filter><filter id="filter4344"><feGaussianBlur id="feGaussianBlur4346" stdDeviation="4.822"/></filter><filter id="filter4348"><feGaussianBlur id="feGaussianBlur4350" stdDeviation="1.758"/></filter></defs><metadata id="metadata7"/><g id="layer3" display="inline" transform="translate(-23.476013,-451.52232)"><path id="path3947" fill="#1a1a1a" fill-opacity="1" stroke="none" d="M 510,287 A 225,225 0 0 1 288.48211,511.97305 225,225 0 0 1 60.107778,293.96338 225,225 0 0 1 274.55701,62.242477 225,225 0 0 1 509.56899,273.07991" filter="url(#filter4107)" opacity=".95" transform="matrix(0.07407407,0,0,0.07407407,22.364902,450.26306)"/><path id="path3892" fill="#1a1a1a" fill-opacity="1" stroke="none" d="M 510,287 A 225,225 0 0 1 288.48211,511.97305 225,225 0 0 1 60.107778,293.96338 225,225 0 0 1 274.55701,62.242477 225,225 0 0 1 509.56899,273.07991" display="inline" filter="url(#filter3902)" opacity=".95" transform="matrix(0.07407407,0,0,0.07407407,22.364902,450.26306)"/><path id="path3021" fill="#1a1a1a" fill-opacity="1" stroke="none" d="M 60.142679,471.52231 A 16.666666,16.666666 0 0 1 43.733947,488.18698 16.666666,16.666666 0 0 1 26.817331,472.03811 16.666666,16.666666 0 0 1 42.702459,454.8736 16.666666,16.666666 0 0 1 60.110753,470.49119" display="inline" opacity=".95"/></g><g id="layer9" display="inline" transform="translate(-23.476013,-451.52232)"><path id="path3951" fill="#000" fill-opacity="1" fill-rule="nonzero" stroke="none" d="m 303.20313,32.6687 -55.46875,157.90625 218.4375,-36.75 C 433.81752,91.69016 374.21313,46.03153 303.20313,32.6687 Z" display="inline" filter="url(#filter3999)" transform="matrix(0.07751938,0,0,0.07751938,23.708571,451.59983)"/><path id="path3953" fill="#000" fill-opacity="1" fill-rule="nonzero" stroke="none" d="m 473.01214,185.21346 -164.4852,30.91578 141.04518,170.79742 c 37.63313,-59.08709 47.37247,-133.53532 23.44002,-201.7132 z" display="inline" filter="url(#filter4245)" transform="matrix(0.07751938,0,0,0.07751938,23.708571,451.59983)"/><path id="path3955" fill="#000" fill-opacity="1" fill-rule="nonzero" stroke="none" d="M 425.80901,408.54475 316.79256,281.55428 239.40024,489.1017 c 69.98749,3.0477 139.33122,-25.7419 186.40877,-80.55695 z" display="inline" filter="url(#filter4007)" transform="matrix(0.07751938,0,0,0.07751938,23.708571,451.59983)"/><path id="path3957" fill="#000" fill-opacity="1" fill-rule="nonzero" stroke="none" d="M 208.79687,479.33129 264.26562,321.42504 45.828123,358.17503 c 32.354359,62.1348 91.958747,107.79343 162.968747,121.15626 z" display="inline" filter="url(#filter4011)" transform="matrix(0.07751938,0,0,0.07751938,23.708571,451.59983)"/><path id="path3959" fill="#000" fill-opacity="1" fill-rule="nonzero" stroke="none" d="M 38.987861,326.78653 203.47306,295.87075 62.427886,125.07333 C 24.794751,184.16042 15.055411,258.60865 38.987861,326.78653 Z" display="inline" filter="url(#filter4015)" transform="matrix(0.07751938,0,0,0.07751938,23.708571,451.59983)"/><path id="path3961" fill="#000" fill-opacity="1" fill-rule="nonzero" stroke="none" d="M 86.190993,103.45524 195.20744,230.44571 272.59976,22.898294 C 202.61227,19.850588 133.26854,48.640187 86.190993,103.45524 Z" display="inline" filter="url(#filter4019)" transform="matrix(0.07751938,0,0,0.07751938,23.708571,451.59983)"/><circle id="path4249" cx="256" cy="256" r="32" fill="#000" fill-opacity="1" stroke="none" display="inline" filter="url(#filter4257)" transform="matrix(0.07751938,0,0,0.07751938,23.708571,451.59983)"/></g><g id="layer2" display="inline" transform="translate(-23.476013,-451.52232)"><path id="path3902" fill="url(#linearGradient3885)" fill-opacity="1" fill-rule="nonzero" stroke="none" d="m 47.212688,454.13229 -4.299902,12.2408 16.933138,-2.84885 c -2.508089,-4.81664 -7.128584,-8.35607 -12.633236,-9.39195 z" display="inline"/><path id="path3905" fill="url(#linearGradient3907)" fill-opacity="1" fill-rule="nonzero" stroke="none" d="m 60.376177,465.95747 -12.75079,2.39657 10.933735,13.2401 c 2.917297,-4.58039 3.672284,-10.35157 1.817055,-15.63667 z" display="inline"/><path id="path3909" fill="url(#linearGradient3911)" fill-opacity="1" fill-rule="nonzero" stroke="none" d="m 56.71702,483.26997 -8.450887,-9.84423 -5.999404,16.08895 c 5.425387,0.23626 10.800869,-1.99549 14.450291,-6.24472 z" display="inline"/><path id="path3913" fill="url(#linearGradient3915)" fill-opacity="1" fill-rule="nonzero" stroke="none" d="m 39.894374,488.75729 4.299903,-12.24078 -16.933138,2.84883 c 2.50809,4.81665 7.128585,8.35608 12.633235,9.39195 z" display="inline"/><path id="path3917" fill="url(#linearGradient3919)" fill-opacity="1" fill-rule="nonzero" stroke="none" d="m 26.730886,476.93212 12.75079,-2.39657 -10.933734,-13.24011 c -2.917297,4.58039 -3.672285,10.35157 -1.817056,15.63668 z" display="inline"/><path id="path3921" fill="url(#linearGradient3923)" fill-opacity="1" fill-rule="nonzero" stroke="none" d="m 30.390043,459.61962 8.450887,9.84422 5.999405,-16.08895 c -5.425387,-0.23625 -10.80087,1.9955 -14.450292,6.24473 z" display="inline"/><circle id="path4204" cx="43.554" cy="471.445" r="2.481" fill="url(#linearGradient4212)" fill-opacity="1" stroke="none"/></g><g id="layer6" display="inline" opacity=".5" transform="translate(-23.476013,-451.52232)"><path id="path4023" fill="#fff" fill-opacity="1" fill-rule="nonzero" stroke="none" d="m 262.75,177.90625 c 62.52323,-10.73321 125.19451,-20.60368 187.625,-31.875 C 419.71999,95.155323 367.86385,57.206218 309.65625,44.25 294.02083,88.802083 278.38542,133.35417 262.75,177.90625 Z" display="inline" filter="url(#filter4312)" opacity=".15" transform="matrix(0.07751938,0,0,0.07751938,23.708571,451.59983)"/><path id="path4025" fill="#fff" fill-opacity="1" fill-rule="nonzero" stroke="none" d="m 327.03125,222.84375 c 40.52329,48.7881 80.41434,98.10187 121.40625,146.5 28.72085,-51.924 35.59327,-115.91001 17.78125,-172.71875 -46.39583,8.73958 -92.79167,17.47917 -139.1875,26.21875 z" display="inline" filter="url(#filter4320)" opacity=".25" transform="matrix(0.07751938,0,0,0.07751938,23.708571,451.59983)"/><path id="path4027" fill="#fff" fill-opacity="1" fill-rule="nonzero" stroke="none" d="m 253.6875,479.3125 c 59.78567,-1.05071 118.43027,-27.00522 158.75,-70.875 -30.73958,-35.83333 -61.47917,-71.66667 -92.21875,-107.5 -22.17708,59.45833 -44.35417,118.91667 -66.53125,178.375 z" display="inline" filter="url(#filter4336)" opacity=".15" transform="matrix(0.07751938,0,0,0.07751938,23.708571,451.59983)"/><path id="path4029" fill="#fff" fill-opacity="1" fill-rule="nonzero" stroke="none" d="M 61.4375,365.6875 C 92.010813,416.62413 143.95272,454.72618 202.34375,467.75 217.97917,423.19792 233.61458,378.64583 249.25,334.09375 186.64583,344.625 124.04167,355.15625 61.4375,365.6875 Z" display="inline" filter="url(#filter4344)" opacity=".15" transform="matrix(0.07751938,0,0,0.07751938,23.708571,451.59983)"/><path id="path4031" fill="#fff" fill-opacity="1" fill-rule="nonzero" stroke="none" d="M 63.25,143.21875 C 34.736871,195.07118 28.061243,258.83927 45.78125,315.375 c 46.416667,-8.73958 92.83333,-17.47917 139.25,-26.21875 -40.4375,-48.9375 -80.875,-97.875 -121.3125,-146.8125 l -0.46875,0.875 z" display="inline" filter="url(#filter4308)" opacity=".25" transform="matrix(0.07751938,0,0,0.07751938,23.708571,451.59983)"/><path id="path4033" fill="#fff" fill-opacity="1" fill-rule="nonzero" stroke="none" d="m 257.71875,32.71875 c -59.39755,1.052231 -117.93041,27.160989 -158.1875,70.8125 30.75,35.84375 61.5,71.6875 92.25,107.53125 22.17708,-59.45833 44.35417,-118.916667 66.53125,-178.375 l -0.59375,0.03125 z" display="inline" filter="url(#filter4328)" opacity=".15" transform="matrix(0.07751938,0,0,0.07751938,23.708571,451.59983)"/><path id="path4214" fill="#fff" fill-opacity="1" stroke="none" d="m 254.78125,234.03125 c -17.8789,-0.18647 -28.23464,25.62892 -14.5625,37.5 10.37034,10.67035 31.40662,7.50652 36.21875,-7.15625 5.24155,-12.60382 -3.31381,-29.03594 -17.28125,-30.15625 -1.45106,-0.20321 -2.91063,-0.2824 -4.375,-0.1875 z" display="inline" filter="url(#filter4348)" opacity=".15" transform="matrix(0.07751938,0,0,0.07751938,23.708571,451.59983)"/></g></svg>