<svg xmlns="http://www.w3.org/2000/svg" xmlns:svg="http://www.w3.org/2000/svg" xmlns:xlink="http://www.w3.org/1999/xlink" id="svg2" width="60" height="50.117" version="1.1"><defs id="defs4"><linearGradient id="linearGradient4237"><stop id="stop4239" offset="0" stop-color="#eee" stop-opacity="1"/><stop id="stop4241" offset="1" stop-color="#aaa" stop-opacity="1"/></linearGradient><linearGradient id="linearGradient4227"><stop id="stop4229" offset="0" stop-color="#eee" stop-opacity="1"/><stop id="stop4231" offset="1" stop-color="#aaa" stop-opacity="1"/></linearGradient><linearGradient id="linearGradient4206"><stop id="stop4208" offset="0" stop-color="#fff" stop-opacity="1"/><stop id="stop4210" offset="1" stop-color="#b0b0b0" stop-opacity="1"/></linearGradient><linearGradient id="linearGradient4209"><stop id="stop4211" offset="0" stop-color="#fff" stop-opacity="1"/><stop id="stop4213" offset="1" stop-color="#fff" stop-opacity="0"/></linearGradient><linearGradient id="linearGradient4163"><stop id="stop4165" offset="0" stop-color="#ff7004" stop-opacity="1"/><stop id="stop4167" offset="1" stop-color="#ba4704" stop-opacity="1"/></linearGradient><linearGradient id="linearGradient4153"><stop id="stop4155" offset="0" stop-color="#d70016" stop-opacity="1"/><stop id="stop4157" offset="1" stop-color="#8d0016" stop-opacity="1"/></linearGradient><linearGradient id="linearGradient4143"><stop id="stop4145" offset="0" stop-color="#d000d0" stop-opacity="1"/><stop id="stop4147" offset="1" stop-color="#760076" stop-opacity="1"/></linearGradient><linearGradient id="linearGradient4133"><stop id="stop4135" offset="0" stop-color="#1476e6" stop-opacity="1"/><stop id="stop4137" offset="1" stop-color="#143e9a" stop-opacity="1"/></linearGradient><linearGradient id="linearGradient4123"><stop id="stop4125" offset="0" stop-color="#17b414" stop-opacity="1"/><stop id="stop4127" offset="1" stop-color="#176314" stop-opacity="1"/></linearGradient><linearGradient id="linearGradient4105"><stop id="stop4107" offset="0" stop-color="#f7f10e" stop-opacity="1"/><stop id="stop4109" offset="1" stop-color="#c58907" stop-opacity="1"/></linearGradient><filter id="filter4107" color-interpolation-filters="sRGB"><feGaussianBlur id="feGaussianBlur4109" stdDeviation="9"/></filter><filter id="filter3902"><feGaussianBlur id="feGaussianBlur3904" stdDeviation="9"/></filter><linearGradient id="linearGradient3885" x1="372.859" x2="318.297" y1="593.388" y2="726.388" gradientTransform="matrix(0.08253776,0,0,0.08253776,-2.5976102,428.43719)" gradientUnits="userSpaceOnUse" xlink:href="#linearGradient4163"/><linearGradient id="linearGradient3907" x1="277.627" x2="454.048" y1="637.059" y2="683.489" gradientTransform="matrix(0.04126888,0.0714798,-0.0714798,0.04126888,64.342166,442.86516)" gradientUnits="userSpaceOnUse" xlink:href="#linearGradient4105"/><linearGradient id="linearGradient3911" x1="253.838" x2="401.186" y1="725.269" y2="612.484" gradientTransform="matrix(-0.04126888,0.0714798,-0.0714798,-0.04126888,85.317058,508.0507)" gradientUnits="userSpaceOnUse" xlink:href="#linearGradient4123"/><linearGradient id="linearGradient3915" x1="326.125" x2="342.125" y1="701.766" y2="581.766" gradientTransform="matrix(-0.08253776,0,0,-0.08253776,39.352174,558.80826)" gradientUnits="userSpaceOnUse" xlink:href="#linearGradient4133"/><linearGradient id="linearGradient3919" x1="456.976" x2="273.627" y1="694.418" y2="643.987" gradientTransform="matrix(-0.04126888,-0.0714798,0.0714798,-0.04126888,-27.587603,544.38028)" gradientUnits="userSpaceOnUse" xlink:href="#linearGradient4143"/><linearGradient id="linearGradient3923" x1="432.115" x2="263.694" y1="650.053" y2="710.341" gradientTransform="matrix(0.04126888,-0.0714798,0.0714798,0.04126888,-48.562496,479.19475)" gradientUnits="userSpaceOnUse" xlink:href="#linearGradient4153"/><filter id="filter3999" width="1.204" height="1.282" x="-.102" y="-.141"><feGaussianBlur id="feGaussianBlur4001" stdDeviation="9.267"/></filter><filter id="filter4007" width="1.239" height="1.214" x="-.119" y="-.107"><feGaussianBlur id="feGaussianBlur4009" stdDeviation="9.267"/></filter><filter id="filter4011" width="1.204" height="1.282" x="-.102" y="-.141"><feGaussianBlur id="feGaussianBlur4013" stdDeviation="9.267"/></filter><filter id="filter4015" width="1.251" height="1.221" x="-.125" y="-.11"><feGaussianBlur id="feGaussianBlur4017" stdDeviation="9.267"/></filter><filter id="filter4019" width="1.239" height="1.214" x="-.119" y="-.107"><feGaussianBlur id="feGaussianBlur4021" stdDeviation="9.267"/></filter><linearGradient id="linearGradient4212" x1="256" x2="256" y1="224" y2="288" gradientTransform="matrix(0.08253776,0,0,0.08253776,-2.7523864,472.49306)" gradientUnits="userSpaceOnUse" xlink:href="#linearGradient4206"/><filter id="filter4245" width="1.251" height="1.221" x="-.126" y="-.111"><feGaussianBlur id="feGaussianBlur4247" stdDeviation="9.291"/></filter><filter id="filter4257" width="1.235" height="1.235" x="-.118" y="-.118"><feGaussianBlur id="feGaussianBlur4259" stdDeviation="3.136"/></filter><filter id="filter4308"><feGaussianBlur id="feGaussianBlur4310" stdDeviation="4.831"/></filter><filter id="filter4312"><feGaussianBlur id="feGaussianBlur4314" stdDeviation="4.819"/></filter><filter id="filter4320"><feGaussianBlur id="feGaussianBlur4322" stdDeviation="4.825"/></filter><filter id="filter4328"><feGaussianBlur id="feGaussianBlur4330" stdDeviation="5.057"/></filter><filter id="filter4336"><feGaussianBlur id="feGaussianBlur4338" stdDeviation="5.057"/></filter><filter id="filter4344"><feGaussianBlur id="feGaussianBlur4346" stdDeviation="4.822"/></filter><filter id="filter4348"><feGaussianBlur id="feGaussianBlur4350" stdDeviation="1.758"/></filter><linearGradient id="linearGradient4233" x1="284.137" x2="495.263" y1="48.729" y2="216.87" gradientTransform="matrix(0.08253776,0,0,0.08253776,-2.7523864,472.49306)" gradientUnits="userSpaceOnUse" xlink:href="#linearGradient4227"/><radialGradient id="radialGradient4243" cx="615.021" cy="439.56" r="53.05" fx="615.021" fy="439.56" gradientTransform="matrix(0.08253776,0,0,0.08603513,-2.7523864,470.88637)" gradientUnits="userSpaceOnUse" xlink:href="#linearGradient4237"/><filter id="filter4251" width="1.105" height="1.14" x="-.052" y="-.07" color-interpolation-filters="sRGB"><feGaussianBlur id="feGaussianBlur4253" stdDeviation="6.564"/></filter><filter id="filter4258" width="1.177" height="1.091" x="-.088" y="-.045" color-interpolation-filters="sRGB"><feGaussianBlur id="feGaussianBlur4260" stdDeviation="3.945"/></filter><clipPath id="clipPath4264" clipPathUnits="userSpaceOnUse"><path id="path4266" fill="#980101" stroke="none" d="m 225.68807,-8.1834862 c 46.82418,-37.0701688 63.09746,-57.4854428 115.72076,-70.1817298 45.13773,-10.890263 85.07319,-20.300875 167.07511,-8.092376 85.89123,40.568757 231.15425,206.898572 214.07413,364.376932 -9.07121,83.63638 -50.73692,119.43206 -80.82534,162.90063 -28.00317,-30.51243 -39.15603,-63.43205 -50.45871,-96.33027 -5.51756,-16.05971 10.56461,-54.56142 33.96323,-72.9741 -23.30206,-40.62781 -43.91409,-75.38662 -68.81699,-113.60749 -2.6654,20.99162 -15.69025,23.12123 -29.81476,43.08272 z"/></clipPath><filter id="filter4277" width="1.084" height="1.213" x="-.042" y="-.106" color-interpolation-filters="sRGB"><feGaussianBlur id="feGaussianBlur4279" stdDeviation="7.137"/></filter><clipPath id="clipPath4283" clipPathUnits="userSpaceOnUse"><path id="path4285" fill="#980101" stroke="none" d="m 225.68807,-8.1834862 c 46.82418,-37.0701688 63.09746,-57.4854428 115.72076,-70.1817298 45.13773,-10.890263 85.07319,-20.300875 167.07511,-8.092376 85.89123,40.568757 231.15425,206.898572 214.07413,364.376932 -9.07121,83.63638 -50.73692,119.43206 -80.82534,162.90063 -28.00317,-30.51243 -39.15603,-63.43205 -50.45871,-96.33027 -5.51756,-16.05971 10.56461,-54.56142 33.96323,-72.9741 -23.30206,-40.62781 -43.91409,-75.38662 -68.81699,-113.60749 -2.6654,20.99162 -15.69025,23.12123 -29.81476,43.08272 z"/></clipPath></defs><metadata id="metadata7"/><g id="layer3" display="inline" transform="translate(2.9999996,-464.88261)"><path id="path3947" fill="#1a1a1a" fill-opacity="1" stroke="none" d="M 510,287 A 225,225 0 0 1 288.48211,511.97305 225,225 0 0 1 60.107778,293.96338 225,225 0 0 1 274.55701,62.242477 225,225 0 0 1 509.56899,273.07991" filter="url(#filter4107)" opacity=".95" transform="matrix(0.07886942,0,0,0.07886942,-4.1830409,471.06974)"/><path id="path3892" fill="#1a1a1a" fill-opacity="1" stroke="none" d="M 510,287 A 225,225 0 0 1 288.48211,511.97305 225,225 0 0 1 60.107778,293.96338 225,225 0 0 1 274.55701,62.242477 225,225 0 0 1 509.56899,273.07991" display="inline" filter="url(#filter3902)" opacity=".95" transform="matrix(0.07886942,0,0,0.07886942,-4.1830409,471.06974)"/><path id="path3021" fill="#1a1a1a" fill-opacity="1" stroke="none" d="M 36.040363,493.70526 A 17.745619,17.745619 0 0 1 18.569376,511.44875 17.745619,17.745619 0 0 1 0.55762609,494.25446 17.745619,17.745619 0 0 1 17.471112,475.97877 17.745619,17.745619 0 0 1 36.00637,492.60739" display="inline" opacity=".95"/></g><g id="layer9" display="inline" transform="translate(2.9999996,-464.88261)"><path id="path3951" fill="#000" fill-opacity="1" fill-rule="nonzero" stroke="none" d="m 303.20313,32.6687 -55.46875,157.90625 218.4375,-36.75 C 433.81752,91.69016 374.21313,46.03153 303.20313,32.6687 Z" display="inline" filter="url(#filter3999)" transform="matrix(0.08253776,0,0,0.08253776,-2.7523864,472.49306)"/><path id="path3953" fill="#000" fill-opacity="1" fill-rule="nonzero" stroke="none" d="m 473.01214,185.21346 -164.4852,30.91578 141.04518,170.79742 c 37.63313,-59.08709 47.37247,-133.53532 23.44002,-201.7132 z" display="inline" filter="url(#filter4245)" transform="matrix(0.08253776,0,0,0.08253776,-2.7523864,472.49306)"/><path id="path3955" fill="#000" fill-opacity="1" fill-rule="nonzero" stroke="none" d="M 425.80901,408.54475 316.79256,281.55428 239.40024,489.1017 c 69.98749,3.0477 139.33122,-25.7419 186.40877,-80.55695 z" display="inline" filter="url(#filter4007)" transform="matrix(0.08253776,0,0,0.08253776,-2.7523864,472.49306)"/><path id="path3957" fill="#000" fill-opacity="1" fill-rule="nonzero" stroke="none" d="M 208.79687,479.33129 264.26562,321.42504 45.828123,358.17503 c 32.354359,62.1348 91.958747,107.79343 162.968747,121.15626 z" display="inline" filter="url(#filter4011)" transform="matrix(0.08253776,0,0,0.08253776,-2.7523864,472.49306)"/><path id="path3959" fill="#000" fill-opacity="1" fill-rule="nonzero" stroke="none" d="M 38.987861,326.78653 203.47306,295.87075 62.427886,125.07333 C 24.794751,184.16042 15.055411,258.60865 38.987861,326.78653 Z" display="inline" filter="url(#filter4015)" transform="matrix(0.08253776,0,0,0.08253776,-2.7523864,472.49306)"/><path id="path3961" fill="#000" fill-opacity="1" fill-rule="nonzero" stroke="none" d="M 86.190993,103.45524 195.20744,230.44571 272.59976,22.898294 C 202.61227,19.850588 133.26854,48.640187 86.190993,103.45524 Z" display="inline" filter="url(#filter4019)" transform="matrix(0.08253776,0,0,0.08253776,-2.7523864,472.49306)"/><circle id="path4249" cx="256" cy="256" r="32" fill="#000" fill-opacity="1" stroke="none" display="inline" filter="url(#filter4257)" transform="matrix(0.08253776,0,0,0.08253776,-2.7523864,472.49306)"/></g><g id="layer2" display="inline" transform="translate(2.9999996,-464.88261)"><path id="path3902" fill="url(#linearGradient3885)" fill-opacity="1" fill-rule="nonzero" stroke="none" d="m 22.273322,475.18946 -4.578267,13.03322 18.029343,-3.03325 c -2.670457,-5.12847 -7.590069,-8.89703 -13.451076,-9.99997 z" display="inline"/><path id="path3905" fill="url(#linearGradient3907)" fill-opacity="1" fill-rule="nonzero" stroke="none" d="m 36.288978,487.78017 -13.576241,2.55171 11.641554,14.09724 c 3.106154,-4.87692 3.910018,-11.02171 1.934687,-16.64895 z" display="inline"/><path id="path3909" fill="url(#linearGradient3911)" fill-opacity="1" fill-rule="nonzero" stroke="none" d="m 32.392937,506.21343 -8.997974,-10.48152 -6.387789,17.13051 c 5.776611,0.25155 11.500088,-2.12468 15.385763,-6.64899 z" display="inline"/><path id="path3913" fill="url(#linearGradient3915)" fill-opacity="1" fill-rule="nonzero" stroke="none" d="m 14.481241,512.05599 4.578266,-13.03323 -18.0293426,3.03327 c 2.6704565,5.12846 7.5900694,8.89702 13.4510766,9.99996 z" display="inline"/><path id="path3917" fill="url(#linearGradient3919)" fill-opacity="1" fill-rule="nonzero" stroke="none" d="M 0.46558452,499.46529 14.041825,496.91357 2.4002718,482.81633 c -3.10615484,4.87691 -3.9100182,11.02171 -1.93468728,16.64896 z" display="inline"/><path id="path3921" fill="url(#linearGradient3923)" fill-opacity="1" fill-rule="nonzero" stroke="none" d="m 4.3616255,481.03202 8.9979735,10.48151 6.38779,-17.1305 c -5.776612,-0.25154 -11.500088,2.12468 -15.3857635,6.64899 z" display="inline"/><circle id="path4204" cx="18.377" cy="493.623" r="2.641" fill="url(#linearGradient4212)" fill-opacity="1" stroke="none"/></g><g id="layer6" display="inline" opacity=".5" transform="translate(2.9999996,-464.88261)"><path id="path4023" fill="#fff" fill-opacity="1" fill-rule="nonzero" stroke="none" d="m 262.75,177.90625 c 62.52323,-10.73321 125.19451,-20.60368 187.625,-31.875 C 419.71999,95.155323 367.86385,57.206218 309.65625,44.25 294.02083,88.802083 278.38542,133.35417 262.75,177.90625 Z" display="inline" filter="url(#filter4312)" opacity=".15" transform="matrix(0.08253776,0,0,0.08253776,-2.7523864,472.49306)"/><path id="path4025" fill="#fff" fill-opacity="1" fill-rule="nonzero" stroke="none" d="m 327.03125,222.84375 c 40.52329,48.7881 80.41434,98.10187 121.40625,146.5 28.72085,-51.924 35.59327,-115.91001 17.78125,-172.71875 -46.39583,8.73958 -92.79167,17.47917 -139.1875,26.21875 z" display="inline" filter="url(#filter4320)" opacity=".25" transform="matrix(0.08253776,0,0,0.08253776,-2.7523864,472.49306)"/><path id="path4027" fill="#fff" fill-opacity="1" fill-rule="nonzero" stroke="none" d="m 253.6875,479.3125 c 59.78567,-1.05071 118.43027,-27.00522 158.75,-70.875 -30.73958,-35.83333 -61.47917,-71.66667 -92.21875,-107.5 -22.17708,59.45833 -44.35417,118.91667 -66.53125,178.375 z" display="inline" filter="url(#filter4336)" opacity=".15" transform="matrix(0.08253776,0,0,0.08253776,-2.7523864,472.49306)"/><path id="path4029" fill="#fff" fill-opacity="1" fill-rule="nonzero" stroke="none" d="M 61.4375,365.6875 C 92.010813,416.62413 143.95272,454.72618 202.34375,467.75 217.97917,423.19792 233.61458,378.64583 249.25,334.09375 186.64583,344.625 124.04167,355.15625 61.4375,365.6875 Z" display="inline" filter="url(#filter4344)" opacity=".15" transform="matrix(0.08253776,0,0,0.08253776,-2.7523864,472.49306)"/><path id="path4031" fill="#fff" fill-opacity="1" fill-rule="nonzero" stroke="none" d="M 63.25,143.21875 C 34.736871,195.07118 28.061243,258.83927 45.78125,315.375 c 46.416667,-8.73958 92.83333,-17.47917 139.25,-26.21875 -40.4375,-48.9375 -80.875,-97.875 -121.3125,-146.8125 l -0.46875,0.875 z" display="inline" filter="url(#filter4308)" opacity=".25" transform="matrix(0.08253776,0,0,0.08253776,-2.7523864,472.49306)"/><path id="path4033" fill="#fff" fill-opacity="1" fill-rule="nonzero" stroke="none" d="m 257.71875,32.71875 c -59.39755,1.052231 -117.93041,27.160989 -158.1875,70.8125 30.75,35.84375 61.5,71.6875 92.25,107.53125 22.17708,-59.45833 44.35417,-118.916667 66.53125,-178.375 l -0.59375,0.03125 z" display="inline" filter="url(#filter4328)" opacity=".15" transform="matrix(0.08253776,0,0,0.08253776,-2.7523864,472.49306)"/><path id="path4214" fill="#fff" fill-opacity="1" stroke="none" d="m 254.78125,234.03125 c -17.8789,-0.18647 -28.23464,25.62892 -14.5625,37.5 10.37034,10.67035 31.40662,7.50652 36.21875,-7.15625 5.24155,-12.60382 -3.31381,-29.03594 -17.28125,-30.15625 -1.45106,-0.20321 -2.91063,-0.2824 -4.375,-0.1875 z" display="inline" filter="url(#filter4348)" opacity=".15" transform="matrix(0.08253776,0,0,0.08253776,-2.7523864,472.49306)"/></g><g id="layer10" transform="translate(2.9999996,-464.88261)"><path id="path4225" fill="#980101" stroke="none" d="m 15.875403,471.81762 c 3.864763,-3.0597 5.207922,-4.74473 9.551333,-5.79265 3.725567,-0.89886 7.02175,-1.67559 13.790005,-0.66793 7.08927,3.34846 19.078955,17.07694 17.6692,30.07486 -0.748717,6.90316 -4.187712,9.85765 -6.671142,13.44545 -2.31132,-2.51842 -3.231852,-5.23554 -4.164749,-7.95089 -0.455408,-1.32552 0.871978,-4.50337 2.803248,-6.02312 -1.9233,-3.35332 -3.62457,-6.22223 -5.68,-9.3769 -0.219997,1.7326 -1.295039,1.90838 -2.460844,3.55595 z"/><ellipse id="path4235" cx="49.494" cy="510.411" fill="url(#radialGradient4243)" fill-opacity="1" stroke="none" rx="4.379" ry="4.564"/><path id="path4245" fill="#000" stroke="none" d="M 203.20857,32.751464 C 304.21857,93.946602 401.86252,159.8542 490.93752,237.75834 L 503.52567,193.69985 240.07384,12.970099 Z" filter="url(#filter4251)" opacity=".5" transform="matrix(0.08253776,0,0,0.08253776,-2.7523864,472.49306)"/><path id="path4255" fill="#760101" fill-opacity="1" stroke="none" d="M 526.00391,-86.835938 C 701.53069,93.386517 741.59633,267.33794 658.17969,435.57227 L 800.24609,314.18555 672.56641,-72.449219 526.00391,-86.835938 Z M 534.99609,62.423828 517.01367,193.69922 624.01172,271.02734 534.99609,62.423828 Z" clip-path="url(#clipPath4264)" filter="url(#filter4258)" transform="matrix(0.08253776,0,0,0.08253776,-2.7523864,472.49306)"/><path id="path4271" fill="#b60101" fill-opacity="1" stroke="none" d="M 274.24166,24.659088 C 336.4618,-71.904158 465.71839,-76.292286 582.65113,-97.625717 L 408.21545,-136.2893 172.63737,-23.895173 Z" clip-path="url(#clipPath4283)" filter="url(#filter4277)" transform="matrix(0.08253776,0,0,0.08253776,-2.7523864,472.49306)"/><path id="path3416" fill="url(#linearGradient4233)" stroke="none" d="m 12.16499,475.07369 c 6.689958,0.71299 24.149944,13.52672 25.594278,17.94628 1.371956,-0.87719 3.304423,-1.89556 3.483245,-4.16474 -6.732217,-9.26279 -14.955799,-15.61303 -25.518556,-17.41623 -2.115011,0.4671 -3.302588,1.95948 -3.558967,3.63469 z" display="inline"/></g></svg>